<mxfile host="app.diagrams.net" agent="Mozilla/5.0 (Windows NT 10.0; Win64; x64) AppleWebKit/537.36 (KHTML, like Gecko) Chrome/128.0.0.0 Safari/537.36" version="24.7.12">
  <diagram name="Page-1" id="Uq5lLRcJ-9cM-J8prQFQ">
    <mxGraphModel dx="1588" dy="908" grid="1" gridSize="10" guides="1" tooltips="1" connect="1" arrows="1" fold="1" page="1" pageScale="1" pageWidth="850" pageHeight="1100" math="0" shadow="0">
      <root>
        <mxCell id="0" />
        <mxCell id="1" parent="0" />
        <mxCell id="VqGsNGX4vfgdfjk8QoRv-1" value="" style="rounded=1;whiteSpace=wrap;html=1;" vertex="1" parent="1">
          <mxGeometry x="664" y="677" width="120" height="200" as="geometry" />
        </mxCell>
        <mxCell id="VqGsNGX4vfgdfjk8QoRv-2" value="" style="rounded=1;whiteSpace=wrap;html=1;" vertex="1" parent="1">
          <mxGeometry x="675" y="792" width="100" height="80" as="geometry" />
        </mxCell>
        <mxCell id="VqGsNGX4vfgdfjk8QoRv-3" value="" style="rounded=1;whiteSpace=wrap;html=1;" vertex="1" parent="1">
          <mxGeometry x="675" y="707" width="100" height="80" as="geometry" />
        </mxCell>
        <mxCell id="VqGsNGX4vfgdfjk8QoRv-4" value="" style="rounded=1;whiteSpace=wrap;html=1;" vertex="1" parent="1">
          <mxGeometry x="344" y="707" width="300" height="80" as="geometry" />
        </mxCell>
        <mxCell id="VqGsNGX4vfgdfjk8QoRv-5" value="" style="rounded=1;whiteSpace=wrap;html=1;" vertex="1" parent="1">
          <mxGeometry x="346" y="792" width="300" height="80" as="geometry" />
        </mxCell>
        <mxCell id="VqGsNGX4vfgdfjk8QoRv-6" value="" style="sketch=0;outlineConnect=0;fontColor=#232F3E;gradientColor=none;fillColor=#8C4FFF;strokeColor=none;dashed=0;verticalLabelPosition=bottom;verticalAlign=top;align=center;html=1;fontSize=12;fontStyle=0;aspect=fixed;pointerEvents=1;shape=mxgraph.aws4.application_load_balancer;" vertex="1" parent="1">
          <mxGeometry x="466" y="557" width="30" height="30" as="geometry" />
        </mxCell>
        <mxCell id="VqGsNGX4vfgdfjk8QoRv-7" value="8002" style="text;html=1;align=center;verticalAlign=middle;whiteSpace=wrap;rounded=0;" vertex="1" parent="1">
          <mxGeometry x="424" y="757" width="60" height="30" as="geometry" />
        </mxCell>
        <mxCell id="VqGsNGX4vfgdfjk8QoRv-8" value="8002" style="text;html=1;align=center;verticalAlign=middle;whiteSpace=wrap;rounded=0;" vertex="1" parent="1">
          <mxGeometry x="546" y="757" width="60" height="30" as="geometry" />
        </mxCell>
        <mxCell id="VqGsNGX4vfgdfjk8QoRv-9" style="edgeStyle=orthogonalEdgeStyle;rounded=0;orthogonalLoop=1;jettySize=auto;html=1;exitX=0.5;exitY=1;exitDx=0;exitDy=0;exitPerimeter=0;" edge="1" parent="1" source="VqGsNGX4vfgdfjk8QoRv-10" target="VqGsNGX4vfgdfjk8QoRv-6">
          <mxGeometry relative="1" as="geometry" />
        </mxCell>
        <mxCell id="VqGsNGX4vfgdfjk8QoRv-10" value="" style="sketch=0;points=[[0,0,0],[0.25,0,0],[0.5,0,0],[0.75,0,0],[1,0,0],[0,1,0],[0.25,1,0],[0.5,1,0],[0.75,1,0],[1,1,0],[0,0.25,0],[0,0.5,0],[0,0.75,0],[1,0.25,0],[1,0.5,0],[1,0.75,0]];outlineConnect=0;fontColor=#232F3E;fillColor=#E7157B;strokeColor=#ffffff;dashed=0;verticalLabelPosition=bottom;verticalAlign=top;align=center;html=1;fontSize=12;fontStyle=0;aspect=fixed;shape=mxgraph.aws4.resourceIcon;resIcon=mxgraph.aws4.api_gateway;" vertex="1" parent="1">
          <mxGeometry x="466" y="461" width="30" height="30" as="geometry" />
        </mxCell>
        <mxCell id="VqGsNGX4vfgdfjk8QoRv-11" value="4439" style="text;html=1;align=center;verticalAlign=middle;whiteSpace=wrap;rounded=0;" vertex="1" parent="1">
          <mxGeometry x="424" y="827" width="60" height="30" as="geometry" />
        </mxCell>
        <mxCell id="VqGsNGX4vfgdfjk8QoRv-12" value="&lt;span style=&quot;background-color: initial;&quot;&gt;Tomcat&lt;/span&gt;" style="text;html=1;align=center;verticalAlign=middle;whiteSpace=wrap;rounded=0;" vertex="1" parent="1">
          <mxGeometry x="726" y="797" width="40" height="30" as="geometry" />
        </mxCell>
        <mxCell id="VqGsNGX4vfgdfjk8QoRv-13" value="4439" style="text;html=1;align=center;verticalAlign=middle;whiteSpace=wrap;rounded=0;" vertex="1" parent="1">
          <mxGeometry x="546" y="827" width="60" height="30" as="geometry" />
        </mxCell>
        <mxCell id="VqGsNGX4vfgdfjk8QoRv-14" value="" style="sketch=0;aspect=fixed;pointerEvents=1;shadow=0;dashed=0;html=1;strokeColor=none;labelPosition=center;verticalLabelPosition=bottom;verticalAlign=top;align=center;fillColor=#00188D;shape=mxgraph.mscae.enterprise.android_phone" vertex="1" parent="1">
          <mxGeometry x="347" y="451" width="30" height="50" as="geometry" />
        </mxCell>
        <mxCell id="VqGsNGX4vfgdfjk8QoRv-15" value="" style="html=1;verticalLabelPosition=bottom;align=center;labelBackgroundColor=#ffffff;verticalAlign=top;strokeWidth=2;strokeColor=#0080F0;shadow=0;dashed=0;shape=mxgraph.ios7.icons.user;" vertex="1" parent="1">
          <mxGeometry x="348" y="412" width="30" height="30" as="geometry" />
        </mxCell>
        <mxCell id="VqGsNGX4vfgdfjk8QoRv-16" style="edgeStyle=orthogonalEdgeStyle;rounded=0;orthogonalLoop=1;jettySize=auto;html=1;exitX=1;exitY=0.5;exitDx=0;exitDy=0;exitPerimeter=0;entryX=0;entryY=0.5;entryDx=0;entryDy=0;entryPerimeter=0;" edge="1" parent="1" source="VqGsNGX4vfgdfjk8QoRv-14" target="VqGsNGX4vfgdfjk8QoRv-10">
          <mxGeometry relative="1" as="geometry" />
        </mxCell>
        <mxCell id="VqGsNGX4vfgdfjk8QoRv-17" value="API Gateway" style="text;html=1;align=center;verticalAlign=middle;whiteSpace=wrap;rounded=0;" vertex="1" parent="1">
          <mxGeometry x="450" y="421" width="60" height="30" as="geometry" />
        </mxCell>
        <mxCell id="VqGsNGX4vfgdfjk8QoRv-18" value="Application Load Balancer" style="text;html=1;align=center;verticalAlign=middle;whiteSpace=wrap;rounded=0;" vertex="1" parent="1">
          <mxGeometry x="450" y="607" width="60" height="30" as="geometry" />
        </mxCell>
        <mxCell id="VqGsNGX4vfgdfjk8QoRv-19" value="" style="image;aspect=fixed;perimeter=ellipsePerimeter;html=1;align=center;shadow=0;dashed=0;spacingTop=3;image=img/lib/active_directory/windows_server_2.svg;" vertex="1" parent="1">
          <mxGeometry x="442" y="647" width="24" height="30" as="geometry" />
        </mxCell>
        <mxCell id="VqGsNGX4vfgdfjk8QoRv-20" value="" style="sketch=0;points=[[0,0,0],[0.25,0,0],[0.5,0,0],[0.75,0,0],[1,0,0],[0,1,0],[0.25,1,0],[0.5,1,0],[0.75,1,0],[1,1,0],[0,0.25,0],[0,0.5,0],[0,0.75,0],[1,0.25,0],[1,0.5,0],[1,0.75,0]];outlineConnect=0;fontColor=#232F3E;fillColor=#ED7100;strokeColor=#ffffff;dashed=0;verticalLabelPosition=bottom;verticalAlign=top;align=center;html=1;fontSize=12;fontStyle=0;aspect=fixed;shape=mxgraph.aws4.resourceIcon;resIcon=mxgraph.aws4.ec2;" vertex="1" parent="1">
          <mxGeometry x="406" y="647" width="30" height="30" as="geometry" />
        </mxCell>
        <mxCell id="VqGsNGX4vfgdfjk8QoRv-21" style="edgeStyle=orthogonalEdgeStyle;rounded=0;orthogonalLoop=1;jettySize=auto;html=1;entryX=0.5;entryY=0;entryDx=0;entryDy=0;entryPerimeter=0;" edge="1" parent="1" source="VqGsNGX4vfgdfjk8QoRv-6" target="VqGsNGX4vfgdfjk8QoRv-20">
          <mxGeometry relative="1" as="geometry" />
        </mxCell>
        <mxCell id="VqGsNGX4vfgdfjk8QoRv-22" value="" style="sketch=0;points=[[0,0,0],[0.25,0,0],[0.5,0,0],[0.75,0,0],[1,0,0],[0,1,0],[0.25,1,0],[0.5,1,0],[0.75,1,0],[1,1,0],[0,0.25,0],[0,0.5,0],[0,0.75,0],[1,0.25,0],[1,0.5,0],[1,0.75,0]];outlineConnect=0;fontColor=#232F3E;fillColor=#ED7100;strokeColor=#ffffff;dashed=0;verticalLabelPosition=bottom;verticalAlign=top;align=center;html=1;fontSize=12;fontStyle=0;aspect=fixed;shape=mxgraph.aws4.resourceIcon;resIcon=mxgraph.aws4.ec2;" vertex="1" parent="1">
          <mxGeometry x="524" y="647" width="30" height="30" as="geometry" />
        </mxCell>
        <mxCell id="VqGsNGX4vfgdfjk8QoRv-23" style="edgeStyle=orthogonalEdgeStyle;rounded=0;orthogonalLoop=1;jettySize=auto;html=1;entryX=0.5;entryY=0;entryDx=0;entryDy=0;entryPerimeter=0;" edge="1" parent="1" source="VqGsNGX4vfgdfjk8QoRv-6" target="VqGsNGX4vfgdfjk8QoRv-22">
          <mxGeometry relative="1" as="geometry" />
        </mxCell>
        <mxCell id="VqGsNGX4vfgdfjk8QoRv-24" value="IR-CUSTAPP-BE01-1a" style="text;html=1;align=center;verticalAlign=middle;whiteSpace=wrap;rounded=0;" vertex="1" parent="1">
          <mxGeometry x="258" y="647" width="138" height="30" as="geometry" />
        </mxCell>
        <mxCell id="VqGsNGX4vfgdfjk8QoRv-25" value="IR-CUSTAPP-BE01-1b" style="text;html=1;align=center;verticalAlign=middle;whiteSpace=wrap;rounded=0;" vertex="1" parent="1">
          <mxGeometry x="560" y="647" width="138" height="30" as="geometry" />
        </mxCell>
        <mxCell id="VqGsNGX4vfgdfjk8QoRv-26" value="" style="image;aspect=fixed;perimeter=ellipsePerimeter;html=1;align=center;shadow=0;dashed=0;spacingTop=3;image=img/lib/active_directory/windows_server_2.svg;" vertex="1" parent="1">
          <mxGeometry x="496" y="647" width="24" height="30" as="geometry" />
        </mxCell>
        <mxCell id="VqGsNGX4vfgdfjk8QoRv-27" value="Windows" style="text;html=1;align=center;verticalAlign=middle;whiteSpace=wrap;rounded=0;" vertex="1" parent="1">
          <mxGeometry x="424" y="677" width="60" height="30" as="geometry" />
        </mxCell>
        <mxCell id="VqGsNGX4vfgdfjk8QoRv-28" value="Windows" style="text;html=1;align=center;verticalAlign=middle;whiteSpace=wrap;rounded=0;" vertex="1" parent="1">
          <mxGeometry x="478" y="677" width="60" height="30" as="geometry" />
        </mxCell>
        <mxCell id="VqGsNGX4vfgdfjk8QoRv-29" value="port1" style="fontStyle=0;labelPosition=right;verticalLabelPosition=middle;align=left;verticalAlign=middle;spacingLeft=2;" vertex="1" parent="1">
          <mxGeometry x="406" y="737" width="30" height="30" as="geometry" />
        </mxCell>
        <mxCell id="VqGsNGX4vfgdfjk8QoRv-30" value="port1" style="fontStyle=0;labelPosition=right;verticalLabelPosition=middle;align=left;verticalAlign=middle;spacingLeft=2;" vertex="1" parent="1">
          <mxGeometry x="528" y="737" width="30" height="30" as="geometry" />
        </mxCell>
        <mxCell id="VqGsNGX4vfgdfjk8QoRv-31" value="port1" style="fontStyle=0;labelPosition=right;verticalLabelPosition=middle;align=left;verticalAlign=middle;spacingLeft=2;" vertex="1" parent="1">
          <mxGeometry x="409" y="806" width="30" height="30" as="geometry" />
        </mxCell>
        <mxCell id="VqGsNGX4vfgdfjk8QoRv-32" value="port1" style="fontStyle=0;labelPosition=right;verticalLabelPosition=middle;align=left;verticalAlign=middle;spacingLeft=2;" vertex="1" parent="1">
          <mxGeometry x="528" y="807" width="30" height="30" as="geometry" />
        </mxCell>
        <mxCell id="VqGsNGX4vfgdfjk8QoRv-33" value="" style="image;aspect=fixed;perimeter=ellipsePerimeter;html=1;align=center;shadow=0;dashed=0;spacingTop=3;image=img/lib/active_directory/web_server.svg;" vertex="1" parent="1">
          <mxGeometry x="409" y="737" width="24" height="30" as="geometry" />
        </mxCell>
        <mxCell id="VqGsNGX4vfgdfjk8QoRv-34" value="" style="image;aspect=fixed;perimeter=ellipsePerimeter;html=1;align=center;shadow=0;dashed=0;spacingTop=3;image=img/lib/active_directory/web_server.svg;" vertex="1" parent="1">
          <mxGeometry x="532" y="737" width="24" height="30" as="geometry" />
        </mxCell>
        <mxCell id="VqGsNGX4vfgdfjk8QoRv-35" value="web application" style="text;html=1;align=center;verticalAlign=middle;whiteSpace=wrap;rounded=0;" vertex="1" parent="1">
          <mxGeometry x="496.5" y="709" width="93" height="30" as="geometry" />
        </mxCell>
        <mxCell id="VqGsNGX4vfgdfjk8QoRv-36" value="web application" style="text;html=1;align=center;verticalAlign=middle;whiteSpace=wrap;rounded=0;" vertex="1" parent="1">
          <mxGeometry x="366" y="707" width="93" height="30" as="geometry" />
        </mxCell>
        <mxCell id="VqGsNGX4vfgdfjk8QoRv-37" value="" style="html=1;verticalLabelPosition=bottom;align=center;labelBackgroundColor=#ffffff;verticalAlign=top;strokeWidth=2;strokeColor=#0080F0;shadow=0;dashed=0;shape=mxgraph.ios7.icons.settings;" vertex="1" parent="1">
          <mxGeometry x="409" y="807" width="30" height="30" as="geometry" />
        </mxCell>
        <mxCell id="VqGsNGX4vfgdfjk8QoRv-38" value="" style="html=1;verticalLabelPosition=bottom;align=center;labelBackgroundColor=#ffffff;verticalAlign=top;strokeWidth=2;strokeColor=#0080F0;shadow=0;dashed=0;shape=mxgraph.ios7.icons.settings;" vertex="1" parent="1">
          <mxGeometry x="528" y="808" width="30" height="30" as="geometry" />
        </mxCell>
        <mxCell id="VqGsNGX4vfgdfjk8QoRv-39" value="Node.js" style="text;html=1;align=center;verticalAlign=middle;whiteSpace=wrap;rounded=0;" vertex="1" parent="1">
          <mxGeometry x="727.5" y="719" width="50" height="30" as="geometry" />
        </mxCell>
        <mxCell id="VqGsNGX4vfgdfjk8QoRv-40" value="" style="shape=image;imageAspect=0;aspect=fixed;verticalLabelPosition=bottom;verticalAlign=top;image=https://th.bing.com/th?id=ODLS.fc958d9e-6038-44bc-bfb3-340cec33240a&amp;w=32&amp;h=32&amp;qlt=90&amp;pcl=fffffa&amp;o=6&amp;pid=1.2;" vertex="1" parent="1">
          <mxGeometry x="734" y="750" width="32" height="32" as="geometry" />
        </mxCell>
        <mxCell id="VqGsNGX4vfgdfjk8QoRv-41" value="nginx" style="text;html=1;align=center;verticalAlign=middle;whiteSpace=wrap;rounded=0;" vertex="1" parent="1">
          <mxGeometry x="692" y="752" width="30" height="30" as="geometry" />
        </mxCell>
        <mxCell id="VqGsNGX4vfgdfjk8QoRv-42" value="" style="shape=image;imageAspect=0;aspect=fixed;verticalLabelPosition=bottom;verticalAlign=top;image=https://th.bing.com/th?id=ODLS.b2f34be7-8fba-4b1e-bc81-f4f47adf3956&amp;w=32&amp;h=32&amp;qlt=90&amp;pcl=fffffa&amp;o=6&amp;pid=1.2;" vertex="1" parent="1">
          <mxGeometry x="732" y="837" width="32" height="32" as="geometry" />
        </mxCell>
        <mxCell id="VqGsNGX4vfgdfjk8QoRv-43" value="&lt;span style=&quot;background-color: initial;&quot;&gt;Spring Boot&lt;/span&gt;" style="text;html=1;align=center;verticalAlign=middle;whiteSpace=wrap;rounded=0;" vertex="1" parent="1">
          <mxGeometry x="676.5" y="836" width="50" height="30" as="geometry" />
        </mxCell>
        <mxCell id="VqGsNGX4vfgdfjk8QoRv-44" value="" style="shape=image;imageAspect=0;aspect=fixed;verticalLabelPosition=bottom;verticalAlign=top;image=https://th.bing.com/th?id=OSAAS.7B63148927E97D10F7FB309DA6AF94EF&amp;w=72&amp;h=72&amp;c=17&amp;rs=1&amp;o=6&amp;dpr=1.1&amp;pid=5.1;" vertex="1" parent="1">
          <mxGeometry x="680" y="710" width="50" height="50" as="geometry" />
        </mxCell>
        <mxCell id="VqGsNGX4vfgdfjk8QoRv-45" value="" style="shape=image;imageAspect=0;aspect=fixed;verticalLabelPosition=bottom;verticalAlign=top;image=https://th.bing.com/th?id=OSK.91cff9f8f86583724c201789fdf22721&amp;w=46&amp;h=46&amp;c=11&amp;rs=1&amp;qlt=80&amp;o=6&amp;dpr=1.1&amp;pid=SANGAM;" vertex="1" parent="1">
          <mxGeometry x="692" y="797" width="30" height="30" as="geometry" />
        </mxCell>
        <mxCell id="VqGsNGX4vfgdfjk8QoRv-46" value="Technical Stack" style="text;html=1;align=center;verticalAlign=middle;whiteSpace=wrap;rounded=0;" vertex="1" parent="1">
          <mxGeometry x="675" y="680" width="100" height="30" as="geometry" />
        </mxCell>
        <mxCell id="VqGsNGX4vfgdfjk8QoRv-47" value="" style="rounded=1;whiteSpace=wrap;html=1;" vertex="1" parent="1">
          <mxGeometry x="1283" y="687" width="120" height="200" as="geometry" />
        </mxCell>
        <mxCell id="VqGsNGX4vfgdfjk8QoRv-48" value="" style="rounded=1;whiteSpace=wrap;html=1;" vertex="1" parent="1">
          <mxGeometry x="1294" y="802" width="100" height="80" as="geometry" />
        </mxCell>
        <mxCell id="VqGsNGX4vfgdfjk8QoRv-49" value="" style="rounded=1;whiteSpace=wrap;html=1;" vertex="1" parent="1">
          <mxGeometry x="1294" y="717" width="100" height="80" as="geometry" />
        </mxCell>
        <mxCell id="VqGsNGX4vfgdfjk8QoRv-50" value="" style="rounded=1;whiteSpace=wrap;html=1;" vertex="1" parent="1">
          <mxGeometry x="963" y="717" width="300" height="80" as="geometry" />
        </mxCell>
        <mxCell id="VqGsNGX4vfgdfjk8QoRv-51" value="" style="rounded=1;whiteSpace=wrap;html=1;" vertex="1" parent="1">
          <mxGeometry x="965" y="802" width="300" height="80" as="geometry" />
        </mxCell>
        <mxCell id="VqGsNGX4vfgdfjk8QoRv-52" value="" style="sketch=0;outlineConnect=0;fontColor=#232F3E;gradientColor=none;fillColor=#8C4FFF;strokeColor=none;dashed=0;verticalLabelPosition=bottom;verticalAlign=top;align=center;html=1;fontSize=12;fontStyle=0;aspect=fixed;pointerEvents=1;shape=mxgraph.aws4.application_load_balancer;" vertex="1" parent="1">
          <mxGeometry x="1085" y="567" width="30" height="30" as="geometry" />
        </mxCell>
        <mxCell id="VqGsNGX4vfgdfjk8QoRv-53" value="8002" style="text;html=1;align=center;verticalAlign=middle;whiteSpace=wrap;rounded=0;" vertex="1" parent="1">
          <mxGeometry x="1043" y="767" width="60" height="30" as="geometry" />
        </mxCell>
        <mxCell id="VqGsNGX4vfgdfjk8QoRv-54" value="8002" style="text;html=1;align=center;verticalAlign=middle;whiteSpace=wrap;rounded=0;" vertex="1" parent="1">
          <mxGeometry x="1165" y="767" width="60" height="30" as="geometry" />
        </mxCell>
        <mxCell id="VqGsNGX4vfgdfjk8QoRv-55" style="edgeStyle=orthogonalEdgeStyle;rounded=0;orthogonalLoop=1;jettySize=auto;html=1;exitX=0.5;exitY=1;exitDx=0;exitDy=0;exitPerimeter=0;" edge="1" parent="1" source="VqGsNGX4vfgdfjk8QoRv-56" target="VqGsNGX4vfgdfjk8QoRv-52">
          <mxGeometry relative="1" as="geometry" />
        </mxCell>
        <mxCell id="VqGsNGX4vfgdfjk8QoRv-56" value="" style="sketch=0;points=[[0,0,0],[0.25,0,0],[0.5,0,0],[0.75,0,0],[1,0,0],[0,1,0],[0.25,1,0],[0.5,1,0],[0.75,1,0],[1,1,0],[0,0.25,0],[0,0.5,0],[0,0.75,0],[1,0.25,0],[1,0.5,0],[1,0.75,0]];outlineConnect=0;fontColor=#232F3E;fillColor=#E7157B;strokeColor=#ffffff;dashed=0;verticalLabelPosition=bottom;verticalAlign=top;align=center;html=1;fontSize=12;fontStyle=0;aspect=fixed;shape=mxgraph.aws4.resourceIcon;resIcon=mxgraph.aws4.api_gateway;" vertex="1" parent="1">
          <mxGeometry x="1085" y="471" width="30" height="30" as="geometry" />
        </mxCell>
        <mxCell id="VqGsNGX4vfgdfjk8QoRv-57" value="4439" style="text;html=1;align=center;verticalAlign=middle;whiteSpace=wrap;rounded=0;" vertex="1" parent="1">
          <mxGeometry x="1043" y="837" width="60" height="30" as="geometry" />
        </mxCell>
        <mxCell id="VqGsNGX4vfgdfjk8QoRv-58" value="&lt;span style=&quot;background-color: initial;&quot;&gt;Tomcat&lt;/span&gt;" style="text;html=1;align=center;verticalAlign=middle;whiteSpace=wrap;rounded=0;" vertex="1" parent="1">
          <mxGeometry x="1345" y="807" width="40" height="30" as="geometry" />
        </mxCell>
        <mxCell id="VqGsNGX4vfgdfjk8QoRv-59" value="4439" style="text;html=1;align=center;verticalAlign=middle;whiteSpace=wrap;rounded=0;" vertex="1" parent="1">
          <mxGeometry x="1165" y="837" width="60" height="30" as="geometry" />
        </mxCell>
        <mxCell id="VqGsNGX4vfgdfjk8QoRv-60" value="" style="sketch=0;aspect=fixed;pointerEvents=1;shadow=0;dashed=0;html=1;strokeColor=none;labelPosition=center;verticalLabelPosition=bottom;verticalAlign=top;align=center;fillColor=#00188D;shape=mxgraph.mscae.enterprise.android_phone" vertex="1" parent="1">
          <mxGeometry x="966" y="461" width="30" height="50" as="geometry" />
        </mxCell>
        <mxCell id="VqGsNGX4vfgdfjk8QoRv-61" value="" style="html=1;verticalLabelPosition=bottom;align=center;labelBackgroundColor=#ffffff;verticalAlign=top;strokeWidth=2;strokeColor=#0080F0;shadow=0;dashed=0;shape=mxgraph.ios7.icons.user;" vertex="1" parent="1">
          <mxGeometry x="967" y="422" width="30" height="30" as="geometry" />
        </mxCell>
        <mxCell id="VqGsNGX4vfgdfjk8QoRv-62" style="edgeStyle=orthogonalEdgeStyle;rounded=0;orthogonalLoop=1;jettySize=auto;html=1;exitX=1;exitY=0.5;exitDx=0;exitDy=0;exitPerimeter=0;entryX=0;entryY=0.5;entryDx=0;entryDy=0;entryPerimeter=0;" edge="1" parent="1" source="VqGsNGX4vfgdfjk8QoRv-60" target="VqGsNGX4vfgdfjk8QoRv-56">
          <mxGeometry relative="1" as="geometry" />
        </mxCell>
        <mxCell id="VqGsNGX4vfgdfjk8QoRv-63" value="API Gateway" style="text;html=1;align=center;verticalAlign=middle;whiteSpace=wrap;rounded=0;" vertex="1" parent="1">
          <mxGeometry x="1069" y="431" width="60" height="30" as="geometry" />
        </mxCell>
        <mxCell id="VqGsNGX4vfgdfjk8QoRv-64" value="Application Load Balancer" style="text;html=1;align=center;verticalAlign=middle;whiteSpace=wrap;rounded=0;" vertex="1" parent="1">
          <mxGeometry x="1069" y="617" width="60" height="30" as="geometry" />
        </mxCell>
        <mxCell id="VqGsNGX4vfgdfjk8QoRv-65" value="" style="image;aspect=fixed;perimeter=ellipsePerimeter;html=1;align=center;shadow=0;dashed=0;spacingTop=3;image=img/lib/active_directory/windows_server_2.svg;" vertex="1" parent="1">
          <mxGeometry x="1061" y="657" width="24" height="30" as="geometry" />
        </mxCell>
        <mxCell id="VqGsNGX4vfgdfjk8QoRv-66" value="" style="sketch=0;points=[[0,0,0],[0.25,0,0],[0.5,0,0],[0.75,0,0],[1,0,0],[0,1,0],[0.25,1,0],[0.5,1,0],[0.75,1,0],[1,1,0],[0,0.25,0],[0,0.5,0],[0,0.75,0],[1,0.25,0],[1,0.5,0],[1,0.75,0]];outlineConnect=0;fontColor=#232F3E;fillColor=#ED7100;strokeColor=#ffffff;dashed=0;verticalLabelPosition=bottom;verticalAlign=top;align=center;html=1;fontSize=12;fontStyle=0;aspect=fixed;shape=mxgraph.aws4.resourceIcon;resIcon=mxgraph.aws4.ec2;" vertex="1" parent="1">
          <mxGeometry x="1025" y="657" width="30" height="30" as="geometry" />
        </mxCell>
        <mxCell id="VqGsNGX4vfgdfjk8QoRv-67" style="edgeStyle=orthogonalEdgeStyle;rounded=0;orthogonalLoop=1;jettySize=auto;html=1;entryX=0.5;entryY=0;entryDx=0;entryDy=0;entryPerimeter=0;" edge="1" parent="1" source="VqGsNGX4vfgdfjk8QoRv-52" target="VqGsNGX4vfgdfjk8QoRv-66">
          <mxGeometry relative="1" as="geometry" />
        </mxCell>
        <mxCell id="VqGsNGX4vfgdfjk8QoRv-68" value="" style="sketch=0;points=[[0,0,0],[0.25,0,0],[0.5,0,0],[0.75,0,0],[1,0,0],[0,1,0],[0.25,1,0],[0.5,1,0],[0.75,1,0],[1,1,0],[0,0.25,0],[0,0.5,0],[0,0.75,0],[1,0.25,0],[1,0.5,0],[1,0.75,0]];outlineConnect=0;fontColor=#232F3E;fillColor=#ED7100;strokeColor=#ffffff;dashed=0;verticalLabelPosition=bottom;verticalAlign=top;align=center;html=1;fontSize=12;fontStyle=0;aspect=fixed;shape=mxgraph.aws4.resourceIcon;resIcon=mxgraph.aws4.ec2;" vertex="1" parent="1">
          <mxGeometry x="1143" y="657" width="30" height="30" as="geometry" />
        </mxCell>
        <mxCell id="VqGsNGX4vfgdfjk8QoRv-69" style="edgeStyle=orthogonalEdgeStyle;rounded=0;orthogonalLoop=1;jettySize=auto;html=1;entryX=0.5;entryY=0;entryDx=0;entryDy=0;entryPerimeter=0;" edge="1" parent="1" source="VqGsNGX4vfgdfjk8QoRv-52" target="VqGsNGX4vfgdfjk8QoRv-68">
          <mxGeometry relative="1" as="geometry" />
        </mxCell>
        <mxCell id="VqGsNGX4vfgdfjk8QoRv-70" value="IR-CUSTAPP-BE01-1a" style="text;html=1;align=center;verticalAlign=middle;whiteSpace=wrap;rounded=0;" vertex="1" parent="1">
          <mxGeometry x="877" y="657" width="138" height="30" as="geometry" />
        </mxCell>
        <mxCell id="VqGsNGX4vfgdfjk8QoRv-71" value="IR-CUSTAPP-BE01-1b" style="text;html=1;align=center;verticalAlign=middle;whiteSpace=wrap;rounded=0;" vertex="1" parent="1">
          <mxGeometry x="1179" y="657" width="138" height="30" as="geometry" />
        </mxCell>
        <mxCell id="VqGsNGX4vfgdfjk8QoRv-72" value="" style="image;aspect=fixed;perimeter=ellipsePerimeter;html=1;align=center;shadow=0;dashed=0;spacingTop=3;image=img/lib/active_directory/windows_server_2.svg;" vertex="1" parent="1">
          <mxGeometry x="1115" y="657" width="24" height="30" as="geometry" />
        </mxCell>
        <mxCell id="VqGsNGX4vfgdfjk8QoRv-73" value="Windows" style="text;html=1;align=center;verticalAlign=middle;whiteSpace=wrap;rounded=0;" vertex="1" parent="1">
          <mxGeometry x="1043" y="687" width="60" height="30" as="geometry" />
        </mxCell>
        <mxCell id="VqGsNGX4vfgdfjk8QoRv-74" value="Windows" style="text;html=1;align=center;verticalAlign=middle;whiteSpace=wrap;rounded=0;" vertex="1" parent="1">
          <mxGeometry x="1097" y="687" width="60" height="30" as="geometry" />
        </mxCell>
        <mxCell id="VqGsNGX4vfgdfjk8QoRv-75" value="port1" style="fontStyle=0;labelPosition=right;verticalLabelPosition=middle;align=left;verticalAlign=middle;spacingLeft=2;" vertex="1" parent="1">
          <mxGeometry x="1025" y="747" width="30" height="30" as="geometry" />
        </mxCell>
        <mxCell id="VqGsNGX4vfgdfjk8QoRv-76" value="port1" style="fontStyle=0;labelPosition=right;verticalLabelPosition=middle;align=left;verticalAlign=middle;spacingLeft=2;" vertex="1" parent="1">
          <mxGeometry x="1147" y="747" width="30" height="30" as="geometry" />
        </mxCell>
        <mxCell id="VqGsNGX4vfgdfjk8QoRv-77" value="port1" style="fontStyle=0;labelPosition=right;verticalLabelPosition=middle;align=left;verticalAlign=middle;spacingLeft=2;" vertex="1" parent="1">
          <mxGeometry x="1028" y="816" width="30" height="30" as="geometry" />
        </mxCell>
        <mxCell id="VqGsNGX4vfgdfjk8QoRv-78" value="port1" style="fontStyle=0;labelPosition=right;verticalLabelPosition=middle;align=left;verticalAlign=middle;spacingLeft=2;" vertex="1" parent="1">
          <mxGeometry x="1147" y="817" width="30" height="30" as="geometry" />
        </mxCell>
        <mxCell id="VqGsNGX4vfgdfjk8QoRv-79" value="" style="image;aspect=fixed;perimeter=ellipsePerimeter;html=1;align=center;shadow=0;dashed=0;spacingTop=3;image=img/lib/active_directory/web_server.svg;" vertex="1" parent="1">
          <mxGeometry x="1028" y="747" width="24" height="30" as="geometry" />
        </mxCell>
        <mxCell id="VqGsNGX4vfgdfjk8QoRv-80" value="" style="image;aspect=fixed;perimeter=ellipsePerimeter;html=1;align=center;shadow=0;dashed=0;spacingTop=3;image=img/lib/active_directory/web_server.svg;" vertex="1" parent="1">
          <mxGeometry x="1151" y="747" width="24" height="30" as="geometry" />
        </mxCell>
        <mxCell id="VqGsNGX4vfgdfjk8QoRv-81" value="web application" style="text;html=1;align=center;verticalAlign=middle;whiteSpace=wrap;rounded=0;" vertex="1" parent="1">
          <mxGeometry x="1115.5" y="719" width="93" height="30" as="geometry" />
        </mxCell>
        <mxCell id="VqGsNGX4vfgdfjk8QoRv-82" value="web application" style="text;html=1;align=center;verticalAlign=middle;whiteSpace=wrap;rounded=0;" vertex="1" parent="1">
          <mxGeometry x="985" y="717" width="93" height="30" as="geometry" />
        </mxCell>
        <mxCell id="VqGsNGX4vfgdfjk8QoRv-83" value="" style="html=1;verticalLabelPosition=bottom;align=center;labelBackgroundColor=#ffffff;verticalAlign=top;strokeWidth=2;strokeColor=#0080F0;shadow=0;dashed=0;shape=mxgraph.ios7.icons.settings;" vertex="1" parent="1">
          <mxGeometry x="1028" y="817" width="30" height="30" as="geometry" />
        </mxCell>
        <mxCell id="VqGsNGX4vfgdfjk8QoRv-84" value="" style="html=1;verticalLabelPosition=bottom;align=center;labelBackgroundColor=#ffffff;verticalAlign=top;strokeWidth=2;strokeColor=#0080F0;shadow=0;dashed=0;shape=mxgraph.ios7.icons.settings;" vertex="1" parent="1">
          <mxGeometry x="1147" y="818" width="30" height="30" as="geometry" />
        </mxCell>
        <mxCell id="VqGsNGX4vfgdfjk8QoRv-85" value="Node.js" style="text;html=1;align=center;verticalAlign=middle;whiteSpace=wrap;rounded=0;" vertex="1" parent="1">
          <mxGeometry x="1346.5" y="729" width="50" height="30" as="geometry" />
        </mxCell>
        <mxCell id="VqGsNGX4vfgdfjk8QoRv-86" value="" style="shape=image;imageAspect=0;aspect=fixed;verticalLabelPosition=bottom;verticalAlign=top;image=https://th.bing.com/th?id=ODLS.fc958d9e-6038-44bc-bfb3-340cec33240a&amp;w=32&amp;h=32&amp;qlt=90&amp;pcl=fffffa&amp;o=6&amp;pid=1.2;" vertex="1" parent="1">
          <mxGeometry x="1353" y="760" width="32" height="32" as="geometry" />
        </mxCell>
        <mxCell id="VqGsNGX4vfgdfjk8QoRv-87" value="nginx" style="text;html=1;align=center;verticalAlign=middle;whiteSpace=wrap;rounded=0;" vertex="1" parent="1">
          <mxGeometry x="1311" y="762" width="30" height="30" as="geometry" />
        </mxCell>
        <mxCell id="VqGsNGX4vfgdfjk8QoRv-88" value="" style="shape=image;imageAspect=0;aspect=fixed;verticalLabelPosition=bottom;verticalAlign=top;image=https://th.bing.com/th?id=ODLS.b2f34be7-8fba-4b1e-bc81-f4f47adf3956&amp;w=32&amp;h=32&amp;qlt=90&amp;pcl=fffffa&amp;o=6&amp;pid=1.2;" vertex="1" parent="1">
          <mxGeometry x="1351" y="847" width="32" height="32" as="geometry" />
        </mxCell>
        <mxCell id="VqGsNGX4vfgdfjk8QoRv-89" value="&lt;span style=&quot;background-color: initial;&quot;&gt;Spring Boot&lt;/span&gt;" style="text;html=1;align=center;verticalAlign=middle;whiteSpace=wrap;rounded=0;" vertex="1" parent="1">
          <mxGeometry x="1295.5" y="846" width="50" height="30" as="geometry" />
        </mxCell>
        <mxCell id="VqGsNGX4vfgdfjk8QoRv-90" value="" style="shape=image;imageAspect=0;aspect=fixed;verticalLabelPosition=bottom;verticalAlign=top;image=https://th.bing.com/th?id=OSAAS.7B63148927E97D10F7FB309DA6AF94EF&amp;w=72&amp;h=72&amp;c=17&amp;rs=1&amp;o=6&amp;dpr=1.1&amp;pid=5.1;" vertex="1" parent="1">
          <mxGeometry x="1299" y="720" width="50" height="50" as="geometry" />
        </mxCell>
        <mxCell id="VqGsNGX4vfgdfjk8QoRv-91" value="" style="shape=image;imageAspect=0;aspect=fixed;verticalLabelPosition=bottom;verticalAlign=top;image=https://th.bing.com/th?id=OSK.91cff9f8f86583724c201789fdf22721&amp;w=46&amp;h=46&amp;c=11&amp;rs=1&amp;qlt=80&amp;o=6&amp;dpr=1.1&amp;pid=SANGAM;" vertex="1" parent="1">
          <mxGeometry x="1311" y="807" width="30" height="30" as="geometry" />
        </mxCell>
        <mxCell id="VqGsNGX4vfgdfjk8QoRv-92" value="Technical Stack" style="text;html=1;align=center;verticalAlign=middle;whiteSpace=wrap;rounded=0;" vertex="1" parent="1">
          <mxGeometry x="1294" y="690" width="100" height="30" as="geometry" />
        </mxCell>
        <mxCell id="VqGsNGX4vfgdfjk8QoRv-93" value="" style="shape=image;imageAspect=0;aspect=fixed;verticalLabelPosition=bottom;verticalAlign=top;image=data:image/png,iVBORw0KGgoAAAANSUhEUgAAAfQAAAFkCAYAAADWsMnJAAAAAXNSR0IArs4c6QAAIABJREFUeF7svQeAXWWZ//857bbpJclMCmkkpAcSMARCCaggSIkNUdldUCyr+9t1VyEEcFdF3OK67iorK6iouJZVuggoECQICSGk914n0zMzd2475f9/3nPvzJ2SZCZkYCY5x5K5957znvd93vec7/u076N5nueRPWpqamhqaiKRSJD3de7n4N9AAoEEAgkEEggkEEjgHZaApmlEo1HKysqoqqrq6I0mgJ5MJtm1axeRSIRhVSOxrBC6BpqcJv8nkB/8e/rKQdZBsAaCZyB4BwTPQfAeGBTvAcf1yKQz1B0+iOD3+PHjFX5rrut6mzZtorJyGCVllWRcj7Tt4cjEBZM3KCbvHZ+HANCDZyF4FwTvgmBDN2jeA4YGIVPD0jWam+ppqK9j6tSpaAcPHlQaetWosSQyHrYbvL0Hzay940iee4sHayJYEwGiB4geIPpgew+YOkRDOjX7d/sa+oYNG7wx4yaS8cwsmL/DzoHg9oEEAgkEEggkEEggkECfJCCgbmk2+3bvQHvjjTe8ydNnE091xMb1qZHgpEACgQQCCQQSCCQQSOCdl0AsrLFtwxq0lStXeuPOOruLqd3DQ8uLggs+n97y8Jerb3IN1sLpvRaC+T+95j947ofGe8/QYc+W1T6gjzxzdq9B7Ll9x9G8Z8Hv+VDX07tyqsinNw/6qTK2YG337hkO5vf0eLb7u/6DdTF418XB7VkNvSug1/DIX43h8491MyNc/1NWP3QjI3oEv+e0tqOFC3T7/eAv+OS0v+BpaX7JyzzJRVxzL1z14D4e/FAVdb/5CLM/9WjHZ7EU+FpBH9t/q/0Lru8WiudLvvcHP5ibYG0Gz+ap+24K3rlD6b3XAejVE2flJZrX8vQnR3PrI734Ba7/KW/++EaGn3D09av8V9nF/Euu6buX8QwLuPLrcM2P93P/9cNpfuwGpt/8aMfnILJ0MESW9qajB1HPwdocDGszWIfBOgzWoWy9Du1Y65vcqyfOzkPvw1lAX8QPt/+GD48CVtxL8SV3A4u4f8OvuWbkCQYBHPwln51+E09+4GG2/fxGRngeGTQsDTzXoy3t0fzYR/IAXewBwRFIIJBAIIFAAoEEAgkcSwKHdmRN7lUTumnonxrNpx9ZxA82/YqrRmhgLed/ihbwdeS7X3Pesg9zzq2P8b4H/sTVT13MFx7/Ko83LmEuh3js5jP4wuOdt33fA/t44IMjYOU/M/q9X+nSn/c9sJd7+VvOufVRcuc1P34DM7Ia+vevG64sB3W/9e+XO257Ls3/OzfYlb19OZGBhv72yTrQOAONM3i3Bc9b/98DNTuzGnrVhG4aegeg/5qrREle+c0sGH+dZ1sWM+q3H/FBd9Einnz0UeDr/L7xUl4sv4h/7WULocB64kOMvky0/M5DzOzf5G/yAHwEzY9n2/7xfr5/3Qje+DeL677ZvdFFfG/9r7n+RC0FwUYvkEAggUACgQQCCZxCEqjZmdXQh4+flRd0dpinbx3DZ3rxoV/z0H5+fM1wDj1xAzNvfhQ+8DO2PvwxRuCRefleKq8QDfzr/KF9Ce8SQa24l5JLBcS/xmOtS1hY80s+MekTyuS+9eEbGe667Pu/j6i2rvnxPu67dgRHsm37n3dxf8XF3MsiHtzmm/8P//pDTP6rR3n/D/fy39dXBRTzbwNDb6CfB/pC//WFQM8O9OzguXk7n5vaXVkNXQA99/hp1PL0raN7APo1Dx3gZx8aTmsKmp/IgfB+Hrx2BCk86h6/gbm3PAp3L6Pu795FQqA2tJwHlKn+azzdcAczan/J56eKD/1nrHvgo5Tg5QH4fu67dnjXz+e+yOdn3sSTveyiRLuX83NR8J399yOvg8/+6+TkyMeH9JPTVjA3wdo8mWszWE8DtZ4Gqt3gPTIwGNUB6MPGzerYTmvaYX6f1dDvWurw5Xf5uyzPdWlJemgaiJ971i2Pcs2P9nHfdSOQAqzhtf9M1WWioX+NR+sXM0ee2df/mbFX+t893bCY6Yd/xRem+YC+9oEbKPGg5Ulf2xeN/HvXjOj6edEeHihdwD0s4oGshp7b9eb3RxWAzf4g/Qs+n2R5ZFX0QLbB2gqerZP8bA3id1fwTvXNn0PlvVe3O6uh5wM62mGeyQL6nc+n+fTZPW26R/IA/XvXjfARP7xCaeP39KZNP7SfH14znEQvgH7kyRuYlQfoXT9Xs/k/Ta74erdGr/spK3/0UYa9nfaM09l+FtjcA9th8KwFPoTT+R04BNZ/B6BXjp3ZuQ3RanlWAP1RuPOPKW49O6vy5rYpmqbM4rOVhr6X715b5astmkFRtIZHbuqawy5a/j/McTiSBg7/kr+Z/hc8ueinrBGTu+dx5MmPZtvax3evGd7jczRqsuZfDN6bD+p513dsn/L65/enZ7+D709QLgrQT/Da4LpgLQbPYvD8BO+BAX8P1O9Z5+ehV47tNLkLEBZGdKSCi5NxaM301NDDIZ2oqeHZLkfSXp72olEY0zEFALK7OcdxlN9dfTZ0SsIamuuRSLpIPZhwRCeqa8qkfyTp9fgs10XDBmEjrx951wdRcUFUXLAG3oY1MAQ0lGAdBOvghDnPToH1Xb8na3KvEA2948jZVXJfBJ/9HUsgj06bYyALXwLBsxE8G6fyuyF4zofSc96Q09DLx+anrQXuwlNgs3ZSlZXAhR48E8EzEbjQAxf64H4PNOY09LIz8jX0UyjTPhhKIIFAAoEEAgkEEjgNJNC0N+tD7wrogRkxMCMezYwYrI1gbZzKJuZgfXdd34HJfSiZ3DsAvXRMoKGfBhu4YIiBBAIJBBIIJHCKSqB5X1ZDP0XHFwwrkEAggUACgQQCCZw2ElBpa3Pnzj1tBhwMNJBAIIFAAoEEAgmcahJ44403/Dz0ANBPtakNxhNIIJBAIIFAAqeTBAJAP51mOxhrIIFAAoEEAgmcshIIAP2UndrBM7B1e57hjZ2/ZX/DehxXaAd7Hlp+4PTg6fo71hNPgq3zjkA+79hUnJQbG7rF6IoZzJn4QWaOvfKktBk0EkiguwQCQA/WxIBK4Lk13+HVLQ8f9x4BYHUVUQDox10yQ/aE+Wd9gvec/XdDtv9BxwevBAJAH7xzM+R7Jpr5I8vv6tM4AkAPAL1PC+UUOWnR+fcEmvopMpeDaRgBoA+m2TjF+vLQi7eyp+7NjlHlg7aysOeZlU8moHdvu4tYpWBc3hf97UcXzfk4bXWfzmON8Zh9FlEdxyWR36/jnXuKLbMhOZyxw87hLy97YEj2Pej04JVAAOiDd26GfM/u+c38Lj7ztw3Qu/mfjwWspwKg93cMQ35hnQIDEJ/6nR9+9RQYSTCEwSSBANAH02ycYn356q/P7TKiANCPPsFvRUMPAH1oPjhfuWHl0Ox40OtBK4EA0Aft1Az9jnUB9G7maRndQJmJT8jkri7KryfmoaF3K5qr+Z81Bw9dTZCeZwrvHsjWnfO9pym882K5tqtVvauZIf8+vuy68annPmrHN8/7KyvHWd7dlt/dvCG/+2OVHvrj77xGyxt0l988LevaOJavIHevvM533Kmbn0Gtn6ObXpQ8jnPOYHuiAkAfbDMy9PsTAPrQn8NBO4Kv/aqrhj44O+qDhIebhXMNU48RsQqxDIuMmyKZbsd2U6DZCIB5mouLBTgdUNf72LoDVm9n+cCaB5HZjUXXc3UFnJ1nuVrnZ/lL87qDYufmxNNygJyFcs8BDL89Tcbd9ff8O2u44Mm5chMbV12X2xAIyOZtSjoA11WbAOlTl99VnzuPzj7nvuv8vXODk/vOVYDu7yXyxyqy0xB5yL069hrHcbsMhrX4jx8JNPTBMA+nUh8CQD+VZnOQjWUoALoPpS6aZ1FSOIaJo+YwetjZFIVGYOk6GcelPV3H3rrVbN+7nOb0fjRsH+QUGOYArqfwHc9VirCu++q32gwoPJK7er6WnW1HV30QYDXQxAIgAO2ZviYtGwkFlhpeTiPWBDQFmOUaH9x9DPPPy4Ge2qjI/TUN1xVQlDtI2x1/4Yr6r/4r0K5gs2MwOdCVdjrDCT00TZdhqHY7DvVFDmx9C0fuGhmP3Me/xJeH7mZ73NGGf60au0Lm3KYEXE16JhaR3AbIH7tI1N82+OPPScJvSevSvUH2eBAA+mCbkaHfnwDQh/4cDtoRDAVA93XJMDNGX8y8yR+jsmgipmmh6boCW0fA1RUwbKMpvos/bfwFW/c9j6sJIAugSAu9H4K5uhYiHCpQbbXb9R2ALoBqaWFCViGulyZtt6NrYUwzguMmsO0kplmIaZikMi14pH3w9wxCVlRBb8aOY2gWphnFcdLYThK0jA+GnoFGmHAolgVW8FyPdDqFq7dnNwAhdX9D8zclrueRcdrIeEl/A9JhvnfxXIuQVYRlhclk2snYCd/10CUwQiBcxlQEnmyGmtXYFD5rELHKOzYLAsDpTDuOl0JTfZYuyVbDQ9d1LKMIDZN0Jq7akM2AJmM3ophGFNdNkUon0PQMHrIBMgmZUUJGjIybIOXE1cZJbR4G6REA+iCdmCHcrQDQh/DkDfauHysobrD0XdNMZp5xFRdN/QuKCkZwqHkbnqdTXTYBSw/jeBn21K0mbA6jqnQs8WQNz6/9IRv2Pa00e0+BmovnWTkdusvQqsunccsl95H2Mvzq5SXsq38dRzMosIo4b8INXDjtBjYfeIUX1/+AidXzuXDKx3h92295c8ejvGfOPzB59EJWbPkFyzb+CNuziYWH8ZF5d2MaMR5d8U+MrpzJFef8LSu3PMqyzT/BJqH8+q7uUl14Nh9e8I8UxMpw0iboPhCv3/M8yzf/ikhxJdeedzeVBaPwHIkLyJC0W9m+9zWW7/wNDfG96JrLqKKpvGvKJxg36lx0L4bjtLLz4Jus3PEwNU3bEEN8cbiCGWMWMmPC1RQXjlY6c3NbDat2PMamPc8Rtkq45crvEzIKcG2xXGik7CPs2L+K5Vv/l/r4FlzNUhuBKdUXc/GMT1JQOIzfr/hXth96CVvLoDku8yb9Je+e/Tnq4tv53z/cQZuzT20EygsmsnD6rUw8Yx6vbv4Fr278CbabxMsC+rH87ydzLR4r8LP7fQJAP5mSD9oSCQSAHqyDAZPAUAD0qpIpLJz5OcZXzaM93czvVnybVKqe6y64h7JIJe2pRn74/GeoKJ7IDQu+qsB+d+MbPP36d2iMb0dTJnfxq9tZI2++P9pjZNnZfPLyHyhNf+eB5Ty2fAlJN80ZFbO5cs6XGV48gU37X+D5dfcxqfpCLpz6CVZs/Q2rtj/GFXP/jhmj3ouLzdMr/4v1+/4PK1TFDfPvwjSLeOTVf2JM5QyuPPfveH3zI/xp40PYtPsKuuYysvgcbrj4q6Q8hzU7nlBaclXZTMZXnsvqnb9h875lvH/+l3E8k20HlpJ2UlQVT2H8sNms3vt7lm/6KSNLZvLu876AocfYXbOc5sRBSguqGDv8HNKZFM+vuY/Glj3Mn3ITU0YtpLZ5F4eOrFcykbG1u628tPa/wC3kc1f8iKTbzmubfg2mzrCCSUwYeS67Dr/Ksyu/Q8JpJGaWcfGMTzF99HsImYVsPvgCL669j+bUYTTX5YLJN/Pusz+v7v3q1h/y8safoRsmM0ZdyWVzPkfELOWVTT/hlU0/9AG9wxHx9mjqAaAP2OskaLgPEggAvQ9CCk45MQkMBUCfdcbVXDrjrymKVSrT7u7D63G9JGOHzyNkadh2hi37X8HQogwrrlZm6bSTYHvtK0pzb2zdQzzZgKv82T1BY2T5HG5Z+F2OtDcQNkM8/eZ32HN4BfMn38ScM9+P42rsqn+dF9f+N2dWX8SCaR9nxZbfsHL7b3jf3NuYNno+ibiDZqV4buV97GxcxYfn34NlRnjktX9kdMVMrjxXNPRHeGnjj7E9H9BdzWV0yTl85KKv0Rg/zP8u/TwZN0NV4VRuuvw77G9cy5/X/R/vP/+L1LfV8PtV/8qRxD7GlJ7Ne2d+iQRNvLTmh1w685OMHj6bF1bdx5o9v1NBgqJlzxp7BZfM/hz7alez+9BKFsz8OPtrN/Lixgepb9mpTPpF4Qo8TNrtwxSFR/PZ9/6MI+kDPPDUX2IbDsNi47ju/LuxXZunXr+X+rY9TK66gEtnfpq6pr3EIgVUlp7Jcyv/gy21L+M5GeZPuYXLZ32W5tYaMl4LT7x6LxkvxeWzvsDoYecgsQhi4Vi26cFAQz+xxza4aghLIAD0ITx5g73r3QG9S397SWN7J8Zz7sQPcun0m4mGyhX4ZMOyOhzInqPREN9KKmlTWlCBhoVuWDhkSKXbOdK2j837X2TjwRdIZJrAs5R2nDtGl83i5svuZ92e5xhWMoaEbbN281PMP/uDJBLtys8dT9fwwtr7mDTyYhZMvUlp6K9v/z+uOvcfOGvkQv6w6j7mz7wRJ62xbO2DzJ56HVEtzG9f+wqjh83ifed+kdc3/4aXNvzY19BVxL7OyJJZ3LDgXhLpVp5f9X08bCZWz+Ps8R9g/cEnWLP9Ba49/3biqXZe3/Zr1f8Jw+Yya+zVbKn5E+t2/ZGr3/UloqECHnjmFtrSDX6ku6YxPDKZGxfeSyaT4mD9LqaOfxevbvgFr2x6WG0mdM9B3A3DS6eyreZlTMLceuXPSdj1PP3Kd8FKMKJsGuef+SH2N67nyTf+Bc1zuHDKp5g4ah4vr31AJQ1eMuvT1NRv4+k1/0EydYj5k/6ahed8glc3/Japky5j34HlHGrcw9zJ19LYeoiqkjGs2/MiL296QGUmdJrc34nVdex7Bib3wTcnQ71HAaAP9RkcxP0f7IAu0dRTRl3Mwhn/j2HF41Tgt4Ce/CFR3HLUNW8lmbEZVn4mhgauC5ZpqmArAQzxscu/b2x5gje2/5Z45rDaFPjx4jC6bCY3X/YAr237BfWNe3nPvC9gJ+LEU028ueN3TBx1Abad8E3uIy/0AX3LI7y+49dcde4XmVz1Xn72/OcIR8r4wMX/iJNqxXEMkulmfvva3cqHftV5f88KAfSshi5aqqSXjSyZwQ0L/oWScAntmRSuJwFlrexpWskfVjyEFQ3xgXl3Ux4dTcr2VAS5bmocalrDH9c8SGP7Pm68+F6GFU/kh899gbq2lThaFE3zGFt0Hjcs/CoNzTXsOrSa+dNuYNX2J1i64X4SXrOK0L9g8seYM+kDPLbsX0mk6vnsFfdjGcUk7Ti4YTwzQX18Jy+s+h/21K9mfNVcLp/5eUwvypaDL5HOpJk18SpisUJ+/ac7ONjwKued+Rkum/0XPPHavzBmxGxmj3k/7U4dhxp2sOPAa1ww/SNs2LuUl8Xk7gig+w/I22Nw79/DGAB6/+QVnH18CQSAfnwZBWecoAQGO6DLsIoiw7loxqeZNfY9WFokG7WtqxQvjxQ79q9m4hnnKNP7m1seZ+/hNVx9wRIVMf7Gtv8jnmrjwpmfwNRNnlv1PTYeeFKlluU0w1EK0H/In7f+lNe2/C8fXvANhhdOYd2ux1mz+/dcOuszKqL9j+u+z6TqC7hw6k28vjUH6P/AWdXv4SfP38zB1o3MHXsj757zWaJaCQeaNvLI8rsZUzmbK+f+LSu2/JY/bXooa3J3FKCPKpnJDRf9C23pJH9a/+8k7BStLU20JA7heQmqKqdw3byvk0y1smrHoxRFK5k5/ipq67aydOMDNMZ3sWDGLcyf+DHq2vfx4vIHaEwfoLywiotn/RXDiiawYtv/sufwGi6f/QWKYsNYtf0pNu97SUXbz5v8UaaMuZhfLbuLeOown7ziYdrTTTy/4ltEomVcNuOvqW3bye+W30vaiTNv8sc5b/JHSDvtOG5aBdbpGBRalaw78Aeee+PfOOfMD/HumZ/ml6/cRluimY8t+C5pt4WXNj5Ae6qe9579JTbte5GXN2Z96B1BcSe4iAfwsgDQB1C4p2nTAaCfphP/dgx7KAC66G7V5dOZP+XjTB5+PqYVUzDieQ6t8f0kMhlGlI5XmvnBxg00tB5i+tgFKhp7f/160pkkY6vmEDLDrNj2CK9u+QFtyZZs6pjLyLKZ3HjJfyrw/9PmB5lQeT5jqmawYdcflWH8kmmfwXHbWLr+QSZWXci8s0TTfYw3dz3Ge87+WyZVX8T/vvR5DrTtJKrrXDjls8yZeC31zXt48vWvMapyJpef/des2vo4f97yMBkt4ZPMSKR+8XQWXfBPNLbX8OifvkhK8t/1jEoH0x2PqrLpXH3ebTS27eUPa79Lyk5w4eSbmDZmoTL7r931NJ7uctGUjzNp1OUUhAtIeUlMI0Rbewvb9/+R5dseJeUmmFg5l/MmfZjhpRMVfZ4uaWueQ1PrXp5+49/IuB6fuux+mtO1/Oz3t6KFQpx75oeYM/7DrN/3JHvqNnHR1JtoT7fw2sZfUN+2TwUaFhgjuGLe56goOoPfvryEMSNmcumUW/ntiq9woH4js8a9l1Aowps7nqSqfDKXzfw8W/a/rEr2+ib3wamdy/MXAPrb8RY6ve4RAPrpNd9v62iHAqArUhLN44yKuVwx6wuUF49RQGsaEVrbD+I6GhVFE9Cz4ctizO7MbfZ8chV1eKze+RR/2nQ/zck6nwDFg8JIBWeOvIyG5k3sa5bob/9wPYiGijmjbLoiUpEgtZJYNVVlk6g5spf6IzsYWzmTksJhbN6/nLjdjEGamDmcCaPmkUmn2VX7mmp/zPAZHG7axeHmzYhuLhsSHYfCUAXjRsxXudw7a57H9sK4urDdiTtBfi9j3PC5JDNx9jasJW0nqCgYw6jSaeq73Y1rSadbsLQQoyrPorJoEpYRUQBe17KdQ42bcd101qCtU1owguryKUTDw5Q82lK11DRspKW9DtMsZsaYBaQyLpv3PaMIeQoi5ZxZfS6JTDut7Q0MLxmvNhcHGzapzYCmpdEdQ5nWywvHsrdhA4ahMbpsBttrXqM1Xpsl1zFVTnxpbASjKmbT2LafQ03bwJP89hwhzrFoY0/8sehO59uT/vfobQeAfuJyD67sXQIBoAcrY8AkMDQA3WclG1k+jTOHL6Cx9YDSEiNWBYbpUVU0hfOmXK8IXITYrAt3ewdDmUvKbuXFtQ+wevcTpN12BameYoFLoXkRQMAlj9o0S/hqKDIVyWV3FHGKmJmFFU2ulaAwDQdH0zHUzkFXhDaKMMXTVa55jvZVTPzyneJMUwx2ildNEbUYwt6qO37Anp5SAKy7Ql1r+0x32SA+nw5dNiICkELmomfZ3CTf3t8oaG4YdAFxn+gln1jH39sIIU+WkUaTe+bY22Rcco3EH8imwlSfdddUY3f13PgFgH0QVvfLksYJZY1jCImMh+mEVOCdgLhYIhS7npJhrv9ZRrkOtjnpVwDoA/agBw0PGgkEgD5opuLU68jQAHT/ZW8QxdA9Mm4SV0ujeSE0wyWsDeejF3+NMyrOxsXswk3uX+nhODar9/yOZVt+RFO8VoGLT6AqDGZhFRne8+hatESAVEGOpyuAywGmn+PuA7QmIKYi7nzg91naBMj9c3zyVvmcA2mhkzWyQCesdWk8N6KAUCwInpbBIaRSvSQqXW0kFL2q7vdZ/etX0RGw9AlrMoqVTZBWwFx3QtkNQXYToRDYp8YVeUmfcpsRxZivaGzle38z0cH1ntdnnzteNgXSZo6QtpNzXu7bSRSTRxGrqHJF9soGkkeDe+xnqz9adfeWAg391HtvDeURBYA+lGdvkPd9KAD68UQoDGWF+kjePfeTTBh+ERGrCGGXU3zsYhZGY+uBF3hh04M0xvd3q892vNaP/nuPymwCkqIdq11EpsuFAuxZWnRfRz5eSuCxEKxnSbiu98JnxJMb+uVQOnnX/b87T+/elHOMUPMcD/vRJHJ0gl21C+qqgMumyHPRlFXC7CGPtwLgJz6jPa8MTO4nU5pBWyKBANCDdTBgEjgVAF0RxiiTd5SK4rGMG3EOBbFiBeZtyWZMI0w63c7WA8toS9adNO7wnmCooXui0xoYKhq/syhMZxUyHzF7lmLNA9lsZbl8bO1qKzg2tPo0tw6OJyxsaV+b9/V631zfpbRq16WVK/Bi27IZkkIzXWvMHW8hHr0Qq+9e6DyEw93FMDx0w3dF5B8BoB9P0sHvQ1UCAaAP1ZkbAv0+JQBd883ZAqYKLJVmKiZtv0qb+G9N3VIpbo6EwncrVXqi09Qd0HWilEUnMaxgMgVWhSpQIsF5fnUxv4Kb+OiPlW/dWbusO9D2PRLcdR3STpKW9H4a4ztoTu3BI9Hh88754+UOPczRrkYikSGZsHEd3/edO/qSJ350QJeb5evwAugelqUTLTCxrK6tB4B+oqsyuG6wSyAA9ME+Q0O4f8cE9G7jOo6l922TggKNLu//bCHOLAr4sJEty5kD+RxjeL8qe/UGT503Fr+4CnnT0kS0amYO+wCjR8ygrGgMkVAMQ5eyrLqKs1NeZFV7PNf3PGBXJ4hG7Fce69SKO7YCWdn6984NQZnP1R6hKxg6jqOoWhPJFuqP7GfH4dfY3fASCWpAzPHH0NCTcY/Wlky2dGv3+w/EFHuEIzoFxSamlRu7xB4ce/vQrYDcQHRMtRmY3AdMtKdtwwGgn7ZTP/ADH5KA3u1d/1aCnt6KhBVIax5hp4xzJ9zErLELiUVLMQwBzfza5F3v0hW0fUAWEM8BelNTE9/61rf4yle+QiQS6WL27mt/c+0J2U5Daw3r9jzDxgNPkeZIl/rj3WV3pCFFKimbkJyZvq93PMHzPDG5Q0m5hRXOAbpE7Hc1wXdpvbs7vscG7wT70stlAaCfPFkGLfkSCAA9WAkDJoEA0I8uWl+57+a9zmmOAsI46G6IsyqvYeGMz1NYJBHcYqLORZHL5/4dAu7CgNfW1kZRUVH/Lu71bA3H1qip38mr237G7uYXO6rOKRzsZoRork+RSWcj2LuN/SR0pmcTXQDdD5TzS94GgD4g8g4afcclEAD6Oz4Fp24HhiS/CZTzAAAgAElEQVSgd9PITraGLkDu2B5uL5lsOfO5mIdNzSOqjeLyc77MlFHnZlPZBIjEhHB0DV2639DYxPYdO5gyeTIlJRLA57FlyxZSKclB7zwE4EtKShgzZowy35/IIQFnUqRm9c5nWL7rZyTduo5megJ6mkw6N4ZjesRPpCtHBfTiMpNQRADdj3s4JqB324gMpL890NBPzjQHrXRKIAD0YDUMmAROhaC47sLpzwu+R1yA7uFkNFqaMmSSEn3dDdTE3a1pFJbohAtgRORsrpn3j1SWVqqo8L4eW3bs4qnfPc2HrruWsWeMUallL7zwgtLMc4cKqNM0Ro4cyezZszFNX+PP+czzI9CPfV8Nx3PYuX8FL21+gKbUtmMA+juhoWv4gN5Hk3tfhZw9761s+AJA76ewg9OPK4EA0I8rouCEE5VAAOhdJSeY7GY0mhqTOEkjGxyWOyenPWoUlupECzVGxOZw3flfpby4LI9i9uizkQPjVCbDkSMtlBaXELIkAl9SzfJSxPoVvHes2ZdAO3A8nV37V7F04/00pjcFgN7HByYA9D4KKjitzxIIAL3PogpO7K8EAkDvBujCyWZDc0MKOyUaev7vWX4zjSygQ1V0Ltdd8FVKC0v6JXq/HrocudQwYZ4boEPTFS/97gNvsnTT/TQkNww6QC8pN/seFNdPMQUaej8FFpw+oBIIAH1AxXt6Nz5YAN1RGqkEk2V9z92IRo47S1nOcKEs1aRe+ls43IyeBXThKe9O6eL3L1amES2IMLL4HK6fdw8lhTFsRyWSdWja+elh3bvTPdUsp53n/s35yyVArvu53U3uuc9yrhzdz1cUsLrBnkNreXHT/dTG13dm/QlbmzCyuxpJ0yB5OE06KVq9T2+b1nVMV1jv5bMw3Il/W5XLUZsd961aElRQnIYAuhnKSen4PvS3ML09AgHz2+ruNQk09Lci6eDa3iQQAHqwLgZMAoMF0BXnudCBqpH6BU3kOHYmeO4cPwitE1tOLHisA076CuiFOqOK5nPd+V+hKFrEC0tfIplMZjuVo1vt4JNRQCug64q63Mshv+f85D44+3npruPidvflZ4Fbl0GLX1/a1DQsyySTyShADoVCZDJpyspLmTP3PA7WbVQm99r4OgXOcpi2R6jdw2zziCYc2o+AnfYLxuQC+1zhz7cgHdFJxDQypgCuRMgfjwy2D8s2APQ+CCk45VSSQADop9JsDrKxDBZAF/xKJUAoRzXRtiVt6WhB1t1jz7LnabpPUmJ0Yx3rr8hFQ29qSOGkjqGhKx+6yeTh1/LeOZ8lpIW46ppraGlp6bidaVqd+eVZzV1IX3xA9yGzC2+cBtGIVH3rJJfRdI10Oo1j55vk/WvlMHQdwzSRdlUp2MJC4u1xTMOgpLSUI83NTJt+Fv/+H/9JY+t2lm78Hw63r/PB3PEYtg3OetOl6CCQdAg5UixG+i3NOdiGkLxAxtJpLdXZfBbsGSuf/UIv/YgD7H0augB6jsgm0ND7u2aD84eOBAJAHzpzNeR6+rVfndvR5x4MbMcrIHISR9ve6tDeJtqsmMtPRMP2OcpDIZ2iUt2vLipMbkpt76zq5ftTj56OJUVTjJRJfXOSdKpTy1ZDzWqksuEoLDEJF4aYM+ZmLpn+EXTd4sqr30dba1uHyVvM5j7BS05p9wPUejvkvnJuR2pafr67aqOTNrW7E8AnmvO/NQxDgbto9vK3nckwe/YsvvXtbytAf2Hz/TS0rUV3oajBZM4TNqO2e+iObCJsbCnHqhkqKl72VJbjl4HNGB4Z06N+uMHyd8GeMQL83WIGT2Q9BIB+IlILrhnCEggAfQhP3mDvej6gd2BWrtNvI6C3NmVItgv/ulQp80t6nshhKNYxAy3k861KK45U9MrWHveLfh29beGE11wN2wUrJabnzs1FrhSq0m4tT1UQPWfkX3DxjI9h6CGuev/VxONxn7JdTup7FhuxUIRwOKzy0AWEPV3Dy/rPlfFbNPDscazCLt1l5jkuZ8+ezb/++7/TIBr6pu9T37ZOCaZqG8z5XYbiwzrRGZOxZk+RiuYkG49Qu20XYQwKJ00gVBDD3rOf9jfW017g8Nr5sGVqVr79GGOv8xmY3E9kmQfXDGEJBIA+hCdvsHd9sAB6S6MEY0n6VvqtA3qFoehERUMfUxti7IEQhqtCv5RDOx/QffrWvFkyXLaPSXNwmF/sxcurk+6f5xvKxYogRuexkYVcc8HthKwQV7//WgXo+UFpOb51Rfl+DIQXU3s0GlVatRwZx8ayQkrbFr+8tJt/+Mbp7I4lVwAmq6Xn318KtUgO+7/+27cUoL+08fsqKE6OsWscpj+Xoaheo/hj1xNa9D4ihMlYJmXDh6sxttTsx0ulcZa9xuH//hnt4RQrz9fYNMtU5WBPbNuVN5IA0Af7KyLo30mWQADoJ1mgQXOdEhgsJveTBegC5MUVBiFTUwHz03ZGmb2pgGhGV+Z3HwR9H7ZrmniGgW6nyYi53jZwLYdXZ7ayeXwaSS3romarSDCRnZsN4HMZFTuP6+d/nbAV4oaPfoz2ZMKvsKawNlsgJqdZ56Ffd9N7jsddbRnURqIT/nPedr8Z1WqufFvnRObXUVH2e7+v4nsXNrpvfOOfaWjbxosbv09dfIParFSvzTD9mTSldR4FH76KyquvI10QJjZ2DF4s6nv4UylSO/fS+vTvqH34N2RCDm++y2D92QLox64c1/tzlhNCdheVBfRiSVsbDFHu0um8DV4Q5R68LU+2BAJAP9kSDdrrkMBgCYoTQE8lxPH91k3uRaKhWxrhDEzZHeHsTUWEHQF0lWclDOxoukOmpAxtxBlYh/agtTaCFyJj2Syf3symCWksV51+1EOaqyqcy6J59xA2Q9x222IyOBiS5OUJVcyJxAL0Y3F29K2rnixmc5WMpukkkgmGl5ex5I6vUN+2nRc33kdt+wY0VwA9zbTfpyitczAvPJfqT3yC0MhRaKNGqDGIpFzPIHVgL3X/9QBNLy0lFXFZMy/M5tkhHP1E7O1Zq4JvslCHMNoOJFNcPyTaI6XtKzes7M/lwbmBBI4rgQDQjyui4IQTlcCpCOiioWsmhG2NqbsjzNxUSNjVMCS6vLyc6KhRtOzZTzJciFFVSWT3Hry2RnThPA/BiunNbDwGoOcC0ETfr44tYNEFSwibEW676y5M8Xu7Op5hifc+aw3IglfOWu8r2v3ysR9vfsUsL6luElTntrYSLS5GC4WIJxNUlJWy+LbFPqBveIDaxBoVFFe1NsXkZxKU1dokykqZ+rlPET5vHnZluco9l3x+LWPTsnEDdT95mMSqVcSjBmvPD7Pl7PBbz0H3zREqD/3t1NCPJcvuJDQBoB9v5QW/91cCAaD3V2LB+X2WwKACdAmK0yXK/a0FxeUDumjo52wswHIM4lYEL1JMbOQI3AMHYFgl6VHVeJu2orXWY9k2nunlAbpo9Z3R5TmhdlC0ujB95A1cNusWLC3M7XctxkynaUva2KEYhZZHe3tc+cVzvnFBcfFry2fJEz/RgitdJ1ij9nAtzc1HiMaiFEfDlJZXqMC+VDpJaWkJi29bQlumjpc3/ZSdjc8pC8KI1UnOerqVWIMNjkFs6mQm3f73UFWFkfHw0gmaNm6hfc8+2lev4siqVaSiOusuiLDl7GgXt0CfF1z3E98BH3oA6Cc8W8GFJ0ECAaCfBCEGTfQugcEC6G3NaRIC6IrlzQ8MO5FDYsqKK3V0U1ca+pRdUc7eWIhRUCbh7zgtCdyJY30SllAEszhEzdY3GFs5g/RrS0lEPZZPa2bTxF5M7t2j/j2DOSNv5cKZ16FrUe6880tkbI/65lZihYUUR/yodckjFwIYTWzLKgReU0AuUe2Git47kZF2XiMbjIb6eurr64nGYgwfPlzls8v3qXRKAfqXb7udRKqNVzf+mM1Nz2DrLqPeTDDlqVYijRllvbA1l1DVaEa95xJaYwWEHQuSGZxkgvS2jTSuWUMmqrH6wgjbZxeoFDyfXMY/+hN971+h8u2y9dC7MsV1T13sErh4MuuhHyeTI9DQ39raDK7uKYEA0INVMWASGCyA3tqc9tPWThKga1lAn6qC4gqxCkpwSopxrQjECnBrD+E6GaziEZipOFpZOalNq5DrThTQ77jzy+iaqXz0chh57G4S2KYC3/J8xyqFrlt+m5znf5ULGlNQ2SWavAe1q+eRzmRUaptsGoQ1LhwOqeC89kSC8vJSbrt9MYm0APpDbGn8vSoGU7EtyZmPHaHwoKPoXE1PfOaSb25RMmo0pVVVKmjQcVyShw9xZM9eWkst1i2Isn9qJMsW131p9nN3chQNPQD0AXvkg4bfYQkEgP4OT8CpfPvBAugtjUlSSfE7nwQNvUJTwBy2dabujjJrUwzTNdFKSygoKaW9oRmttQlPUtmGV1BYWkZ87wHcTDuOSd8BHZ3ZIz7JRbOux9ALWHzHbT7LWw6U81VviVxX2JzHEJdLZcvDwC4V13LAruLIjp8g1hs/fFJ86BXl3L74DtpTrfx544/Y1vSMIuGJHHEZ9XQDo1YnMNISkOioYDlD3AIa2DoYQjijotk9scpzcGIBW+eX0DhMOPOFdMbvl4rM150+9LLb03QUYpkA0E/lt87pPbYA0E/v+R/Q0Q8eQJc8dBOPvkS5+2lnnUdnNLmY3EsrdBUUZzoa08TkvqGQkF6AedZkMkdaiRgm6XgrITHBt7cQyVi06gncusNguCyb2cSWCWlVsER50HPpWcIkoz5KH6XcaZippZ/g3XNvwDQj3LlkCRmhYvVcLM/G0Y2chT0Lej2nMsfyJmCctcZ3O6krq71/zlG4b3tZKYlEgrKyEm6/bQmtiUZe3vAwu1ufxdVTKggwVOdSvi1JbHsrsWYHNymWBTC9Eh+sJfXNNMgUhmkfU07txHISpRauRLirwL4cDR60ZQ6R1ppVhL2fw9+HpdthcrcwhQyog0O+a4ZAn9o6yu161Lw/Rre6syUGaWt9mMPglH5JIAD0fokrOLk/EhhcgN5XYpnugWrdAd1AN1F0pjN2SlBcFNOzcEsrIJ3E1XQMO4NjhbGdJLproRkekdYjtEZg+Yw2do7NZKlN85PHxXog6rJYEjQczWVc5Fqumf85TCvCXXffyZGUTVt7gqqyMkxsVShFAuByNLC2bXehZpXfJDo9FzTXE6z7M5tdz5V2Jfq9tLSMxbfdTkPbAV7a8CMOtb+iAg9115ebyMnJuKSFN76+GSelURmZguH5keyWI5XWDNyQgW0ePRWvNX2AuHdQ2SdU2l6/AT3Xf5nfdwjQu/U5APQTX3/Blb1LIAD0YGUMmASGJqAfXRyK+rXCUIHywg43dXeMaZsLCTk6ptIaHWwM5S8WwndRNBOVw6C0HNuwMTyNHaOTHBiWUSblXNVyBXxKQzdI2M3EM/vJ6HHGRC7l2vmLCYUKWHLnHaQNnfa0AKRDRdijtbUV0ZIF0HOgLaAuEe4C3gK4AvoVFRXEYrFetO8Tn3phmUul0pSVlnH7bbdR17qTlzb8gJr21SrHHD1NyhA2FxPTsRE+mrZaCztpUBmZjkkUx7SVDKTimmxmhNu998MjnjlEi7Nf5b9L/EDfAd2jpDzUpXxqAOgnPu/BlYNbAgGgD+75GdK9Oyag51lUB3KQAhGtjRllckeZ3JV3Nu+WohWLZ9cHZJcotluIK7XPFTWrrX5XgWSmS0mpaNyG/MnYhgxnHXCxbJeUYSvCVsMzVDqahoETLkIfdRaaXqB8xnJOW5FHPOoogBNwyh0+86uOo6VoSG6lzaljUtkVXDH3/2FZFnfdcSeaoeFI+wKTUjUu/8gywMlXyrjcC1Vrdzn7pvjj+89Vm1lTfP75spmQKPfbJQ+9dTdLhVgmvpqkNoJmbTqeZql8cyGJcQwXakOkbIey0BhCmkPUPkTEbfQ1eWWdyM9AyPXLT6qPZw7S4h7o0NB97vujHZ1McVIHvajUwhTDhzp6JumfsMm9n/UIApP7QD7pQdsigQDQg3UwYBI4HqD358bHen93f1F2wTmgrckhGRe2dR00u0tRFL9amoCkRbM9lXpvJm3ueDKEMMio4DZXz2R93RZmWCqGeUi8eUhvpyq0nerYSqLWId+Qm+eDDlHK8NgsTC+MFGY5NgT5PPAODnWpbbRnapkz6lNcOMNPW7v77tuBEBmJZtdczC57Er9lMWHrUslME3jsi026PzOQhcO8DYBYAEpKy7jt9ttpaNnJixv/h0OJ9ezXr2Gr9RfEjeHoriH7FNUb4d6R/on/P2onmNL6B85sfVptbqTHXdjvuk143BYN/YA/Wyr47+jj86fAw7R0CgoNrEhXmtz+j3pgrgjS1gZGrqdzqwGgn86zP8BjHwyALkPMpD3aWmzsVK4sZ165UPX216i157Et/QkavcnYRMT5i+mEccQXrLmESVGgp7Fdj5RbQsL0FHNbxGhgUsnzTCt9hAKrrkuRlIiXBXTEX+zf++g6pW92djybegF0u545Iz/JglkC6DGW3HUbaS3MkfYUpqZRFob29nbExC4pZYKzRbEIbqINI1pAqKBowGZXtHQxuUsOfA7QG5XJ/X72Jnaz0foku8wPkNLCihXOMTJUOWnGhfdR7jWwwZvC4UwxZ9hbeLf9EyVb2VApU32HDi3bIz+YT44We7cCdEcC3fLKvXYMsgtJj1/uVljixE1yQiyyAya9zoYDQH8bhHya3SIA9NNswt/O4Q4WQHfFU+sILgt463jKZ5vVOKUGm1PB6tq/Ylv8InAL0R1hKvNT3CztAJ+5uJoPnVNAVE/RlA7z5JoE9y9rxtFFKw5THN7J3MqfM6ZgBZqW6mg7nKehC6Dn3bbHNPiOgE4NPWHXcU71LSyYtUhp6HctuZ04OslEmqJoCEv3VMCbXxNdtHYx8htYuD4Peray2kDNt9zTN7mX8uXbF9PYuoulG+/nYHwna43Pss26Bs0xKErVUmAYfHDsn/nQiJ9jGO2sb7yA/9r3CRw7zlXWLwl76WwwYPeARJ8cRmbriL1N+dBtz1OR/j3N5Hm7JWW6F1CXWAbfnXISareddFEGgH7SRXraNxgA+mm/BAZOAMcsnzpwt+1Xy5I+1ZKpYsXhz7K37XzMkMsITccKt1MUcfneR0dQVWZguGGa4y5/3tbGqJEhHnymmecPmqRtjbDWypzhP2RS6XPKFJ87DK2YquhMQp5PlNJDQe/mzvUD5TI0pLYStxuYVvFxFs75KIYRZvHdX0KT6HHx7Ss0y6V05UfKdzVDK7+3Avyc3psnmg7XwPHALuvn79KGzx+fzPrQFaC37eKlDd/nQPtOVll/Tbt1GV+cHmNmRZgI7djxPxMN78Vs347hreE7u/6OlU0jeL/xayKeiwqKdy3lmnB1F8MRTTxLloNHvb2dZneP2vYYrh+n0PXwjfDSzWNtnPq1OAb45ADQB1jAp2HzAaCfhpP+dg15SAC669GaqWZ5zWfY1zaPeWM1bl4AF44ro1DTsS1P+YHxXNodm621EtGeYM3BJL98U2fdIY+I3sbcqh8zqfRZlU7WG6CL2f7YFdJ8ghWXtAqKizsNjCu8iqvO/wymGWbJ4iWKAMb/j+CpD7R50N5T688GvR3N2+xvBUS777y0Z5Cc75LoLTtdAL1ciGXuuENp6FIPfV98N6v1Wzmj+mqurA5TGpJysBE010aT9D49SXHi59y3fyaH2iIsMn9B2PVBXDZXamzid+/omz/Cuswujrh7sj500dA7NzJyhl+TPnv4FvdBfwSAPuinaMh1MAD0ITdlQ6fDQwHQBQVa0iN5/eCn2ddyHuWFHleeqfEPV5ZQXBTBJAVOGFtLsa9B55fLj/DyHpddh2xSrkXGgIgW59zqh5hc/qwKpMsH9OroLCwvrPzw/QH0NqeekeH5XHfREiwrxN2L71KpWkK6Ihp3PvVrB51rN6a4o62UnqDds0hMR8665wNlb1HuwhRXVl7G7bffQUPrTmVyF0B/nVuIll7B/IpiSk3JEpDofbA0T3nLtze08fwRjRFODTeGf0HUs7F1jWg8SfGRJgxb6GIFlDvpbJ10HUkasaWynWya8nYh0nZDTKOmyN92dMhjkD8qAaAP8gkagt0LAH0ITtpQ6fLJ9KGfzDHna2+epykNfcX+T7H3yPmKieyeRVE+NLuQmJUipRus2ZZkyrgCfrsyzteeaEd3ozjC/qZZeLpNRGvjvOqfMKnyOXQt3dFVk2KqY7Ow3Ij6TiC94+jByOZrog4ZGlPbiDs1jIyez3UX3k3EDHHXkn+kTTNoSTuEDCjTbJKplAJaXYG8p4qxZOyMsjublkU6nVIpb7IhkFz1TmKZE1FfO1nlZEMh/ntpv0R86LctprFlB0s3fY/98f285n2OvcZVVMZcRhVYxCRtTXdIezoNrWn2JqHNgcls5abwo1iSLqh5VNfUM2nHFmLJuLJDmJ6w6fkkNRopLFcjEW7FcwvQ3ZBybzh6Ow5RdlV4LBuvkz4GOc3JXEMno60A0E+GFIM28iUQAHqwHgZMAkMB0CVITpnc997C7ub5xEz40afKeNcZlsqdvuf/6tnuRrl2Cvzbo0nq2x1c3SHi6KQM0V5NIkYL541+iEkVf8BQ1K3+YWrFKA3djarPEsGe0yx7aJHZKC9Hy9CY3ka7c4jq6Hyuv+AuwmaIO5fcRbPt0dqepiAcojSMIo7JRZtL+1JhTQ4hk+moX+66FBQUqN9OTjlVf2w+sYwAemfa2gsbH2RfagNveh/nTW0RNsVEPQ3L87ANydfXSYkNw5NIgAzTjU3cEH2CqNuifOdVh2uZumUHBYk0mlDHChudoeOdfQGROVcRKYT44WaM3/0Sp2UbKStEOGNim+3sKg/zx0lGAOgD9jQHDQ8FCQSAPhRmaYj2cSgB+mt7b2Z303yKTJcHbh3O+WMdlu3I8Lmf10KyjFavHbwwZ1h7+fvR36TBO4v/PvgpGtJRQnob553xEJOHPeebgzsAvZCqyGwVFCdHF3azHuTqvgasiGVSW0nYtVTFLuD6+UsUoC+50yeWUQx0Av56TzP5271MJMq9+P8vSJPLQ1+66bvUt26khjls9K6jRp+ArUvdd5/ZTYLZfPN9ikKvnvneLxjNWrUp0jyDybUZ5u1JUpxEaeNHJk6k4IIPEl+9mlDNa0QkUyFh4i78CHrIJfnMT9HtFsUrsKuCANDf7gUQ3G/QSSAA9EE3JadOhwYvoHeEXClNsNWu5rU9N7O3ab6qCHb3dWXccL7LL15N8egqg11N9SRahuGYrUwzt/LP057izEv/koe2jubfn0lg6SnmjP0JU5TJ3U9bU6xxxKgITyai+znhjqarHGoBIFXjrIvZ3S84YrtJmtM7STmNWUC/U5nclyz5iirl7gjvrONimX66mhw5xrd8P3f+33Jeju89d/5bXWXSZjIhxDJ++dR6ZXL/b+rb1vu0r3oYw4n5mw9V0U1taXzqVokm8DLYUsQFqaIWQsdmUp3G+bs9SpIu6WFjiM5cgLZzM5mCKLEJ03DD5cSbtlCwbRvxguEUVo+h9aWHsVzYWeEFgP5WJzW4fshLIAD0IT+Fg3cAgxXQRWKChX7IlUtruprluz/DgcZ34WgaM6tMvvFxk4YWg2893kRhucafNxcRMhpYVPIMX3rXfpj7JR5a5vGDpUlCeppzxj3E5OHPomlSkEX81Y6K6jaNQiwjlo3K1rBcWzjm/HKiQqGWPQTcBfQcN4HttOBqGapiF3L9+XcSsaLctfhuUqbGobhDqaUrS0KOWCYH1jkQz/G6q42FrqvzcvzuQkRTUlLS4U8/0YItOS73TmKZ7Szd+H3q4us7xtSVb13KofYeb682HMCZDR4X7HIoEgKgOVeQTGQIlY0mk2jE2PBnrESCxDCLgiu+iPv0z4gtuIaG5x8mkmpkZ7kWAPrgfRUEPXubJBAA+tsk6NPxNoMR0Duyrj0dTRjHNIf21BhW7Po0O5vnKJO21N6+aLzHX19bxdJN+4jXFTBzwiFKDq5jxmiX8vFTealmPF//fYqDtTqFepy5437MuBHPEU3YlO/2MBMSqS3tG2ieg+lmSJohdLlfoUV8jPh+swSmXfPGsrloDtWxBVw/XzT0GEuW3Kki3JvTGkUhDUvC5zIZ5cvu2BRkSWZMU3jr/UMAXc7zg+d0dX40Gn1LhVpyZDbiQy8tK+fLt91OY6sA+v3UxdflLfVskp3auMjmKcv+1kH00uk2kO3MmQ0uF+y2KUpqGAtuwBg2mkikmPSRRpxMEjfdQPql53A/+kUqoiaJSIzkL+7Faq5lR4UZAPrp+JIJxtxFAgGgBwtiwCQwKAFdosEJURgeSYFZiu6EyGCybPsCXt93Pik7pPy9HhbVBQkuHB9m7oVRKmyPc6pgS5vGz5cleXVDmLZEElszqC7ayHnjHmBYyQYqa02m/dGmuM4llHE4YoVIFZVihMJEahspIMW+cS4b3hcjGZGIeJ9nXEG7Cr/PFSnJUB27gEUSFGdEWbzkDkW0kiaMSbJXLvN8bftYRVd6S0Hrvgi6a+69FXKRoLyyskpuW3w7Da3bWLrxf6jPA3THNmhrS2BnZExmB7Vr573yE+BhSqvHexo0SiWucMEiEs0JnL1vEHOOqGC3ER/9JolkM9qyZVC/j+i576Nu5SOEmg+xs9IOAH3AnuSg4aEigQDQh8pMDcF+DkZAF7yM6BUMi0xXwC7V1CTfuS45nD9uO4edDWeQcWJ4npTptElpFiFXypOm0D2fdVyqjCgSGMOjKNzEzJFPMLHqdxhakrJagxnPZig9DM4ZY5jxtW9iTpqscrHtuoNs/d63ObztNVZf45KMdPrAe0yv5iiT+6L5PqDffscSXGWalsS63nPaj2Y+70vlNbl/jkI2X+PP/d19EyCfE4kkZeUVLFbEMtt4ceP91OeZ3OMtNsl2F1eIeY5Zmsbfy2K5MfgAACAASURBVEyJw3sbXSpsMCbOxZt6LtEJF9L6+/8gvn8vJYZGxtNwRpyJfvlHGNa0lwO/+zmReCO7hjkBoA/Bd0TQ5ZMrgQDQT648g9byJDB4Ab0yC+imisCWaDQByXS6kq3NI9nXaJLKRJVWKYAvhuEUNUi1c1U6DA8JOC+JJqguW0dJbLMq1CJ1vUvrPCY/m0Y7kGbSnf/EmLPnYcZ0jDaHtJumXUux7J8/z4ZLbVLhbiVQ81dPd0BfsiRLaarh6YYy3b/Th0S5iw998eIlNLRu58WN3++iocdbMiTislHwZXasQ3T1KW0e72n0qMx42PJFtIDoeR/Cqz2AnWpFmzAbI1ZActMreHs2Y2Va0MnIloxdFaEA0N/pBRHc/x2XQADo7/gUnLodGAqArqLNlblb5sFRAW0SjS4gLlq44ZrYukttci2JXO1uxWDmoikTuURp6wrMPc+lvNZg1FNttO5uZ8xNtzD/AzdCSQg76aC1txM/uItVP/8GmxdqxCN+iluvmnV3QL/rLkKZFCnXJWGYFJmmygOXILecZi0+csk3z/ehD9Tq6sxDL+d2KZ/aAeidQXFtRzIkJduvz4AuGrpHpe2i24aSuztuNlZVNW2HW+DQBiLpRlJEsbxMlvxW9mMau7tFufuzepQgvA6HxcCUmO2rzANimb5KKjivrxIIAL2vkgrO67cEBgugq2Id2UIopqNhmMOoFJO7ZilAVqAqrGRScrMDBHIXGWQ0l7rEetrd+iyI+2CfS35TaeFCkeq5FNVpjHkyTtv+JHasiMq551E1czpTzj2HZMLm0H9+h33mXrZeXUAimvWhd9w1v9BKV5P7HXfdhe6kiacSYIWJmuFsUFwusMyvuBayQhhmttpYZ77Y0efOZ7jJ+z2bY9b9+1wdUxXA56fMiQ+9s9paTkM/MUCXOZrW5nF5M5RnNJzK8SS1EMOGV5N0MmQcDaf5CIYJkephxNvbKCouJbXhJZxEnL2lBs9O1kmEpCa8pAZ6ali+RIWLv3OMIVu+lUIwITw9MUCV4+W+fmGco7lCAkDv9ysluOA4EggAPVgiAyaBwQLowvWde59bDhRoZVQoH7oQvmSrdGUBS3GlK8zKQoEr+eMOtSnR0GuR+PLcIQq6AJEE0UkpVcO1KalxGf1EHLfGIeH6ueXRSITCWAwnEkNrPETTOJcD15WRjIhlIF+PzAPWbhr6krvu9G+r+uYXTOm1fFuuvWxhlrc6uUfzvysfens7ZSUlfPkOyUPfydJN4kNf6wf5eSAm92RcQg6Ob3IXGU5KwPvqoSLj4VkFCnRNKZBjgOmZWOmM0rrTlkWdE2NvwUjKm/eS1Dx2lnusH6mTkfL1ar47ZenPcOfnZChJsdlI1PAZ6aTE6kAcx4tdCAB9IKR+ercZAPrpPf8DOvrBAuiakwVWRyOja4T0Ssojk5WGrnTyPO1NvfrzFGUF1ppDfWItKa+hGxmMD+RyvpCbpHSNwlqPUU81U3pAVDOpICa/i8aooWLDNJ0jY0y2XVuMbUlamYZpuWjKjNCZly6Wg6qCzqC4r93zDQxdzxkaOihkO6LZs8xzvv7ct6Pj3DzWus6iLDkLxNHbEkAvjEX54pe+TL0UZ8kCeu4K34fu4cnAj1P+zHQ9prTqzG/VKJU677l9S3Y8huaqdELpletY3NUwh6fj49WvtmbiaC4pkaemi1DRNF2RBEkAo+eJW0JcJD6o63aYhdPXc/7UTarITTZ5sG9CO4lnBYB+EoUZNKUkEAB6sBAGTAKDCdBLUzCzRjRqnYgXI2aV+5nREjWtcFSixzWFO6rmtvKT68qP63kGbZmDuJ7PApc7kibsKPc4UCLVzzTBb8JxF2tbArMtg6552DYk23NgbRByHdoKDRrPCPkAZGgUlWhECyUAL1+rdBgpxDLZtLWDNYcZNbJaRbp7mpE1K2eV9jzzeNYgnjMwZKnje/qKe1jaO40SfVgP/pah5lANK1Ys571XXtlFQ+8EdDsL6NldT68t+74QWxfiGY+YLWmFLq6mqViGrKeEESUhxKAiey8rbfGrNVNZfWCyyvUXDMcMY4QtCJnofh6gEM7jpm20jINnO1JRRrjqSJtxrpiyg/lTNqB5wrP/zgQYBoDeh6UWnNIvCQSA3i9xBSf3RwLdAb1LlTNp6G2KSRItdkIjfHSdQcjxw+AUi5nkpLuQNAwcU2p2e5hOCsuzcXVL1dhGVU8zcfQ0misMb536b1PU40/jXNZU+wMRQFKu26zGL4FydtKluVbASnzdRjblzDfrK2uA4VFQohFTgJ53aA7V0U5Ab2xuomr0GTQcaVOaZlnUpLa2VvmyJRAunU53kMaoymuGoQLmiouLKSws7M+0HfdcaV/u19jQwMuvvMLChZdnqV99k3snoDsk454oyUc5cv76rPzyrAvdl0ZppYUulgxxJTgWj66cxdqDYwhpIbRYFKIWmuFr58rcLhsyn3oPL5PBk4IvmQy262vr756+lYvOWo+j5qSvNo3jiqZfJwSA3i9xBSf3QQIBoPdBSMEpJyaBwQLo0vvxDR4fW2tgijKm1HBXpaBlCstxzr0EZ9p56OiYW99EW/40WlzqgiVoM8KYWphIptWPe1fqoH80Rz1eGu+yOgvoymqed4jvXqLbmw/7UfF+yls33DaPDuj5eehNTXXoZWPYe7CWs8YMI6LZ7Ny5k3g8TiQSUWVSheK1tbVVBasJyAuQjx49murq6uNWWjteDnt+r6WSm0TYNzc38/KyZVy68HIaFJd7N0A/4pJod7LWgqPt3nI6+LHXmAC6FcoywrsWj78+mzU1Y4iGC/FiMdyw4Vsjctq5HxOnDk0082QKrz2Flk6T8lJcPm0rl5y1EUeY/AJAP7EHPLhq0EkgAPRBNyWnTocGC6CLKX1cg9sF0D1cHD1MeuEHiVxxM3qkXKLacNKtZB7/IcaKp7Au/gDMWkDmlSewXn4CRxcjfCcwHQ/QRcHP9AHQYyUaBYW5yPQcCnWNcq9vrmfkmHGkM2miIct3FTiO+l9+WdRcGpt8l/ufgL0Cth412LuutXx2ueOxycm5NTU1WUC/jIbeguIE0OPi91Z3f0sLu2yYhWl1AvpjoqHXjycaKcKNxsCQWAh/ryZR7rKLECuI2EVUBoLr4KZSuPEEGTvB5dO2BID+lmYkuHgwSiAA9ME4K6dIn94pH3r3+Ct5sXfR0FXEVQa3oorUdX9D5PzLsSWFSczgQr/+xrMkH/kJhX/3DdLDJ8DzDxP65bfJmAZZTFEz1BzxWDrBO6qGLu2lE9BUl1Laufjvu0EouukRKyFrcs8HPZeq2AIWXSDlUyOs37ydkdUjfLN+D3DsGsXtOxU607ZMCQoTz3Q25UxKlR73UMFi2Tv1shEQQK+rPcy6DWu5+upraWjzudzzqV/jRwF0n8unM2hQ+qK497I+czObiZdf3KVsmI5p+fJzXI1HV85lc/1EQgVFaFaEEB7RiK1k3JKKKLO7racZFrFx0i7xdATbbsVuTZNOt3Hp1M1cMnWTkkvfwwiPK7V+nRCY3PslruDkPkggAPQ+CCk45cQkMOgAfY2BRFOnVWqahVcQwbjkRsx33wgSUCWhca6D8+wvSa99joLP/Aep8iqMR+7DevrHPuDreRq6APp4jzdHZkuPdDO5u1JAJWnSWJdCcy00TUjKc4cPwpoBhSU6MaWhdzYgFgQpzqK43M0Qdyy+MwvS/v1zaeH5M5OLWs8F7fsbG/ElS9vif+5I0ut9Qo8C3Pk97uy+RjKRoLS8jNtvX5wF9K5c7gLoivo1Oyzpn8+T76f7WY6ezRLwA+IkME72KrLx6J5t0B3QH3v9XLY0TMSMFeGFIowoCvHpC6YwuiLCa5t2EDIs5TO/+l2zeWzdbn61ai/t7Udw221S7UdYOG0LF0/ZGAD6iT3awVWDVAIBoA/SiTkVujVYAF0imyUo7mMC6FYExs8gPX4GdlsDxuE63HMuRJ8yC50Qzs51eC88gjH33Rjv/gCapEN9+++J7lrjT0meEq00dAH0av97iXTPPzzNwUlbNNYnlO1XouU7DzEFuIoEpqDYJBLtymvmA/pFLJp/J2ErxJI7lpBxbDJiOgYKwwV+PXT1X5+lzjQMBZa2Y2MYYhHwE+HSLa3izFeUsWZROZrVBw39OAswRywj1K8C6PWqOItQv3YSy/QG6BJXoLsewnprS3qZBK3JtkNtsnxAF0nkp61JV3KALvd1XY3HV57HlvqJ6LECDCvGlOEFLLlmFu+dNVGN2xRSWM/DxOXHS9dyz9ItNDW14iQzpNsaA0A/FV4wwRh6SCAA9GBRDJgEBg+gw4RGTwG6ES4gc8n70a/+DG5bAu/1p0itfYVwKqm02Da9gNic8zEuuJ5QQQnJ1c8SefCb4LThGJYq2KJQ1A3RFPOD4t4c6QO50UuwtGjp6ZTSTbvJWVLkNEThNyxdpV513Q7kTO6ioYdZvORO0k6KtkQcK2RRZBWpIDgJTpPD96N7mIaJ7YglwCMSChMS//m2zVieQxwoGjMRt6w0q+X77HJHO7oXa8mdJ9+L717Ksqp66LcJoG/NmtzzmOKkOEub7Fsk8lxiFlJoTiHDd6fQ9tVT0GRi2O3K1J6JhUgOs2ibUEJ7hV8wx9HMbMaATvkwYfjz4wDE5P7E6+exsW4cZrgAIxLlkknDuWfRuZSGNSIh8/9r702g9Dqqc9HvH3rUPA9u2W6wA9gowTIGt4JDEJiQEHAsRX7L3Xcl8fMK676w7vC89GIbSbCwrJuX9Xx5ufcuZ7h5BpJLt3KttIDLy0RelDBY7RAsB4QnIrstLFutydbY4z+8W1WnzqnxnPNP3X//vXutBNB/Tp2qr3btr/auXXtjxaIlOHvhIkq5LF49ewm/9Wffw4nTFzE9Po7C5GX8/E0v4oPvfAEl5nI3rl/UdtqffjmRyz09VvRkOgSI0NPhRE9VgUCzEHp4hs4IvQQU1l2L3C/9ryi8fxvKMznkL59H4cpZZEt5tC1aDCxfhWJbO2bOj2H6i49i8rWjWD1VRjFbQrbMztpLyJeBi11T+PveHP55o0gEa1rowtycQrnE3PksMYpBFSIlHU+CIgrEqC53UQ/97q170ZHrwO69e/gd6pkSy5YGtGU6uIXOIs654yDIDMcJOkh9Kmugt125gFyxiEKuHaXuRUBQLz2uxGqa6ZbFWX6budy5ha5XW7t8tYipS0WUAs/EivPtWPZ3L2PdiXHkp4t8vMVyFy+rmmU4ZbO4uLID525dh4s3LUapo4SJthI6SxksWZNHNs9KzWaEhf5Pt+HYmeuQz3Wgc/EibN9yPf7jv/og2rmln+NJeIqFGV5EZ7xUxt3/11fxzInTmGKbuNI0PvSuF/Hz73yBR7kToaeZbXpmPiBAhD4fZmme9rFZCF1zuRfZHfQSZpavQ/YD25Hb+gsoLl6ObL6DR0oXMqxsapYTP3sOhWnkLp/G1A+eAv5qCB2X3wArBVbM5nGxewbf7s0Il3uZZwy3AtaYpZkvL+fn1+xsOErKJvLRljJFlDLjKJen9WIiLPVrV0ToDz78kLCq+aZAJMThkdyW3R+dxIstQhksnW22KOqusz7wKHCRabwqyZLtsjP0latW4cGHBKGb5VNZqdOZKzOYmixj5YlJrPt/X8Xa0zO41MZC2PLoKE6DHUswK7mUyfONUlehiEI7MHbbGoy9fwWml5fQvqQL3R3ifkHocv+nW3Fs7Fp0ZDuxdNli/OttN2P39q0oFYo4e+kKr1W/YnE3Vi7uRimXx/3/5asYfvZVFMYn+LxuU6LcidCrEgN6qQkRIEJvwklplS7NHqGLeGxJT8FRrIAxw4Ky2Bl6hl9by7EiH9kSJ+zpXCcKKzcgc8ud6Nr6y8is3YhitozslTPAW2dQKpRRWNyBjuWbMNnWjcyZE5j5i/+K7me+jUxhHG91ZfFt7nIXn3JZ6O1YgjWLN/PfyswKF5elOZ2yfhUwiUvTr2K8cFaf9oDQf6VvDzrznXjo4QdR4u+z7GmBNe8gdBEtF0W9c8s9uAMvHASMQI1oezNwPoHnpTdgcnICK1atwEMPfwZvXn7ZKp/KmmFbh1VjwLX//V+w7MQl5Eo5ZJeWsWhTCTPTGUyfKCO7LIP2dRngzTImTrE4gBImu7I4fee1OPn+5ZjqyvKse3wTIs/Q/2kLfnjqWrRnctjA+vDJ2/Cpj7yH5fiLEgfJ/dX/DIT8zJ/8BX7/H17C9MQkCpkMPnzT8zworsDvoSt/yv31Rq9Dcrk3GuGF1z4R+sKb81kbcT0JPT7LHL9tLIiL52ZnlMYyrzHiEjXMe98C+n84jVyJWYcsxzoPu0Jx6XLMfLgfmTvuQi7fhtJzzyDzo6eQ+8lzKE5PIbt0GbK9t+PK+/uweOO7UDx7EqVvfAmZ738TVzsK/NqaL8qdn2NnVmFN908jX86KIiUhewj7uFiexIWZl3F1Zsw4RBf30O+6/TPozHfjoc98JqgYp9CPQuiSZM3JNf9dHJlX0IaS5z18M3DvM5f7ylUr8dBDD+PN4NraWSUojlewQxnXf+MNbPruKeSnRerWDb+8DKXiFHKLshg/M4PupR087J2FJ7z1g2lMvVFEtljGhU2d+PGv9uLKtV1hmntJ6F/9/ntw7PUbkEMRN6xfjt+590O4+7afAjLsoF0E2vENADv1KBfxh3/1Pez986dx6eoUCsjiozc9g753vcIDFUWx3Nn/I0Kffcxb/YtE6K0+w3M4vtkjdGliziBb7sbi7Hp0ti8DyozURerRnjcv4Ze/92poRZczohZ58b2/gPInP4XMyh4Uv3MI2b/7CnD+LHLcLV1AtpTBTHsW2Z7NKN37APIbb8Aki3gffAwTl17Ct6/P86A4kRfeBrsjsxLrun+GB8yZljEjG07o0zahM9udnaH/Cotyz3XhwYc/wxu3gtiC+2tpnecqwUvXuey1a1Mgqd/VPnO5r1i1Cg89/DDevMzuof8BVEJnV9SWXCzh7f/Pj7Hi5FW0zwCXVwE/+0AXnvm/C1hyYwZv+18yuPxSBie+WsSK23LAVBFvHmbZ5VhVtSJev+vtePX9y8DCEOSmjp2h/8X3N+P513uQKWXw7uuW4z9/6hO47cZNQdEa4zChnMVffP9F/Ns/+hrOXprmxWI+uPkHeP9No3x+WUy8tP6tDU8D1w8RegPBXaBNE6Ev0ImfjWHPFqGLimns/5ewKL8JS3PXI5/pFsFmvOJZAevPn8NHRp5XrLESiouXoPiLv4nch34VGD2G0p//Z2RfeYGfT4scLAWUs50oZad5jvDpm38Onb/27zD9o2eR+asnMf7Wy/j7t0/yoDgXoTNrsiu3Cmu7qid0fg8914XffuhhN6ELJkp1Gu6LWo8ndJF03hVAx8/QV7Mz9IeDoDj9HjrbsCx/dRzv+vIJtF8aR1shg47b2tD7sRKe259Bx9tLuOn/aMP5bxVw4sky1n24Ax0rynj9axMoTrHEfRmc/cBGvPCxVZhenNcq1V+YaselUhfai3l0t2VxzbLF6Mrneb16llRG8+hkZnBlagKjF6a5F4DVQV/aNoElnVd5foByVtwUSCp3Wu81Q4Reb0SpPSJ0koGGIVBPQo/vpLgWli3lsLrr3ejOrQRKQWHsgOo2nD+LO488L3Kqc1d8CaV116P0K/8auVu2ofgPXwH+ehCZi+d51DVL8squU2XLrEqXcJWzQLhy9yKUxy8jhxlc6AS+fX3G63IvZMroyqzFhk5G6Kx6mDKKgHGKpRm8NXMcVwtvaFHuJRSwcRGz0Nm1tS48+GAMoQfNpo1aF5HwIihO/HeZ+YWd8+u2uGnFq/PAztBXrlzJvQfMQhdBccfCRzKlIlb/6DJuODSGxW+NYyqbw/p7CuheuhijX7yCtk3AT31qMc48NY3Tfz2NdR/IY9nb2/HaX05gZozlcMvgjS2rcPyTGzG9PKpDzz0VzJ2fLYoCOmHCmiC1jnEVjw1JnKwLLwoLxGM10FkQnhpv0LCF4GmYCH22EW/97xGht/4cz9kIZ4/QuX3FCX1N52ZuFesH0hlsOHcGd448h0ymyBOYMJ1e2Ph2lO7+TWR/5sOY+rs/Q/5vvoj2i2+JaHPzrFlawsq/i1zu/tSvpUwB3Zk1WNf5M8iXWMW2gCz5CQFnFhQwhQszx3Fl5lRY45x/ilVbY+VTA0J/6CF2hh4cLbguSqe00jkZCls/gkghcTtqXkTKm39sI8At9JWr8NsPPcTP0E1CZzXKV70xg3d8cRSd58eRZcGJ/2YxLp0t4PyfTaJjXR6b7svi3NMlXDhcworby1j6nk6c+dsZXB4t8KuBJz62CS9/aCXKrPhKjfng52whEKE3G/Qt2x8i9Jad2rkfWFMR+vkz+OjIc6LKWlBtbXr5WmQ+fj9yH/gkis/+PfC1P0L+zE/8hG5k/U4idGYRtmMx1iy6mQfjybThLLo9uHyGQmkCF2ZYlPuZ4E66oFsXoXtdwhWQeT2kQuxpMuBBcdxCly53/R462wh0TwLX/8nLWPvSRf7pd//bpTj16lWc/3oW7UuLWPGBEi6/ksXVl8pY+TM5rLq1DWePlHD5xWlMdJUx+qs34szmJSjnZyvdSz0QStcGWejpcKKn0iNAhJ4eK3qyQgSahdCZW3blhfP4xaeeRzkzIwKhWFrWbBvKN78fhetuROnES8iNHkPHlSsiNFpxQ0fDFgVFZBnUtxYBh98G/Ggd+zdGcsyVHxEP/wwy6MitFIVZ+Pkui44r83N67vgvFzGNqyiUp3j0vbhEJe6nb+z6AO7auhud+S4wC52fgauWtTofBqkHzmdtxpIqqLneEcY5G3dg1wf/KVO/ckJnZ+hX7MQyJe7iLmHV0Yt4x/AJdF8toPvt7ShcLWP8LAtgzKLcze8Psny1yC/LIr8ij9L5GRQvlvGTW1fgxC/2YGI1q0PP7qELTwH7zzh65zHr3J0uAhGDFPEVSm/jHydCbzzGC+0LROgLbcZncbxzTugBKbO0pyvfuoCPHXkeyEzzAiGcphhBZtuRZZnMeLrUAlguVv67rDbGMolpf8IBzf7vUkcZT11XxjPXsCtzgmhKSjSWdh+eUTG7usYCtvhVKnYmL1pil6zYvXhkWLUwlmCFfZAR+h24i91Db+vkhO77Y+MQZC8s59CSN8hfI/TgDF28EpF10jm86iUQUe7s2tpnnNXWipxMC+iezGDjX7yGNd87j47pEsq5DDrZHX8t363Y7LCo9alsGVc2dmHsl67F6Xd0oZgTZWslobPYBubO9/2xYjTsVgHbTJT4JivtHYBZXBz/c7NBhD67eC+ErxGhL4RZnqMxzjmhB+NmlmDn5ARuPHGS22w5pUgKzzHOztW5vZzl98V54FRoDQYu8IDGC6VxXC6d4y7x6SyLqu7GiqnlaOPpXfXTZtMy5MTLa3QL+mf51xnBsw3Eyyuu4F9WXuJJT0qZCSAzgw1dLChubyKhy+l1BbQFOWzMRPFhUFwtohERuuJyH38ubJIXYkERhSyw5CrQ840xvO3pM5hkgYlFoC1IcMP7HcQmsKkZ37AIJz66AWM3d6PYJiqzscxyDDzuPGHzFHN1nG0MSry6HNs8sU0CEXot80zvzh8EiNDnz1zNu57ODaG/G1251XpQHOOPbA4d5WmeuztU78yqDcp5MqIIDGaBs4yUDtKkiv9dwkTxDE5P/hjF7DTyxTbc+sZK/PzoNeieaQ/yogUNmj7hoNg6T8WaAa4u7sblDWtQZDnHs2X8ZOkVvLriMqZy07gw+SomSmewvmsr7tq6F13SQnfVTFWkwg5oEz+yM/sszxgXDC34z+j5IAtbhWFnIvXrajz40IMi9etzf4jzExGhc4ubZXYL6py3zQCrnr+A5UfPYvmZAvLjzN1e5CcYpc48JpblcbV3Mc5uWY0LG9qQZVn+WF72MrA8W8bSjhw6sozJS8K6l3+W/72MqWIWb00DEyygXXovmmwFkYXeZBPSAt0hQm+BSWzWIcwuobOynFms6XoXurJrg6tpkrlK/ApaGN2tuGDVkiihS9cDKLP7JorncG7qRRQz08iXMnjv66vx86/0oLMgCrDwP2aJZ1l50AzaSsL6z5TymMmX0MaKpGSymFy2FG/2rEcxw6z0Ek4uuYqTSycwnZ/B+cmXMF58A+u6+vDJ23djUXs3vxpWZoVYYqqjhccE0iwPNyXRGbg9NHFnm3kqeD/FAOzHjIxx7IGI0B/CuUsv8eIs5yeeN7YYIiaAbyyYWV7OYtF4Gfm3JtBxtoD81SJYOPvM8jZMrGrH5PI2lPLgV/zaWCr9TBbXLMrjttXt6FnSia4cq8JW5tjzfZe5OeEbCOBKMYufXJ7Bs2cmcGaywL0icZXl5mINEaHPBeqt/U0i9Nae3zkdXbMQenSmrFjeVSDDCH28dA7nJ19AKTPD70Df+voafPjla9DOfMPslJclsmE1y3kRlDbMZEvIcyKWmc3zPKTr6opuvHnNehSCVKUqoZ+bfBETxVNYzwj9/bvR1d6Fh3fv0e6IuyLe1Q2LjGULydnYCITn7axeenEKpZkJdKEdufZO7jUw/9hmgh8UKOftLMp9xUpWD/1hnLv0Y/zDC3+I84rL3WyDbXe4oyL4gbnCWWnVUrGEQpE7yTkZ86OKTBm5thyWdeTwS9d2421Ls+gI8uAzF36uGNVOV78jjjVEAF0RRXz/XAFPnZrAlRnhgm+mPyL0ZpqN1ugLEXprzGNTjqJZCL1qcAyrlBN68SzOT73oJHRRXrWM6VwHcu+9FcX3bUbm1Bnga/8fcoWLKOZymH7bO9F+43W4OjaGS1NXec1vdh4vCH1Ss9AZofOguHwnPrNnb0jonFxl31jwVy7rJKtCocDJkpF6ezuLFLcJbWLmKt64ehKF6XFsaF+LpcvWA1YgoDDap6ankOfZ2MT5PyP05SsYoTMLnUW5/lO15QAAIABJREFU/4HmcjdxZ1a3rBnPiLutmAHL2zN+pYirVwvcNS/secHqXcuz2Ly2Cx/f1AmW7l3Ws2M3FFhiGdWZEAb88SMNEQiXKxdxeiaLr75yBaevzhChV70Q6MX5ggAR+nyZqXnYz9kn9Hzgcmdn6LaVWTuEwkI/57XQ2ZW0IqZ+ejMyd/Rh+tnjaH/3NSi+fh6df/VXmLqtD20f/iAuv/4aOpesxKnvfFNUTsuU8NqScZxYOoGZ3BTOT/4Y48UxrOu6jSeW6W5fiod3PyTOgjMZFJk1Wywhk80il82FFdyEVS6eYc/OzMxwqzqbySKfl89FKLBnmHV+ZnwMxVIZaxev51fk+OU7g/xZW8USs6GBtrY2/vsEq7a2Yhl++8EHcebiS/jW83+ENydf8MIsCqWI/2OEziztTKGEq1dKmLwaxDAEVjw7PulekcV7N7TjIz3dWNpRQAF55IsdKGUnMVNuR7HchsnMMrSVWRDhJBaXZngGP1ZitpRhIXdZXCoUcPDlC3j9aoFvVNSa87XLQ20tkIVeG370to0AETpJRcMQmD1CF2e+2VJb4wm9fA7nJtwud1GWtYypm38a07e+F+3dGeD1iyiuXILCX/8lun/zU7j8+uvonpzAxMlXceWNN/j96mKmgNHll3F85RXM5GZwefo1TBbPY03ne3HX7Q9jSecqPPo7j4BZ3AFnh3XVI+LVre/Qig+urrnczeyNYqkgUqCyiHDkOQly0jOteXbNrlTkmwPpM5+ensaaNavxW7/1abzx5vP49nN/iLdmXkolT/wAgt3LL5YwcbmMiatmbr8yupe34daNHbizpxPLs50odHYjm1uFi6Vl+Ls3b8QPL/XireIKvjFYlbmCdy0+gfcvPoZrc8eRx0Vef++tmRy+evwCTo6zDIFE6Kkmhx6atwgQoc/bqWv+jrckocdY6NILPNOeQWZTL6bac+i45X0obVwFnLmIbG8PSkeeQe75YyifOsU9yKVsFoVcAc9sPI/vXXMW07kSiuUJnnBmbef7eLW15YvX4ug//xMYgQpClzfhAxngofoRoUsLnT+nHBuo598ycU6pXEKZnWUzu5xZ0KJouvOPbRJ4GwrZL126FD/1jndg9I1nEwndvFbHc9uX3ITOCu10Lc/j1o3duPOabixa+i6Ul30cufa34XKxC0+dW4S/PFnG6YkC8rkc3rEki61rgBsXncFGHEN+/Cnkpl7AW4UZfO3lS3h9XNSBJwu9+fUG9bB6BIjQq8eO3kxAYPYIndOcyOXedTO6smuMXO71mqoEl3tmBrzOZz6Dic23InfLT6HtxptQ/NbfY3rttcjNTKHjySHMlDLIZ6aQKbdxl3sxV8BIz2l897oxTLaJIquM/NZ2MAt9L1YtW4sSq/wWuNOj0ajR6NUFfMnca+xMWhQrCbLRpYIsSKdTzuL4ye8HhP5i+Ka4tsaabBPn4tq9OXbWXUC5mMX41QImxovioD5I6JPLlnid9C0bOvGRnvVY1vPvcOSHUzh15hJ23H03pgoF/PXpaQy+NI3eRcDHV1zF2uJVXNfbi+6OEnDlKMpvfgVvTfwLvs4JnV2B06uwpRpiAx8il3sDwV2gTROhL9CJn41hzwmhO4uz1Gu04tra2SnhcmcpZN+rRLmz/CVTS7qBuz4GdC1C8WIB+Z71KP/+f8LUBz+M9hVL0f7kV4BMN/LFEr/axoi0kC3iyKZTGNl0BuMdBWFHlstYmfsZ/Erf57F6BYsJ0K+SMUu5JC3meg2v4nZEn0qlPH584h/x7Rd+H5eKxyNCZ+lty3ks77oebbkl9hjKecyUxnFp4lVMFa+KtLgyQx/bkuXyuHlVFndeewMWX/c7+Mzu/4hc+yLs+w+P8Kx7z10p4feeOYObu6bR/oNv4Ll//iH+zb//3/GOd/4UsoU3kT39B7j41gi++sp5nJwIgu6aKMcMEXrFAkcvJCBAhE4i0jAEHv3zPrDyoLPz56+2pqZFra0v8YReYN7oj2xDZtkq4LtHMPOrH0Pbd5/D1LFvoe3tNyP/8U9i4ot/hK5LF3nqUnatjfE0O3sfuXaME/rVDpbjXHjKV+Y34+6+R7BqxSrNpV7bGOr/dqmcwY9PjOA7L/wRLhZeVj5QRL7UibWLbkF7eSUP/lP/mPt7qnwVb02xa3pvyhT5/BHujc9kcNOyNny4ZxWWXfcwMh19yJanUcrnMF0q4Vsnp/HlV67gfSs60L+pgNLUNNauW4ccy+I3cxHZs/8FFy//I77OguLGm4vQc9k27N45Uv/JoBYXNAJE6At6+hs7+C///W/ixNlnG/uRoHWWgY253Nd2bkZnbpWW8yzy9Fbjlg7CsplLWiaWYVHu2chC3/bKRnQU2njkdulDP4eZVWtR7MggP3EFHd/4NkrTF5BpW4KZnXdxoi699CLaX34VuUsXuUuaWegj154WhN4+E7jcS1iaeSc+futeXLvhuoRyJNVBbLvw/e3Ic3nzCYboTKGI51/9FkZ+/EVcLv4kstAzRWTLnVjfvRmd5eVB2lbxs7ieVsJUeYpfA5wsvSnO8YM/fo88U8bNy7pw5zUdKC9+H17tfhBLu7o5Zi9eAr42eg5vTnZiVVcRn+jpxnvXdqI7B1woljF6ehS9k3+AReVj+NrLF/FGQOg83q86uOr61nVrbsGvb/vjurZJjRECROgkAw1D4NiJv8ahf9zTsPZD5V9m15RK3A27tv3d6MqLa2tCcfOaZjX0IdoOlMvsDP0Mzk++yAk9V8rh1tdX40OvXIOOYhuKzA2+aBHQ+zbujs+8chzZ8auiaAujr8UdKN/wThQXtyP/41eRO3smdLkLQj+F8Xb2JNueFNBe3IC+G/83vO8dH0Ym14hreDXAIom3nMGly2/hH1/6Gp4bO4QZXAgbZVHsuVIX1i3ajE4stfLPsXP1mdIEzs08j4nSeV6BLvpjRxHA5qVd+EhPG65mNuA/nfkcyt2rkS8Cb4wXcbGcQRu/CzeNFeVp9BQvoDtfwpXF61AonMXOJf8N1+V/iEOvsDN0Fs0vDi5kWfraR199C3ff/ig2X/ex6hugNwkBBwJE6CQWDUXgmz/4PYy89JWGfoMfvQZfWJrfhGVtPciiA9lMmzDHgnzsCVlT/X0s53jUeSkzhQszr+DyDLtuBl4gZMsba0JCF2RRxky2zJOmqNHgnKKzReSLecy0sdSlYgMiz9AFob+BcZb/hUems4xzbVjX9bP44M2fQs/6Hp7MpR5/Pmu70rZ5CdXpaRz/yQ/w/ZcP4Pz0P/OytPKvlC0iV1wkCL28TJyRG3+sHvz5mRcxXjwfbsHEIyJBzA1L8vilTZ0Yz27E58c+j7PlZSiOvoiJsz9Be74N1193PZZ2tuEfDj6B8bHjWH7DbVhzZz96VhRw38o/xYbsD/D1Vy9hLCB0trWTyW0qHW+9nu97x7/Cne/59/VqjtohBEIEiNBJGBqOALPUn3llGCfP/6gxZ+rcjZpFOVNAptyJJdk1WNSxhlUi5wlAy+x+mPInXM3sH5Kdr2VM8yhtVtp0fOocrpTe4IVZWIlORsq3vr42JHROxEHxlRJLT8qsdNXqLJRRzovPsmfLPOpaBMWNbDqNp699A1cDQmfkx6LO24pLcO2ij+G9b/8VbNy4UcvUxmkvoWCLHLbqXo9ztatkH/ccC8gbn5jA6Ov/gh+e+DrGJkZ4lTj1WphF6LLOXLizKqNQmvQQuijMsihXwI7eVUBXD/7PUw/hXHkZTv/338O57w7z2vGrV6zE0q4lGB19A53v3Ix1n7gfHTe8Bz35Mfz6qq+gfPl7+O7YOC7PsHz+wlczF4TOzsx7Vr0bW96+gyzzhmuchfsBIvSFO/c0ckKAECAECIEWQoAIvYUmk4ZCCBAChAAhsHARIEJfuHNPIycECAFCgBBoIQSI0FtoMmkohAAhQAgQAgsXASL0hTv3NHJCoDURODmEHZsGcAjAoyNl7L69NYdJoyIETASI0EkmFjYCivJXgSAi8IjF0/uR6XPlFtiOwdeG0d/TBOJEhN4Ek0BdmAsEiNDnAnX6ZhMgMIahezZg4KC7K/Ul9Ohb9W13DmD0ErroS13HJ7+1cxCnnuzH+rTDJUJPixQ912IIEKG32ITScNIhMLIvg62fDZ595AjKe/vCF8cO7MATvcN1dNWOYH9mK5hdW1fCSzfU+j4VErpikateDgPLWj7O5mFD/yGACL0WGOndBYQAEfoCmmwaaoBAagJyE3G4GdDIK3pW4rx96BSGe59wuKhV97TDU2AQWEhseBRHyttwONgcALId/dv2psH8hu4eD8ezcxBH7h7GVkaiPmJ2EToAtQ1pTUf9DhHR3fKaJX0E6GObHta3x4EHHN6ToE92uwDH+t7AhicLnZb6AkWACH2BTvxCHnZECEnnvmkJ3SZzhm8yobvfC5zXOFLeDeY3cBFYOH87t2P7wUM8ACz6Y8Qv3gV834jGrnkrZCOVELpjg+RsM2g73HA44xeSCd3Xtqvdee8RWcgLlcZeMQJE6BVDRi/MdwR0i1cSn2tUKQk9tFpVIlXbS2gntLQNAnZYpJKgVJIPrVPlfFs+F2s5B+2rBJlIgLFn6MEm4WQUOKdaztF3ApxUQne41dO63MPn5CaELPT5vkSp/1UiQIReJXD02vxFoO4WusPS1FzAipUcEabiBjesYZOEIc+Sucs92IA4Xd/mxiE+8E+eTY/KeII0Z9U+Qlfe9W6YzD4j/nqZl9B9fSBCn7+LknpeFwSI0OsCIzUyrxBQCEEnXnMUKS10n2s7JGpXO/Od0P3HFQ0ldEfkO1no82r1UWcbiAARegPBpaabFQHdcjVJPYpyV86fHdafL3DMtiyjdmJd0MbGQD7rJMhUFroSrBYTfe5yy3tnzhMUpz3vcP3zwwTTE5DgGneN28bWsTEil3uzLjzqV4MRIEJvMMDUfJMi4EkoI3srXOMul/V2bN95CIfY/XVJkkkuYHiizBWXs41S5F6vhdDhHacjKK4il3tcQGHKO/5JxGviyvC+87B1a2D7zu04dFCJzE9qt0lFkrpFCNSKABF6rQjS+/MaAXfEtD9KnBH9tr8N7rDHEbppEWvEWsu1tUrO0OXUuCLdozHW3UIPPlvZtTV3ilZXvgD135gX43F8WtxXpzP0eb0WqfO1I0CEXjuG1AIhQAgQAoQAITDnCBChz/kUUAcIAUKAECAECIHaESBCrx1DaoEQIAQIAUKAEJhzBIjQ53wKqAOEACFACBAChEDtCBCh144htbBAEDh27BjYgjl58iSKxeICGfXcDjOXy6Gnpwe33norNm/ePLedoa8TAk2OABF6k08Qda85EPjmN7+JkZGR5ujMAu1FX18fPvrRjy7Q0dOwCYFkBIjQkzGiJxY4AswyP3RIL3+ywCGZs+Fv376dLPU5Q58+3OwIEKE3+wxR/+YcgS9/+cs4ceLEnPeDOgBcd911+I3f+A2CghAgBBwIEKGTWBACCQg8+uijs3Jm3vfrD+Kj13fqvZkcxTd/90+hOvv5c+tPWf/+yU9/Dresjl6ffPWb+N0/kW9+Ep/+3C3AP38ej5/+NTz4C70wviReVL9316fxufesxjn2ztfVbvXh1x78KDaMqe3PjhixM/U9e/bMzsfoK4TAPEOACH2eTRh1d/YR+PznPz8rH3URtSR5lVTt5wRZrz73LD7/+P8I+8qe+zl8OyB1hdBVcmak/c7L1uaANcI2CO9aPInOKy9o7QJzR+isX5/73OdmZT7oI4TAfEOACH2+zRj1d9YRmEtC54PlljLw7OcfB6Nrk9C5ZQ6dzG2QKiV09vwmvPY3l/GuX9iAU3/zu/jTp2WrROizLoT0QUIgBQJE6ClAokcWNgJzTuiGRawR+u3MfW4Srmu+KiN0/o3FzDI/63CvE6Ev7BVBo29WBIjQm3VmqF9Ng8DcE3rg/r4izqw1Qo9xmesAVkLogrCXvBicnVvfIEJvGuGkjhACCgJE6CQOhEACAvOL0AXZ9sqIt/BcvQJC51b/ErwQuPgB810idFo0hEAzIkCE3oyzQn1qKgTmntB1i9l2uavkG0EXuc3ZyXt6QndG27Nmw80BEXpTCSh1hhAIECBCJ1EgBJrdQo8NivOTa3WEHkP8YWAeETotGkKgGREgQm/GWaE+NRUCs3oP3bhfLqxlYFSJMreurXEXeS+g3TsPouF5YFsFFrqxeYgmQhD9Yv4N0D30ppJQ6gwhIBAgQidJIAQSEJitTHG1JZYJ7qJrY5lUNgLpXO5xV+D4b4tZopt/wY3qOX3wTT2RTWPEijLFNQZXarU1ECBCb415pFE0EAHK5d5AcCtsmnK5VwgYPb6gECBCX1DTTYOtFgGqtlYtcvV7j6qt1Q9Laqk1ESBCb815pVE1AAGqh94AUBOapHros485fXH+IkCEPn/njnpOCBAChAAhQAiECBChkzAQAoQAIUAIEAItgAARegtMIg2BECAECAFCgBAgQicZIAQIAUKAECAEWgABD6GPYeieDRg4aI/w0ZEydt8++yMf2ZfB1s8C24dOYfje9VV3oF7tVN0BepEQIAQIAUKAEGgAAhUTOu/DzkGcerIf1dNq5SOpioif3o9M3x5tE1BVO5V3l94gBAgBQoAQIARmFYFEQlctckmGrIdzZalXgs7YgR3Y0H+oZqu+km/Ss4QAIUAIEAKEwFwgUBGhsw6GpP7IEZT39vE+S+KUA1DJ3vxNdZm7fxvF/sxW7MGjODICbA0s7MfxaY2cVbLedXwDd8ezP9m+uvkIfsHga8PY9h2b5M1+aB6Ik0PYsWkAh5hX4oFRbOjbI5pTxj8XE0ffJAQIAUKAECAEVAQqJnQEbmxJeqPB2bYO63ZOnv0nhctb/ZOEa5FoSMaS0Ldj+85DOHRQkLSX0Hdux6GDh7RvsA3Ftr8VZ+7Rn+iTSeg28QdvyGOFkNC3Y/vBQ1C/NB+8FCTuhAAhQAgQAgsDgRoJvRdPcGs6IPCeyFrnxN37hCB0y5odCaxw1XU/hpGngb7bJaHrbn3TfR5uCJTzfNN74HK56//m+pbRt57AQg/HGAUM1hqgtzBEjEZJCBAChAAhMBsIVEzoGmneNyrc0Y6eCrKLCFM88iiOlHejT3VjW8F1klCDZ4O2fYTudOEHG4hEQr/jcNB//VtyjNwCl4Tu2DgQoc+GiNI3CAFCgBAgBNIgUBGhR+5paZFL8o0sdOdHpZue/ciJUVr2qhU+gqEDvegPNwHpCD2y/m3LOZHQlQ1H5D73WOhE6GnkiZ4hBAgBQoAQmCMEEgnd1S/VMnWeQQfkhyDKXGsj+M119q5b9SkJ3eqg7f4Xj9R6hh5d1aOrb3MkrfRZQoAQIAQIAS8CFRK6TrKyVYvUvYTudm3LdoSVXKnL/Qh2fHVrkATH9BRE1raP0Nm3rQA99czfcTxAhE4rihAgBAgBQqDZEJi3qV/pjnmziRL1hxAgBAgBQmAuESBCn0v06duEACFACBAChECdECBCrxOQ1AwhQAgQAoQAITCXCMxbQp9L0OjbhAAhQAgQAoRAsyFAhN5sM0L9IQQIAUKAECAEqkCACL0K0OgVQoAQIAQIAUKg2RAgQm+2GaH+EAKEACFACBACVSBAhF4FaPQKIUAIEAKEACHQbAgQoTfbjFB/CAFCgBAgBAiBKhAgQq8CNHqFECAECAFCgBBoNgSchP7Hf/zHzdZP6g8hQAgQAoQAIUAIKAjcdNNN+Nmf/dnwX5yE/tRTT4E9SH+EACFACBAChAAh0LwIrFixIp7Qm7fr1DNCgBAgBAgBQoAQcCFAZ+gkF4QAIUAIEAKEQAsgQITeApNIQyAECAFCgBAgBIjQSQYIAUKAECAECIEWQIAIvQUmkYZACBAChAAhQAgQoZMMEAKEACFACBACLYAAEXoLTCINgRAgBAgBQoAQIEInGSAECAFCgBAgBFoAASL0FphEGgIhQAgQAoQAIUCETjJACBAChAAhQAi0AAJE6C0wiTQEQoAQIAQIAUKACJ1kgBAgBAgBQoAQaAEEiNBbYBJpCIQAIUAIEAKEABE6yQAhQAgQAoQAIdACCBCht8Ak0hAIAUKAECAECAEidJIBQoAQIAQIAUKgBRAgQm+BSaQhEAKEACFACBACTkIf2ZfB1s+6wXl0pIzd2I/MF3px6sl+rF+gGI4d2IENX90x/zA4OYQdm4ax47Vh9PfMwuQ9rcrKCPZntgJMhm5v/Lfnfo5md7yNR7SBX9DkpLrvhHpr52DzrMs6jKs6NOitNAgwmXnshlMYvrc1mCzBQh/D0D0bMPqAoYCbSEjnSmnP1XfTCGnsMy1E6ElzkPR7zVgmNtCshF7vftWhvUp0ikuG2ft9wJHybvQlzkvjHuCbChxBeW/Qi0rG5eiW1V7juj57Lc+2DooZGRE6A6dGIa2n5My90q7naFqwrQbKCs19tfJSBwLWPl2H9iqREwchNIssEKGnkEki9BQgVfdIbRb6A6PY0LdHfNl0c/Edc/AbtmMw1sUrFEL49JB0gUgPwSn0fmEDBg6yD0VtmUcD28P3fO0BfOEf34Uj2MqPFdgRwv2j4t9O3fAYNvQfsscTKJsjdw9ja/8hsO88jk9rLnfebvBu1A/WlBiD6DuAR5TduzlnKmbGc2r7wKORJeLo267jG3QrAUCoaO4btV3u6ne1efTj6BI3dT5CDJJc7l45Yd9+DL2v7cLoJikb0bj9cx/1zFLyMfjq46lOHm1MDKIz5opLM5PZOw5jx6YBCMmz5/aUus7U3/nzhnwZa82S968P4uhd8lv69zRMVTmQc6j2Q8onV87u9lQ8ZD+S1lh0jOeZA01ehN75xuYBfEI5ItRkL9RB5toL5GtkB4b7BnCIj7cXTzCZk/8W6rVtOKysYX7saB0ZmfMgdEt4PBmjK91r29Oe66hKmwNFflLKhjonqu5yzZmu2wJ9KnVmgmyGeKhzIuUs9dr069OK+7tzEIObBzBMLveArI1FvUUKOp+coxGJx7rDxMI9apCxOGeVk2eQ+LHojMzemce1FwmguijlgoqENfju5oB8A2GzhF2eoRvjGzswhNF7+9EnF5RsJ/jfw3c7zmzMXevTQxjq6efn3KJ/W0IS18bs6Bv3oKjuR7Vt6Gfoom1Ec3VyCEMn+9F/ezyOOnkFeEGdlwCDOEKPlROp0KWCMuaEUVlCHIP2ewy+JhGP7NsP7A1ct1ofk+XRtTEIYwbMuZJKLCRPt9ypm0BOuqH825iIuY/WnpRtnYQcFvXT+7EfuwOiMuZe9tO33pFsoadaY0pcjn8OAKSx0E3ZstZiIF+uDWz4b1IGI/1jrkVbdhwud0ZgPuxODmH/d7ZhNz/Dtecz0eUezE00vyMYOtCL/nshDIlQ9wSeVYds6BsgW3bif/fopUAm9iiGyciBIfTe24/15vylXpsmPuJ/S31qyZhzLUT9FWtlj9hUL/gzdOO8KjqLEIKkk5a0tuxALJdSjm2LT/4odgVnZeb78e2td5KAkxhUUnRsSGxSVTYwcpX73ju+Kzpjk88Gu+xwUxRqCoeyVDFwbpb0d/zE5omR8JCl97zJmBNNyXkJXV+M4h1VTtykowZjVk7oA7Dxdfka1H9T++Toc9zYTaKz5soeo7Qy+Bmsa25V5XfSfW6szpMbo2QC1uba0Q9dFpLbS7XGvIG2hv5IJHSXbMmNgNQdrj7b/2YRaux8K54w9QzdqyvtQCxt/lXPmmzPEFfvmvQYUfGyoesDe87U31PoJd98Ogk9xdpM0Kfx/XXrOjpDZwKlKelAFYfRgsHOULqYFQF0uap0d5PyMN/Z9dpBeWkIPXQBme31hS73MGhFkpdJsiZpGsLp3EgE3w3HaboHZXd8UbjK877jg2hEgdXAlLpj4USKwcBQW0wJG60YHP2kbWicBEIPjyIsOXH0zZC7ighdym3g7ovblbtueYg5dSiFSgldmysPoaueH2tuFVw8c6+SkEkQ0cbJuG3gklVpXcWud0ZKKQm9gjXmn4M0Frpno5oo+7bMuQndf0skzRm6RiLWkYV+fBlvofs35L44p3jZcBC6Nmc2octjUlMvbfuOOMZU9Wz4jDeoUbTmXZsJ+hTBcWr0TbO/7AhPNyqJ0FMSutOt7DCG4pVysgJNY6Grn3UpOKfSU5WYQ6F5+626eTwWVJJNKFyKcseaoCwdfePtS6J5rRePKR4N3V3pbzuJLC1C90UYV2Sh+yzj4N9rJXTZvNcbIt2SarS0ilGyPOpza+BrzVUVhJ7onRFWoryKk47QEyzTRhG6b40leTLqZqGbCn62Cd32ZprrLg2hO3VtWgvdS9hRvJGfIP1XUGP1R1xQXEVrU19ttqwneBTijkATlXRzPlBbUJxyD91SIsqZL9/B3zOK+1331h0TOLJvB0bvYzupZAVqCU5sey4hdZ2rO84QYyx0HNiPw3fsDu51227jKD5AfOuJ3mE7qEY7w9THrZ+bBmT9pV4MS7es07UVuB2xHYc2KztlYzFZZ4LyDL1H3VRIL4ycF1OYXefbyWfo1rc1OamzhR6Db9zmRHqQ5sxC18743GeI9jlptCGpitCl1VhvC73/kAgU44FdMWvMICN9DtJY6PZ5sTyfjsjP5Z2aa0IXmOxRPHjpztDV476kM/Q42ajEQg+OF5R4Jm4sSL1kzi+bcd8Zetq16WhT1afxhG73V8oVnaEn7tiToh8NQjDcTtGiTyZ0qRiYsyacGG97MYSuRL5bbp9ECz1YiMGwdAGJ+03zHcRGwydGIDs2S0JglYC30HLXXYbasYd6HBCDo70/lQFj4pe0Ue76kYsaoZtM6M65Vzqmb/b0/sXdNtCj9QexpX8gSIaTRh5NL4NixVRpocvbFbxl65aEMS4j0thN6Or6DDBX3ZlB9O+AvE9d0XpX5zDCQvZD3i5JWmP+OZCbyyD5VSCv3N1qJnoyXLT2uqy/hS69a+xWR3W0AAAgAElEQVTGgi8Jl9/l/igGh45iQB2Hsgbd0fVy8yKd33FR7vrcJBFg0u98W6YmIbOOEnXdp/Y/fI+/o98iiL0JJIPtHLo2ub+2DmDyuIASyzSnW6HevfIpvXp/h9ojBCpCwHecUlEjzfEwrbHmmAfqRWsjQLncfUFxrT3vNLr5gAAR+nyYJeojIdA0CBChE6E3jTBSRwwEiNBJJAgBQqACBIjQKwCLHiUECAFCgBAgBJoVASL0Zp0Z6hchQAgQAoQAIVABAkToFYBFjxIChAAhQAgQAs2KABF6s84M9YsQIAQIAUKAEKgAASL0CsBK82iqRBDenNVpvuC+S5/uzdZ5KhHneg01uMvsvQNcr+9U3Y4/fW9sk94MflV3ZP696Ljjrd+P7oedbb26YdZHXquc6xSpeasbFb3VbAjMIqEn53tuNnCq6Y+5cNPkdo7/jic9qC9PcjWdruGdilLE1vAd89X6KMjkDvEkIMeMbHvJr83iE1Uq+QYS+lzJRGWgOwq4eNKlVtYuezpFkZfKGzWKF1XSwMLQvZUgEvtsXGraun2kMQ0RoTcG17BVIvQGA9zQ5pkiPIxtPB++vyBHQ7uQ2Hg9CD3xIxU9MD8IPSGPfkUjtrabPIVrWDa3prbUl6uc67p9f4E01KqErqdfFDVj7cVq7nTV9HpBRTBeg3sALB2i+ItSEOqpP41KO4EVoaa+5Okb7zistGemmvSlWpVpO48AfVuxJ+yD+rw7baVJyq7857KkK1gqRJ4yU1Q5U6uJaakgHxjFhqDyF3zV16xKTKJ/vUFVoVM3PIYNsiKakRLUn1LVsSi1FJlR7WeZ/3r0gVPo/YIci1Gb/rNRe74KcWad+dEH1Dm4H6P3bID+DV0OzLShDMdtf6vXnVbHW13qXRuXKLuZmMvkgkNmqks2TiO9qFkxykrlqrehrhXRQzPFLktNO2xVkdJoQEnPmTYlr6wVLdqph0wY+Gqybab8Zesz+LJSq1rOhyr3SXm4nevAsa7+6yN78CmXLHvXhuifpSM13RTpOlMv6LJk6FDvNyNC59XMtHoZrsJCEnNPkSBVB5ly6JyfNDrUrpbmTw8bo3sTcNekySNLthfP3MQ5vm+uz1A3mymW1TURHYOqqY1Dfe/R84lpr0d2YLhvAId8/OBQ5R4LPeg8WJ5dcY40dkAU2+BkouVM1oVRB3EMQwdG0X9vn9MN5SzOkdmKsJhJAK6mhBg4JsibGYFG34iKoagTKCfEznWsFmwYOtCLfrPYvZHggxWPeezYIWx5QBSaUNNapnK5szHIBRRXXUioDGu3bxUVUCu89cg83Vs4+TNUYi0m4129BrfEzCBxpSCD3bZRdEPrv38OBg4qC8TARI7XygWt5hpXqr1JWe2zijlU4no08rYnJnmxC9QIRaaMy8RakrNXfs25TPENbZH713FfnMu97jJhaB4rLkEWFFmPkX37gb1CboUsRoVHkuTe1G+mftFlNYWFngYHh46Ucqda6FbZUlWHqq7+2G+qFrrbre/OS+4g9Dgd5J0fWRrb3oC5da6Yw/3Y7SjIY1aai2TAnHddJ1UiS/qmX9elpiGqfN+y0O1155NNqaNCsg43SrpeTCObapEeB3c7/8lN6DE1npMsdKsyWPhZ9+7IckupisY604o/T3YRV1QIwS5VGFo7oUL1wWYspHtGse3uYTyGx7nXgn3j8J2C3NMRulqeUy93afcgheIJiGGUbzAcpOWdT8c5IidBaVU6fjfaMjGvdg5M6zdWAUrLSCN0teJUYMs6CnZohTHiVomFWcJmwIWxphhcWCtlbqXnxSwwos4tr4A3il3BRi2wEZX5clnB5vPBM15Cr79MmDCnngNNFl0bU0exHK++0bF2ka4uuwk4cK+jB9ukM3SDMCJZd3mCTBKPPD66rolzx7sI3a+D/PNjYxK/3u2QQlMfa5UC+dwlyZ8uTXGyFG+hO0haNm0Suie2Qv22hYPDbR89P2ofyWj6oxLDQ8fDTegx1kgSoesuQXsnFxG4RwDN3aoWER5PbrziknRBq+PkuySxWATpqT8qbheva0MRst4nsGP0fuH2fwB4/MlePBESYEpCN6Lc4xVc/CYmoC5lbKbLVo5VdxGp76nHAvLptOVCnYRe0Ry4lbLq9VD/u+yf+xhEHOpYu2STUSw3t83s5lFQ+ITvXeeasTdHlvwpC5+7Ua1gR132MtYNiRhFHudVSCD0esqEjm4cCRvVu4IXtfmMqd9tqHpRitSaWrkOkjbKpos1ashXRS16wm09i6M47ntQatYz5a5voP3YG3OtkIA8hotql9s6LtS9DrkwidbWkxHZqr8lrhPThc2aMaxWPkde17aBu6a7U8iSgrnt7fTofhehO24mWUaHKpseQhcygBSyaVYCtHWU61/8hK64MNUXkwldEWvmcgzds1Va6JUSumXhyP7ET36Sta6e34l65qy9J9D7hV48xoldHE2kstBngdDTBeR4rMZwCh2YVWGhRxLhmgP3vFi7X4Po7N138BXFZckJ0isPcQvEs0P27NR5S67f6m2hg7mgdctKlOv0BOwl9TeUQ3W89ZcJF6E74xESPHL2xq5CC13rSDpC98ZNxGGbZKFLeWH4s3PscB6SsDc3b3L8IsbFTcJ8+6BbhCkI3T1uG+/Y47w0OPA5Ua3ltPEq0Xu+OUo+Q9e5IfQWVGuhV0jofh0d522JJ/b4M3TFFR2eSzrPePYE9a+BoX2HsW1vcH8z7pxOnu1qgR1JgpewCB3n0ey8e/S+YfT3uBb/CPbvA3YHu2aXJRjCF0wydm7BrifFGR8nnWPbgbuF613uvM2duPq/ueJvKKEHmwrlnJsr/S/1YjgYp7VBM+fgnlHczzcolRO6rAe9ZSTyhMTPgbSEFG+O6+w0htDHDuzH4Tt2o79HKq9gdxsEYzr74vgtxMWrrPVzMH1pmb/JcSWfoasxHMyqjM4jTTdzim9onbLdito6dhK6HYPBCaEWmTB1kBVLEJxf9j6hbVjM2InKCD1pHSQRejocVJexGbvhO0MXcAilfXTnIeBuEXDMKYp7GaP4Fx17h6Ln+uQotmNHaFTYKj9JrxrHfr75uVccW2obh1ida3xXBq9xCx1e3RuPgTE6b1+DAG4FS12eYnR/6jP0aHNtyWashd4nDD+vjq47oSu7poMCQDWaVItafGQQg8cGoghgzcXiiATk7lh/lLuWwMMiv+RFKAlFRtRH7cW4dkMXsTvKXSDgOHOxhMm20NX++Fx1SWeKkVtLj3KP3Gv22LQ5SoiS1N1mdtCgvYDVs8PIbRXKiBFFHD8Hsu8y8p1LGwZfY5uwAPkgql91J9rnh+7IaK88xAQjeq1/6YFRF6KqX7RxszHswuim+Ch3O0rbODIx587C1hFJ7yJ1cx2n2myHqygMsIxuPihHV554A+ZK9Uaha3oikjlVbrcPsQj+gfD6V6WEHm6wZfS6hmUKXRISrAuHeB1prtkoyl243KO+2TrHvx5dij5ukxl+qQILPTj3ds6PxyPiXe/ScxUcfOwcxODmAQwEbnD/OOXGxoe7i9Tl4Yqtv+QRhlOePLo/lEPvUYA+b5USerJs1tPlbm/x6F8IgQYhkHQU0qDPzkazMcGls/F5+sYCQCDuyGUBDJ+GqCMwi4llCHpCwIVAqxB6EFMRHMckxWSQLBAC9UAgzptUj/apjfmFABH6/JqvFuxtqxC6vBalJFBKEU3fghNKQ5oNBKRLvIKkI7PRLfrG3CJAhD63+NPXCQFCgBAgBAiBuiBAhF4XGKkRQoAQIAQIAUJgbhEgQp9b/OnrhAAhQAgQAoRAXRAgQq8LjNQIIUAIEAKEACEwtwjUTuipr03EXZb3ZOaaW2zq8/XYq0tzP26Kkq3PNLtbSRHwF973daXmbWTf6tV2sgxrd3RT64sq+xeX7rbKJufra/FZ3ObrqKjfcQhUTOhpktC7P0iEHqWUkAglK8NGi2+zEnq9lVGa9uqPRRKhz/381y5fyWOYT4TukpM0slM7jvVvoVH9rv86qcPYG71RrEMXZ6OJ2gk9dS+rT2eX+hPN+CAlF6lqVuqtjNK0V39FlUDoC0QJxaZUrko6Yl6q0UJvJUKvN7ShGcLSlmpFTxr1pQraXSBrKQkRP6Grqf+C+7RaOlGZ1pFVHTOLQ6jvhvckDUIPnhGpIY1ycnJRssIFsji8eac3VYpZPfWkmmrQm5KSIeZNZSjHwFJ6ylSjZupGPXXno0ODONqftsyiWuEp3gXrTe2aBjtFKpwlGEd2YLgvuE/N528bDt+zATKFop3KVRSHiFIsRrmp2af0FI9GOtCgv0fuHsbW/kM8Veiu4xuwVabrVNOHJqaUVfth1HB3tRfiYFfWCseoyZlaKUr3skRVvRJS58rXzHa1daJWCXO1J9PkulIVu2Q0qkAXzsfxXTiCrRxntbJeVOnLzEFvFIUJ891vw+HM1jA9Kx+ekTZ0cOgoBmQufkPxqkWPZKVEc23qqaaP8H67634H35ZFT6TuUFJNC/j1NSq/59JvXln0tBGlxo2bI31N6ON19809b0Le9eIkUYGXx/FpqziRnlpXWacx+jRSF7WsE5OK9LbkeksuqKLiE8i/dy2Z/XWnlJbrgPUwTM8tZce85+/FKVh3UncG76kVQGM5J4mpU/4eUw9dqeD09BCGevp5bu0kl7tQ3ohycZ8cwtDJfvTzOt1BftqTrGqUWr/aUTyAASpJ3My7beZQV4tpGIU19KIyajL9IYze28+LrOh/Y1qBGb1QgBQmqUjN/O5mXmVH4RHtY/q4dWEew9CBUfTfa/eQKcz92B2UgTW+KQXOh50xWmdOdItcooWg4+EoQGLMlbPQglqARNvYRfWTbUspbl7sfpjFD6qy0K1c/UnzbRbXqNRCt/Nyu/GOqzlgyqgk2Gi9yQ2WuTHTalNrYzfd6hFpODfj6trWCnL0BZvlSLfIvoTKzsDckh+PvIRibcq/lX/fxFgfWzoLPa6NpDVvV+Yzi7pExXkcfes/FJYHDklerSio6D9eUjX8LegX2AZdFM+KL7hlbOC8RoAtX8lZEgMZVYy0kQND6L23H6OW9a9ioModr22JoQO96GeFbVIXVPGvg9DwMMq7hvMRxztyg6duAHxclJKcq3kshtAHoFapko3HE3qcAtN3MHrbLkLXBcqs16vvSuM2C0HPLeWcEi7NZe44L1RdfC53XwVBcVYFnpRd1Iq7GELE7RFWFe4G3WoO7UttAdnjs3bM2njMBRbYP2Gbou6vVSbQxMxRqjeRgJP6YeCe2J5V+tY9NqE4hMdFV5jhClEqUlVG6O4+qm14+hSzSRQ/6e9Z33HIjCk3mhxoytPelJqyFneG7ty4hRW9XPglYOAai9JfV0lddX2kIXTXM/H6yVjIHl0U325QPcwsB2wQmTpPWntePeTCM/541DI87jG9BNLL6fFMuvRkAFG8hW5uqBVcTUJPIdNJxqm+BkSlOS/v9Hi4QTNcUyr0Gh5L5XJXXQXxIMQJguIqsVJiOgjdW2JUABu5BqPRS4tDdfGq1dt8/25Z6Fb70kJ1jE8RTu5eMcp8qgSQHBSnuohirDDTxcQGIDF1LJbKCF2v8uMmdGlhuQkrUuCM0B1Vg0yPijHXTstDVrsLqoaJOZPz4uhHnQjdqjFtkoM53xp5OspNqsLmcT+rVeV0Mk5oj7ftXoMWaan99ihYm8SVjUz4vm1BmZglErqGoTqXyWOxdJ9zLFE7nNDDClvK28H6SU3o3jZEPW9/bfJgi8U9maKamEtvaeNS+2bJm7phZ0eX0XrTxuIlUduNLr+tVb5UOuQi9Lh1Iqsmhltel55MRehSvoMjKdUadhG6Q69YG57UNczFvPp5xy2r6TinBgY3Xk0OinO5UNVdYsxuXf+WHLA4f1ZrPsszrdCSiyUl107JA4jPKo+x1ivesJiEbu6gPTtF0WPHrk4VbGeZzgQrugkIPSIPIzZCTlOSV0OeuytYVuwZqhOh6zty3fKYKws9nixcikXf8GgEy+YkhTUTnQ2Lc9uoD3Eu0UDKVS9Q4ibGJHTTw5PCQjcVeaJXJdIfqQndXOdhEwleGVNVKbrI5T1QH7fmzVxPLOZIGbtF6A5PmOm9SUMttVrocd6y5DP0cFsgCHYzq61uH+WkkWkLT0dgXdQfQeiWPggBi/dqiP6ox8xpkK78GTeha2e0DmXgJXTzDFEoQOsMHcxtOQDwgDhxFqK5ZhNIyTpXY+/fM4r7n+wHDuzH4Tt2B7W01Z25+9+du0dlfCKIJJ2Fvt486w8DZ3zWtqEM9x3Gtr3ifIsLgGOHaWFlnlHOAaEPHFTGZwiuc65UN7xnnOaiN/+3Pi+NsND9Z4PRojbPUs0Yk8pc7nJu1c2uPu40ZBF4whTrxZwDmxgcrkwHyYu+ANsPbuFHDsLj5Drn3RLVT5feJC2mwzhD91rowvrcqmxspcWTVGc9+t0Ym7VG2Td2YPS+YXeMkGNzKYNm1WPDqI3kORrz6Kj+QC+62w1ky2GhS6/M0Z2HgLujozWX7KhxEvIMnW9M+5U5U/RpFNUSkYtFuhZZJR0N2etGnqGLILKoL3K+hbdgBPv3AbsZgct58QRbOs/xDZmujND7guBeH042oXvnuadyok77hsdCN9wwmos8cp3zReOIclfdDPBFuWtEZJy1piAl7RtaFKvi2lcjpL1RqSZU+thFlLpUQPEu95CIw+ja7RjkUY8po9w1V3pMlLv63M5BDG4ewIC8RpICO3XEdlBcNS53GdHLWrb7rc+VHnGdtHFh0eNCOetHLfq8JBO6GtnsJQMlit4X5W6/q8tbJO9c5cS7Xx0WgRmBXVF7IcE+hl71poIR5e229EzXq2MTGuATbcTdXiYtWnznIPgNhoQo9+iYwcRM75e8BZEU5S5vTXBIzEhlZZ7Zz7pr2dBvisERyaIMwooq69k3PxgB+dSwT0fF3bCJI/Rg4/NZfc5sS9jGUhhU5k2UuKBLvY/p14mJhY6BFaAZHK1tHxrElv6BMA7Hr/clBup8x8t0pYQej5PLQvfMc2xcVVrqdj+X7HKvrX16u6URSLZGWnr4TTm4BNdfU/a5kk6RzFWCFj3bfAh4j07q0FUi9DqAuHCbIOXafHPfWoTOlN8TvcOhtWsf4TTfDFCPCIE4BJgH6/CdcR6c6vEjQq8eO3ozyaVMCM0BAq1F6OFZaHi7IcEdPAeI0ycJgWZBgAi9WWaC+kEIEAKEACFACNSAABF6DeDRq4QAIUAIEAKEQLMgQITeLDNB/SAECAFCgBAgBGpAgAi9BvDoVUKAECAECAFCoFkQqIDQZznYJibfb6XgxWUmqrSthj/vvJvc8K+2/AcaeVUkAm8+RP3Xcx03x3jTzK12N966e96q4u9K6xpfxbERSKSZn/p+15+Bs67faUJd7SV0mwTrqQhSwEqEHmS7S4HVHD8yHzZMs6NUTIKrUbHUQWE0dh3PB0IPkntoybFYv59A75My2111C8hOU1pdO417y87YVo9rf5Wu99lZeyqKNa472VTS+kv63Tex1b6XQlAWBKGnwIEeqQGBShd4DZ+q+tXZUSpE6FVPUA0v+ufWkdK2hu+Yr85HQo+rH5EWmkrX++ysvbS9r+C5RhFvo9oF4CR00z0l0l3KSj6iuApLg2in+fSnNJSTKovJi1R/MSlmpYXOCg6EqVTlHVQ7F3BckQFdAKWnQR2HfbdVxUCr1fyFXpHKsv9QkJI0KGsYVl9ypF9M8Vv4DU/xilM3PBZWZzLTj2rz9cgRMIy9qTHZtGmpL3VMtVKnZj5vNeVsYPG4ZSXKzy/khP2puEjiU1PGit/Bc+eLN/RxJsuKOS/q0rWVipGyNeyfmwTsFLlyDaj9VAi9R9QrEPW0gvGPAFvNAg2+xa2lAVbTWfr6bSuqRqxj/StyvKJgi6xEZVVnPL6LyySbV5ni00wPK2t0h6mA1XVvVmfUsHkUg0NHMeDKcZ5GcTqeMQlLTTfqSkPMZ5frM5n/P5L6sAoiBy7QPWpaXp6WdhsOK5W8fKlozTXh1qma1HtKfioFb0w5s9J8K2mEdw7iG5sH8Ilgfer9Sdb9ehXBoJ+xet6BmUzjm6bfr4n8/OwvLmWsmeuA4w9WTEWZRzN9cKhHo7oEetpmT74E77o2j0eqOxqp0EJnSkx21FR8Jsm6ijYcUvImm+8b7iGzqIOsVx0UauBJ/K0iMe6c6Tahx40j6BfYQhOFUmQRg76gT5bCMosJyH6dHML+72zDbp4v2RivVShgCKP39qPPRejK5sGs2mO50Bx91JRw8HukNEYwdKAX/XzDZlS2UvtolSccwlBPv6eghb3h0vsphdeQpYOmYpTVidLJijdHu1nIIcjrbxVBkfNoFSbRj5tG9u0H9gbuWq0wRZKF7nGBOgtuyI2XrTC8/bY5XSgyrTKYVLzVrWMXoQ8cVJSPqzpjv7ruBentx+4g+5shK85iLgMIC5aYhUDM4kRqB9Mc2yURum+dSn0kayiw73qKlEQFUQLstfoWTBdF+OnrpFKdagqALW9asZuK+6uQo1Ftzr8m4nPQC8z2ROWfDT2/XtbgUAk1Vb+NMrI+HS3bVzYyslCMKLalrj8DX+13E2upVx3lbax2HUaENUbH4nb8U8WEbllwQUUwi2CDiZGWoqVYLKVpTLzjd2FZBgDzykRxVZui0boI3TcOMYmeYipORW+QYMz7mpXomzAXoWuLRyUN1xmmvYjVeffXRnecO1mErihWpVGnRWOVl7T7rZYijD3rPckWPaIKXiZBu2TFEHYVe7fLUO2fgUUsMahkn0TotVVjS+63vcJ9hF7tOnYRullS0qo57S01KlrTZNIxl+rvLvn1unTrRujuspeVlxG115jltlf0h6s8rzr+ZNe3IyguJEaPntD0l/ssOvm7+gY41uWepOd7zD6k7bckdMcY1DHGyUgVhK5Ws/NSsGUc2frNWhfp+Nztcg9dFNbOXq/EpVbKEmXvIgdj+P1g52NNqul6kC+oLhWrfKhpKWUC17I8DohcLOr43S535Vl1UuMm2PrNdH/KrwY77qAcooaKVdZS/BpazB6Xu7salTtQ0U/arg2A7HMCoYcWSHDYEpa+NUnKtyNXF6KonKbW9Y4lHtP9lUpWDOph8hlYwm4FoyuK6BlRB1ntq+nKjuYvmdBDtytzB7KNirNEbtD3RFngKzW2TnPsRkmWcVTkOmkduwjdrM9ubZ5MD4Rr7UsLybH+Inm25SbUVV6Xu6/SoRtjl+5T3bWqO9xF6Fatem0O7fXqJnRhqPD66JXoVEvpx8mGRxck9NfNDUqlM6UPEqtEQo/V8yZmlfY7XkdzjFN7yAyALcJXvuVy0cvXXYTu0APVxGhUaKEnEHrMTtxN6LrVpcHlIlbT+pXPsPO2GMVYMaEb1mDYLw+ha9ZO+LDHverCSLXWEz0PMZYk/3byIjYtKtHlFISuCWRkrVdroVdG6BXKirH2KrPQpbt7FLte68Vjqscm1kuThtAji3TX8Q0pYh0ML1Ss58PS6B6Xe/XrOA2hW1akpjATrNQUhB7nEXD1zy3v6QldW/9KDER1Fnr68sScbCrRqVUQuoWNZaEbsuKqD5/guayY0GP7UAcLXcEp1ttQkYWugu9woas/zwcLXbiqdZfsyL4dGL1PWML2pLrPWcPKSsEuPjoXdYHE/u3TGMYhbHnAX72mIkI3z7rNM3Rj46CdSbFJYzh8qRfDe4VlFy0Y/fwMB/bj8B27g6ANZRdaEaEHO+MgrkCc94tdvfc82XL1y7OeoN745iMQ3gDjnFs799SJy2ddW2e9oXKyd9nxruEUshJn6aY9Q7fOBTN47Nh24O7HIetGizO/aHMh8VaDPKONittlyWXkgWHg4BbsKsdcnfJYAH5cayf0pHXsIsyBg0oAkCFfvnUfboLNM/BYQpcBqFui4xdp7asWvhp4aOkRuemV19bc59R7AgvLu057grWX4gxd1wHpCb0/8PCF8QP8eCJOp5rzH++98Z35x/XXaaHHrol0Z+h+Pe/wQlo6zD6/3p+JcPbraKbnbN1S3Rn6CPbvA3Zz3Zkw5tRn6DFGjL3U+b/EJJaJ3Ad6lLvHVS3JTInsVd1T7l2a7g7RSChY2DJymffW4cYQClVZ4I6BVkbokZVrRe163PHeiF2prHifgmjckDQ8Y090s5pkqJ+TMQwTLT/N5akoY62/2zE4tAUD/VKojPM4KxpWRH1Hc2i4urS5q5TQIw+CjDt1yUoYKe2TAYelGMaxulxkluIQDes3IAaxpX8AgqA84+JuUzvKP815W/gtK5AqGGSca0/0lgc7RnPjOJ4y5VqTA+U4yGMBjj6g3lbQn3eue1X+dg5icPMABiQxJhC6iT/TCVxHyLl1zpnpdjUiiI31wKPmk9apoe98Ue76xroylzuP0I6Zi1jLV9BK7HEMf8Q4/kjqb7ACDJlaH7MmUhC6cnOIt++KtFci1qvpt1dHG2uEa2p5Y0Fd6ymi3NWjGX292wrJXtdmvEN1VQUryBTn2RLM8T9Xc84wx11u8Ofjzskb/OkWaz45+KfaAXss92qbo/cIgfmKQFzMUrVjSnKVV9vuPHhvfhP6Ap44KVuMdMJjitDlHu+xmAdy2QRdbBzpNm6j0ASwURcIgUoQaAChL+T1NU8JPXJP6EkYKpGkVnm2Pq6aVkGjHuOQ7rC4e+1VfSd0n1bnTqvqm/QSIdDMCNSR0COXd3VJWZoZprR9m6eEnnZ49BwhQAgQAoQAIbAwECBCXxjzTKMkBAgBQoAQaHEEiNBbfIJpeIQAIUAIEAILAwEi9IUxzzRKQoAQIAQIgRZHoGkJ3b6nV+eZqGMwRlzPtLuizRaVXwcMGj5PqaZdCQw0K3Oler8ZH3Kn9VV7ql3ZrMNcNiMK6fvkyc7lSHjF2rSSjSR8yEz3qxY3UpOYpO9vvZ6swzVV5a57q+f898wAABeBSURBVAcZJ9/dr9e8zE07FaR+ncUOWqkEa/+2dV99lhRg4wi9DteqKsHAtRlpwDxVM9OteU1l4RF6rfPoej+MfNY2eikSroSCGCSlsd5XM83Z6VHTynGtY5bJY6wc8s4OuHRGJVikHVXzPkeEHpQQnc0pql3I7d42BaHXFcS5J/RGzFM1ELVmcqFkQtewqmRzVg3Is/BOzfLkyBLn9CCl9pQl5OTmmFQ4TwaONY85yAZXPaHXQY/MgmzU6xMLktBN95KW+nVkB4b7BnBIpsLzpiaUrqBT6P3CBog0qjEpF4MdsPvb640UhWo78jsy/aR5x9e8px2k9mMVvFj+b1bYRRayN9P7aWkRk+426t9xVhpyKBJvukCpoNX+SSvBwNyXZlAK76kbHouqNpl1hbUc6J50tEZ6SJZu8xubB/CJz0bLLLyzbT7rSuOoyVAvnmB5l+W/sSZ5H7fh8D1SbnzpR91ze/+oqKB0BFux9bPyXfNZhywaKSj5mO44zGsUBDXxtBKuLkJVUxUnvp8Gq9d2YXSTSN3K/rzVvixCj0vV69nwyvl0yYgqh1oaW0lo/n5q6UU9RyLeda+krg0Q8M+BVWAo6BuXLaWuteVZSpeG2U0qrvEbsuXRkf4xq19Kwjcu3TCXGIGXS2fwwkNStpVnwzoOsh/6eKReUdeXueZCWVUrJWr6VcU8Pi+DN21rnI6UXXel9fVVV6vXrmEO26nA5a4XFxFl28cwtO8wtu3tR1QYRGYpkwolEgbt3MqqODOEoZ7+qJCLWijD3HlrC9IoIuIB02mhMyI3SDIshBD7TfMjtltOJvjn5SilALnytCt56LXduhREX/9c1dFcu3+tUIthcRgkMLJvP7A3KBZijt+3GYmbJ6vQjUuGzH+TCz2Sm6R8/ebc6gVTAjllm4Ow8IzMYa3UuQ7wtjYmRv1ob/71St+3rEnTGpQ4+Auf+M/QzbaSi3Tsx27svl1anFsRFoAx5dA6f07op1FsCE9H69xcRba1Ktq2itHE1G7QMAmrdt2PUaUErm6lmd9QLFa56Y/1Uprjd2Dv1ZF26WHHVivIm+6TA4PQTw5h/3e2Yfe9XCPzXO6RzLqscfPfHF4JQ1bt9RUVhdIMGVbDINzAqTiLQlBqEZihA73o5302/rSiUMZcJelIpw4bwKGWibOx4aqY0N2lQoOGtbJ3DiWi/u4JVuHql5GgUZlLL/OnurnSnQG5CV2vZhOVfTQFTio6z1lZjLvTf4buWFwqPo7zabUspbPcqYvQzfKLaruxblrDlZhI6J550GQijUJxVLHS2vBYl0rVK4sYPGf9Gp4eq02V91h3XUXvm5X4XOsn+bzTS+iO8VbiaozHRRYMkRZvQj8DD4daMcxnwJjz5nZHJwSBKTKtbqYjrPT69q5vhOPvfSK+Xj0fiGP8cevKkOVkl3uSHLhrxEuMXZsXXYcb7adYK95YBVXXOPSFqV/TFCeyTKd9majkcIKO1PWlaKmSdTCHhnbVn66Q0E1Cs12ekVvdsfBMxay4Q9Q0my5Cl5XP1JG6S1a6sUhzhm4JHD8m0P9cUaBxQpJE6GG1r/AzgWV6MjgSUKyDqgjddC+ZmwbF5W66AFmXwvGmJHTrLE97z9gkhAqxgpKSrAKV8ee00NVxexRsfJS4rUhjla/1jbj3xXFC5VhFtdRZOdd4Qrcly1WtkEOpuSUDcNVypFZpWnUeXXOq91NtPy6drpPQLfdowgY+lLfHgQcUjMP5CY54gupd+pGXIlhs/PeNYsem0fgSt64zdE0W4nRkWgvdNiRMXRXKkuVaV6tUpthQp1grLn1n/ZuH0LeGG2/F5R5XMbBC2fTiEkwtEXpIKPbCtRScNokpCF2uH8NaT7bQVY2e7tpGNYSuewX8m6Y4RZ9E6F6Ph2Nh1YXQ1XbN/67U+bYsj5SEbmFmWeimcrLlypqrhCCmVISujU3MpWWJOuIJLAvd9HhIsaiC0CvHSpf1Six0v/TaSj5+oyMtdEl0LkL3rMkYr1xoPSn4VmWhh0FiLKZGlbWgn6wk8Fd7IUvtxlvIabx/jvGbXoIYyzWdhe42pASJq1jb/dXbT0noCWulPoQuJdLh4g+FtXLZjPeyOrx/VdvCzfliTRa6KYzCwpNnnwmErp2N6M86d+raudkI9t8zivv5ZqMRhL5euGa837RsROusL80ZOsfrGAsAEzEIvPbxl3oxvLdPWE2GZVQVofcfUgKpHGdQ8huG+0paLuktdMe5tFWPeY4sdOssUfZVOXKpiJCD+VLFoNL3zfM9J1ZbsUexXkyZ9BOvMc+Bq1Gtyhd13VCa0sJTLfS+PUqde89Zv6+fMevcXEU2ubnHER3HuZVqaHVrll9AdtgO3P04mIeD/zk2GSP7dmD0vmEezyO9C7pngbUVc20thtB1HZnWQo+TgzhCD6zgEIcUhJ5irdRO6MD+fcBupudi3eApZDNGR1o6XFr7C/EMXVpozHGnRblrheZ1d9KjQ4M42i/P1pIsdMMVpYDsPaNhQRb8T42KTEfocuGyFjhJOQJezDMX3R2XVCFLcSEprmq/hR5ZiSwSm//FRqAbFmVYKpWPyBn5K78to1HZJzTFZJCQ6nLfPjSILf0DUC3U8Pegn/yM0nlGH7l7dUU4V4TO1YYIEAqPUQzMKiVkk0uqed9wJzqxUqP/jVsiaY4M5EzEVo5T+7FzEIObBzAgXaPBuNTo/SjQifs5wBOraP2012eIe6wyjdZQ1F99XXmPDdT5CEga7JaCEmhlbVLlO54odHPTo0g1BkM9GG+hS4NDjl/XkRI/cYvBPUfp8HW73B/F4NBRDJheD65H5Rz5z+h9a6V2Qu8LDCaXPjcWVgrZDA0i0+smAzgV/crleCFGuTenQ4F6VQkCrX5eVAkW9GyVCMQFePEm3WfoVX6NXrMQIHxJKNIj0LSpX9MPgZ70IUCETrJRMwJE6DVDWFsDROi14bew3iZCb+H5JkJv4cmdraERoc8W0p7vEKHP8QTMq88Toc+r6aLOEgKEACFACBACbgSI0EkyCAFCgBAgBAiBFkCACL0FJpGGQAgQAoQAIUAIEKGTDBAChAAhQAgQAi2AQEMJ3ZVL14+Zck/4kSOiUpaSn7uxWKe8y56qE/Vsy/fBen/DdRc11WD5Q+b9dEeJhfSNzfGTyZm75riDxudbMfDRyhTYXJA3T28SMig2T0epJ7OFQNMQujPrXIMI3Vba9STIerY1DwjdU8xhtgS43t+plNArfb4h/W1Qooy5GhsRultKrPloFKE3qt16C7+3vdoMlFnrZgM+1DSEPpuLmAi9fpI0V0q/fiOoraW5Hn8jLfS5HlttM9N6b8/afBChz1vh8RC6tDJZgQOWllBPE+hLJ6mlSg1SSA7foKRf1FJd6jnf1WpqLDXrtr/NKC53eRdzF0Y3iTSJdrpTPUWkL9WlWVFMPCdLEJ5C7xei9KB6ZTV/qlp99g0L3cyNbaYgDVJh2rnjHfnGww85vABmVSIzxaaW3nI7BnmqTrXAxlYtzauaKteXWtaJZVByUqYKlfOgp9F1p6BV04vy94LSmyJBZHzqXX+a3jSyE82grjQlzqpcRHXa3bLEDhx8suhaV7JWt/sbomd+2U4kdOeaY23O1dj0uTfTE9trP6q1zXptp8eV+sCXOtU3Vvv5RBmS6W3V1MdBOmo9VS0rpqLqKqVqIZ/PBF2irVUh9+B1MiI5jdZHkGqbVWc0i6po3rOU+svUI2E6ajN1crQO3OyXTh/Ld/W004IzfIZXVNRI7VPQHwxhx6YByKSyqt6ovw5KXpcy7barSmcjdg2xhD5wUFWiZqEE3a1hEVIgGKGgm8UoDFetaaHr/1sCJ/vjLhBxNMzdHO9y8QnKwEFDWYeFU8zvBYUe7tZzRYsJUsi2RwhXVAs6rp1RXuDFzJ3+mLoh8hG6p9BHVG/YnDu5EDz5nIO5i4RwBEMHetGv5MWWXbGwNOc9zDm/Rck3b/THKSt7lNz2Jm7GUjg5hP3f2YbdvH9u2Yg2pfFtuQjdLxeu4hpx68TEXVXuPtljMQr7gb27wUtZGHMdS+ixa072xf9de53UPjazGIpUsqrCs3LUK0Q1dmAIo/f2oy/Y5KRb8/ZY3f2IZFQfu1nkxN5sm/2K5M2cswRdErP24l3ups5TdZQwWCJ9EKe/zHr3ioxuPoJyUFDFlEOTnOJk1mUADSAqUiWx7LVqRej91jliDEMHRtF/L1sltv63DaZadVAaPlQLYzWCvu02YwldLe/ocvck1Z6NL2WnZ0BKQ+haqdGYikbcptmXgZsMXUrYIeBm3XBj9+tXpLoVFikct8WttmNvYuw6yNamISifGFuK05XtS9tQ6QugkmBGN6ErVcwci4uPQe2TdQ7vWZApz4r1uXFs7mKyn7kIXcNWKwdry1KadaLPVYLsWWtWXzdJcqh/S303+bvmWOoyNhlEGcTH+NoMA2KtzWqwAhyFgfxy6yawaL3B2kwLwo/xYHn65SITucnkc8E8WDG6pCK9ZbjGNf2h/uaw3mM3gqbL3RMnk15PxGS7M9aTKu5JFrpVrTJ82VzzHgOvBh0UvxZc3oUmIPSwgo9W2cvoGHftsgVhk49J6KpbXbYid+bJhG60bxJ6WIlN6Z+nspNPUNTxagvadEPJT2jlGUObNarqZf6e1I4i3Hx36iUw1eXucL+zriiLctt3HG15FZanPY88Ogndqivu2JioSsIiWA+h+2qRG9WyeFe1kpF+2TEj8t0ud1Z3OgAgDaF7ZbGXy4YmZ67yv8Y3TNc+64lcN0mE7l9zjnmejbEZ5TJd/Td1geoq1cades27ZTr6tiD0qJqaFHbpvXATkqtfvmI1oS7khG5/ScjrNhy25CNaePEWul6nXtMfSXrHXNsuQjfKlEqjyXcTKU5mtc+l3lxHngK3y932JkcGoGdDUYMO4pUmY+QvdsPUQG5POEOPFJlrRxL1y7UDsl0+lhWpDKxmQvcpewd41RG6anXGzYhxNmm5qeLa0d/VFb+2d1WIweM+MzcHzjKnsi/q/CW444yhpyN043zeZaFbmwD9Hb/82f213aWzTOheWXQRSwKxJngvkgjdv+aqJPRax2Z4z9IQeihyilXMN6mp17yb0CODwz7u0sU8xsKUstx3NCip6npW+T4r22yedYcfi197iYRuxEWE+sNjYXu1WK0WegqPmz6nbp2YZKGr/det9Sot9Ap0kLN0tNKhpid088xJ7NB2YPS+YfT3BHeRwzPnKJBFD4oyzlHvGcX9T/aDhxGxoA/lmlqi+1nd2QUWWnRWrffNFNyKCd06rxPje6J3OLLcjEUpFlNw9hZ6CsxzF0c7fFxHsR078HiAjb3wDAXlOUMPlbmFjxmTYCwAq70Kz9CN3bywZOwz9HAHXZOFbipB87zToWBTWwWVk178Oqmd0KVVmGyhyzXoW3OzNzYtFidFDIC69scO7MfhO3ZzHaNZv0HwU7o1L8/QFSvO6IflvmVr5ku9GOZnxrYMefvVY5+36/KfoANi1l4yocsjIGD7wS3YVQ7iLirSX5WcoXuME4PQTZnV9ZkZU8DGEMRJmFgEnoYwkHnfYWzbK/hDO8Kr4Ay9ah2UwDnNT+gMNMO1mRQFziL81HNs1UVlRi3XROiJfTMpURKajHSVUe5+12pcpLFLQCPr2kUwcZG59oJPJPTQSohceVaUv+Z2exRHXuvFY4lnhLI9f4R5soUueq/PvRH1WxOhm3L5KAaHjmIgtN4aS+iqXISYe9dJFYSuJu7hUd6D2NI/EAZPJikO/5pLJvT6jU3elmGSoEdHJ1vo0Vrlb4eBr0n6yOXR8vdDGChKJLl2XOayun39Cp6VEfG8G+b6iRmTtZZtVzJblVaUO9/wRJhAxYn/kPBNQ8mEWHij3ONvnahYmjLr02fyeEidY21OHhnE4LEBhIaKptMccsVd4lE/666DYvgwaV3aGNTnXxp6D70+XVxgrczWHdAYK3WBIU7DbRgClcVjNKwbrjiFhn0swT3fsO9Sw4QAQITeZFJgeirq070R7FeON+RuXYvAr8+HqBVCQEGACJ3EgRCYTQSI0GcT7bhvSfeRM3K+Dp00Il19iXfq8CVqghAIECBCJ1EgBGYTASL02USbvkUIEAKEACFACDQIASL0BgFLzRIChAAhQAgQArOJABH6bKJN3yIECAFCgBAgBBqEABF6g4ClZgkBQoAQIAQIgdlEYGER+mxdCZvNGaRvEQKEACFACBACaPFra2kyK5EUEAKEACFACBACrYBAS1vo8fnnW2H6aAyEACFACBAChIBAIKE4yyn0fmEDXCn52Mv+tJJG+sPgbrVaoSa6By0zK+3C6KYoJWpSWtmwLi/riJaCT6T6g5rG0ZUq0VFSUNT4lfmJZf7nQFQ8ldtIkAgBQoAQIAQIgWZAIJbQBw4q+XGNZPRmwQ27wtVW7FGTpFgJ+4ME/GGOYV/hBDN5v1GMI0iYEm0AokIi8S53syKPXR1uIKyUVlkFsmaYWOoDIUAIEAKEwMJCIJbQzdKLUVpSUT84qjer1+Ltc1S7EdavLDGogpxQepXXD9ar+qiJ76MSiGZla1l5aAdOyaplRlCclmZV/c1hvc9Vsv2FJY40WkKAECAECIFqEUhdDz10sR/fhfJeQehRbS/5eWnRuwsUqC561aLenzHqVas1kzmh218Ct/634fA9G+CrG54YFGfWDOdj6xOl+LzfDMr1VYs4vUcIEAKEACFACDQAgYoIPbKGR20LXetcQsUhzVp3PavkgIZ6rm0iEO8KTyT0sAqTiBUINwbG8UADcKcmCQFCgBAgBAiBuiKQcIbuO9cOagcfY1ZyYLEya/dLvRhmFi53uetW99iB/Th8x27087q96u9mvXAZbLeFB7dJ971aGYwR9RO9w9h9e1DYXnPlpz1DFzgK0ge2H9yCXfx7sn9b4f6meaZf1/mgxggBQoAQIAQIgaoQSLDQjwB90rWuF5DntKdGkmtVwlxWd0DcQTetKPeRHRjuGwArSa8WpReP+94NGtNc5MomRHmPf++Ow9ixaRg7XhsONhZRhDzY7/eq5/C+bxKhVyVp9BIhQAgQAoRAQxGoyOXemJ4kuOcb81FqlRAgBAgBQoAQaCkEiNBbajppMIQAIUAIEAILFQEi9IU68zRuQoAQIAQIgZZCoKVTv7bUTNFgCAFCgBAgBAiBGASI0Ek8CAFCgBAgBAiBFkCACL0FJpGGQAgQAoQAIUAIEKGTDBAChAAhQAgQAi2AABF6C0wiDYEQIAQIAUKAECBCJxkgBAgBQoAQIARaAAEi9BaYRBoCIUAIEAKEACFAhE4yQAgQAoQAIUAItAACROgtMIk0BEKAECAECAFCgAidZIAQIAQIAUKAEGgBBIjQW2ASaQiEACFACBAChAAROskAIUAIEAKEACHQAggQobfAJNIQCAFCgBAgBAgBInSSAUKAECAECAFCoAUQIEJvgUmkIRAChAAhQAgQAkToJAOEACFACBAChEALIECE3gKTSEMgBAgBQoAQIASI0EkGCAFCgBAgBAiBFkCACL0FJpGGQAgQAoQAIUAIEKGTDBAChAAhQAgQAi2AABF6C0wiDYEQIAQIAUKAECBCJxkgBAgBQoAQIARaAAEi9BaYRBoCIUAIEAKEACFAhE4yQAgQAoQAIUAItAACROgtMIk0BEKAECAECAFCgAidZIAQIAQIAUKAEGgBBIjQW2ASaQiEACFACBAChAAROskAIUAIEAKEACHQAghwQn/mmWfKt9xyCzKZTAsMiYZACBAChAAhQAgsLATK5TKeffZZZH70ox+Vr7vuOixevHhhIUCjJQQIAUKAECAEWgCBK1eu4MSJE8i8/PLLZWad9/b2tsCwaAiEACFACBAChMDCQmB0dBTMSs+MjY2Vz507h9WrV2PdunULCwUaLSFACBAChAAhMI8ROH36NCSHZ6ampsonT57ExMQEuru7sWbNGixatIjO1OfxBFPXCQFCgBAgBFoXAWaNX716FWfPnsX4+Di6urrQ09OD/x82zw7s2w6rkQAAAABJRU5ErkJggg==;" vertex="1" parent="1">
          <mxGeometry x="877" y="39" width="500" height="356" as="geometry" />
        </mxCell>
        <mxCell id="VqGsNGX4vfgdfjk8QoRv-94" value="" style="shape=image;imageAspect=0;aspect=fixed;verticalLabelPosition=bottom;verticalAlign=top;image=data:image/png,iVBORw0KGgoAAAANSUhEUgAAAfQAAAEgCAYAAABCeYGzAAAAAXNSR0IArs4c6QAAIABJREFUeF7tnQl8VNXd938z2RcIgQAJBEIEVFRAwQ3ccavWDXAjtC6ldlOrVftoBVfA1lZta2trpVarJbQq4K7YSt1YrCwqoihgCCCEnZCQPZn3PWfmztx15s5yJ7P85v08z/NK7j3L93/O+Z3//5x7jsvj8Xjg+9XV1WHfvn1obm6G6p+VP/P/kgAJkAAJkAAJdDMBl8uFvLw8FBcXo7S01F8alxD0lpYW1NTUIDc3F31LByArKxtuF+ASj4n/JSSf/zd9OYh2wDbAPsAxgP2A40BCjAOdXR60t7Vj145tEPpdWVkp9dvV1dXl+eKLL1BS0hdFxSVo7/KgrcODTmE4Gi8hjNftdqCgsy9wLOBYwAldwowDGS4gO9OFLLcL+/ftxp7duzBixAi4tm3bJj300oEVaG73oKOLo3fCWK3blVwZxdkm2Cao6FR0KnqijQOZbiAv2426rZu8HvratWs9g4YMRbsn0yfm3bw4wOxJgARIgARIgARsERCinuXqwJZNG+FauXKl59AjR+Ngq39vnK1E+BAJkAAJkAAJkED3E8jPcWH92k/gWrFihWfIYUdrQu0eeOBS7YLjf6c3D29z9YZc2RbSuy3Q/ullf/b75Bj3MtxA7ZcfewV9wLDRppvYlXmH1eoZ/66WOuPqSqrwMVtBT5W6sW2brwzTvunRt8Nt/2wXidsutm3weehaQa/DgmsG4foXdWGES57Bx09PQX/D5nfFa7PaLqD7+7Z5mHbEVXhdJH/n+3gFp+DCB4Dz/7oFf720FLteuByjv7/Q/98iUuD1CmymH235+L5uK56XvHnHp23YNtk3U3ds4pibTOOeX9DLho5SfWi+E69PK8d1C0zWBS55BqufmoJ+Ee++XoZHi0/Fg0rSd32AN3EyvjUTuPCprXj8kn7Y/+IVOPLahf7/5s7SRNhZauajc9cz22YitE22Q7ZDtkMx9dq+8VNvyL1s6GiVeu/wCfpEPLnhBVw2EMD/HkDP0+4CMBGPr30OFw6IcBPAtn/iR0d+F69M+gfWz52C/h4P2uFClgvwdHnQ2ObB/hcvVwm6iAfwRwIkQAIkQAIkEIzA9o2+kHvpIToP/fvl+MGCiXjii3/h/P4uIOtD/KXHyZgJ8W/P4bgPLsMx172I8+a8h2+/eipueOk+vLT3TozFdrx47WDc8FIg2/PmbMGcyf2BFb9C+Tl3a8pz3pzNeAA34ZjrFkJ5bv9LV+Aon4f+54v7ycjBrvne/JTf/73Vhp8ey1lZ/L6JpIceP9b0OOlxcmxjfwt/HKj72uehlx6i89D9gv4czhdO8opf+sR4JhYduAMD51/uFd2JE/HKwoUAZuKNvafjv71Pwa9NphBSrIc+jfIJwssP/ESY/Ze4USXg/bH/JV/aT23Fny/uj5W/ycLFv9QnOhF//Ow5XBJppIATPRIgARIgARJIIQJ1X/s89H6Vo1Sbznbg9esG4Ycma+gXPr0VT13YD9tfvgIjr10ITHoWX/2jCv3hQfv7D6DkXOGBz8S/m+7E8QLU/x5A0elCxO/Hiw134oy6f+I7w78jQ+5f/WMK+nV1Ycvzl8u0LnxqCx67qD/qfWl7/7sGj/c5FQ9gIv663hv+3/HcpTj0moW44MnN+NMlpTxiPg4n9NI/p78Qvr9AP5t+NvtNPPvNzhqfhy4EXel+LuzE69eVGwT9wqe/wbOX9kNDK7D/ZUWEt+KvF/VHKzzY9dIVGPu9hcBdH2DXzcejWUht9oeYI0P19+P1Pb/AUTv/ietHiDX0Z7FmzpUogkcl4Fvx2EX9tP997H9x/cjv4hWTWZTw7sXzyi74QPm9O6/5397hJDZ8vJIem7RoG7bNWLZNtien2pNT6XIccUaj/ILed8go/3Ta5dqBN3we+ox3OvHz472zLE9XFw60eOByAWKde9T3FuLCv23BYxf3h7iANefTX6F0gvDQ78fC3XdgjOizH/0KFd/y/tvre+7AkTv+hRuO8Ar6p3OuQJEHOPCK19sXHvkfL+yv/e+JtZjT62TMwkTM8XnoyqxXXR55AazvD6J8/O8Y8/C56GTLtsW+FeO+lcBjF8dUb/gzWca9XZt8Hrpa0OHagTd9gj797Tb84GhjTLdeJeh/vLi/V/Fz/ie98Vlm3vTTW/Hkhf3QbCLo9a9cgVEqQdf+dxnW/T4T587UJXrxM1jxtyvRN57xjHSOnzHmztgh+xrXENJ5DEyC9u8X9JKKkYFpiGsnFglBXwhM/08rrjva5/Iq0xSXS4bFR0sPfTP+cFGp121xZaBHXh0WfFf7Dbvw8m8d04n6NgA7/okbj7wKr0x8Bp+IkLvHg/pXrvSltQV/uLCf4b/z8jLxyYMZOEct6qr3/dMnVfm85TGWm/8eIRcp6BG+y/fYFtkX2X84Djg+DuyuXeP9Dr2kIhByF0JYmOuGuMGls70TDe1GDz0n2428TBc8HV2ob/OovBcXCvPdyBQC4JvNdXZ2ynV3+d8ZbhTluODq8qC5pQviPpicXDfy3C4Z0q9v8Rj+W7yXl5OBnAxVOVTvc1ccd8WxDcShDSSBh8J2wHYQ8ZlnKdC+d9f6Qu59hIfu/ylxFeUf+N/eGQt5BGKOZOElwL7BvpHKYwP7eTL18z2Kh967Qv3ZGpcLU2CyFlNnhUvo7BPsE1xC5xJ6Yo8DexUPvXiw2kNPoS/tWRUSIAESIAESSAMC+zb71tC1gs4wIsOIVmFEtg22jVQOMbN9a9s3Q+7JFHL3C3qvQfTQ02ACxyqSAAmQAAmkKIH9W3weeorWj9UiARIgARIggbQhID9bGzt2bNpUmBUlARIgARIggVQjsHLlSu936BT0VDMt60MCJEACJJBOBCjo6WRt1pUESIAESCBlCVDQU9a0iVOxt7c+j1dqn8IX+1aivUscGcgfCaQXgSx3DkYUj8WFFdfizPLL0qvyrG3cCFDQ44Y6PTN6fO0MPLfxj+lZedaaBEwIXD70BvzoSLMrrIiLBKIjQEGPjh/fDkJAeOazV11HRiRAAjoC08fMoafOVhFzAhT0mCNlggqBm5ecj0/3LCUQEiABHYFRfcbjdye9Ti4kEFMCFPSY4mRiagLnvtqfa+ZsEiRgQkCsqS+6YAfZkEBMCVDQY4qTiakJTHi5F4GQAAlYEFh80X6yIYGYEqCgxxQnE6Ogsw2QgD0CFHR7nPiUfQIUdPus+GSYBOihhwmMj6cVAQp6Wpk7LpWloMcFc3pmQkFPT7uz1vYIUNDtceJT9glQ0O2z4pNhEqCghwmMj6cVAQp6Wpk7LpWloMcFc3pmQkFPT7uz1vYIUNDtceJT9glQ0O2z4pNhEqCghwmMj6cVAQp6Wpk7LpWloMcFc3pmQkFPT7uz1vYIUNDtceJT9glQ0O2z4pNhEqCghwmMj6cVAQp6Wpk7LpWloMcFc3pmQkFPT7tHXGuPCy6PGx5XF+DyRJxMsrxIQU8WSyVPOSnoyWOrpCspBT3pTBb/Ane5kdGSj8wDvZC1tz8ymgrRXrwbLeVfoyunOf7liWOOFPQ4wk6TrCjoaWLo7qgmBb07qCdHnq6OTGTvKUP2joHI2luCzAO94W7J9Rbe3YWm4WtxYNTylPbUKejJ0VaTqZQU9GSyVpKVlYKeZAZzurgeIKOpB/I2H4rc2qHIaM6HEHZ43IacOwsPYN8pb6KjR+qed05Bd7rBpV/6FPT0s3ncakxBjxvqhM3I1Z4Nd0sesvf1Rd7m4cjaWSZF3O12yTJ3dnrg8v5/5c+T0Ymu7BbppTeOWI3mQ9YlbN2iLRgFPVqCfF9PgILONuEYAQq6Y2gTOmFXZwYyG8SaeF9k7SlF9u5SuBt7wOVxIS8vS/5PhtuFgwfbcLCpDS63C115TWgv3oX2kp1oK6lD1v4+yNzbGweOXgZPVntC1zfSwlHQIyXH96wIUNDZNhwjQEF3DG1CJuxuzUVuXQWytw1CZn2xDK+jPQMZGW70Ls5HQUE2mpvb0dTcjvaOTrR1tKGt9060lNegrXcdugoa0Sm8c5cHmQeK0eOTcWgYvQwdPfclZH2jLRQFPVqCfJ8eOttA3AhQ0OOGuhszciFzfzEKNo5E7pZDgLZMuOCNoYuw+uBBxcjOzsSOnQewf3+zFGtPfitaB3+Npsov0F64F77HNXVwt+eg56qT0DJgE1oGfd2N9XMuawq6c2zTNWV66Olq+TjUm4IeB8jdnEXepsNQtHo80J5lKIkIq2dmu9Hc2YTOwgZ09tqH1gGb0dp3K7qyWk2F3J+Ix4WCjUcgc38J6o99t5tr6Uz2FHRnuKZzqhT0dLa+w3WnoDsMuLuT78pAv9eq4G7OM5bE7UFnj3q09duGtj51aC/eg46CernZze4ve28/9Fg9HvtOfhNdOS12X0ua5yjoSWOqpCkoBT1pTJV8BaWgJ5/NwipxVwb6v3w1XG2Z8jUPPHBldqFtwBY0VXyF9l670JXdCk9GR1jJKg+7OjNRvOxstJZuxsFhayNKI5FfoqAnsnWSs2wU9OS0W1KUmoKeFGaKqpC9Vp2GnJqh6Czei5ZBNWgetAGduQejSlP9csHGI5G34QjsPnt+WN59zArgYEIUdAfhpmnSFPQ0NXw8qu2EoGe6s9EvbyAKMntg28FaHOyol1UpzumHHlm90OnpwN6WHWjuPCg3ZxXn9kNhZpH0Hrc0rrdd7YLMnijNH4y8zEIcbD+AuuZaNHccRGXPIzAw/xC0dbVizd6l8t/S+Ze9v6/cvLb/uHfR0SP2u9HFUbAlb12KvSe/ifaSupRCTUFPKXMmRGUo6AlhhtQshBOCXpjVCw+e+ALyM3vgH189hLe/eV4K93Uj7sWx/SZIIZ+3/hEs3/EWcjPyMW3EXRjd52R8c/Br3Lfialugx5eehwsrrkX//EHIdueipbMJmxq+wN+//BXOKr8CFw+Zhn2tuzD9f1di28EaW2maPZSfWYi2zhZ0eCILSUeccQxfdHW5Ubz8HDQN+QItA2pjmLIvKQ/Q639noTOvAQ0jP/RvpMvLyMWw/Eo0dLVi08Hk3AVPQY99c0n3FCno6d4CHKy/E4Ke4crE46e9g6E9j8LirS9g1qrvoyi7D+497hmM7nOS9MSfXvcA5q5/BIVZRfj9SW+gosdh+OeGR/HE53eHrO0Fg6/BzaMfhtuVoXl2Q/0azF51Hc4f/F1cNvR6GQW4ecm3sfXghpBpqh8Q6d541K9xxsCJ2N60CbNX/QBbG8NLI6wMHX/YhcIvj5anvzWOWAlPGJve7BYtZ08pCj85HvvG/wdduU0YnFOGn5RegUOKjkVHdiGmra6SO+mT7UdBTzaLJX55KeiJb6OkLaETgu5yufHDEffj8mE3YE/LDkz5z1Go7HEE7hzzhBRu8fvvNwvw209vQa/sPvjbGcukON/4/rn4Yv8KiAlBv7xylOSWyX8/0L4XWxo3oKOrDcOKRuGusU9iUOFw7Gmpw8KaJ7Bq1zvok1sKlysDH+54C98fcbcUdOGhz1o5Da2dzchy56ChfR9qG9ah09MllwP65g1Aj6xiZLgz0dTRgM0N69Ha2YT8rJ544IR/YmTvcfj6wFr85uMbsaXxKzR1NCatnbN3laFwwyjsH/OeMzekdbrRe8l5aDp0DUYMzccNpVPQM6MY7oLBcGXl4Xurr8T+9tiH+502CAXdacLplz4FPf1sHrcaOyHoovAnl12A6WPmICcjDz9693S5pn7r0Y8ix52HnMw8bDqwDnd+eDlGl5yMO475swy3//DdU+W69/jS8zG58kcYXjQKme4sbG+qxeub/4HnN/4Rlwy5Dj888j6Idfp5638nQ+ztXa0aXj8+crYUdBEq39SwTq6zi/B/XVMt5nx+H5bseA1nDbwCVwy7EaX5FcjOyMG+lp14+5sXMHf9w/h2xdW4fOiNKM7pi4b2/Vi790PUNnyJv9iIHsTNcGFmlNFcgKKPT0bj8E/ksa0x/3lc6PH5sSjN7o0fn3k0yrP7wpWRB3fBICAzG1UrLkFrV/J91kZBj3lLSfsEKehp3wScA+CUoB/S80hMH/NXVPYcgSe/mCnXuH985Cx8uOM/OKTnEeid2x83fXAeLhryPXxr8FS8uXkufvvpz1CaPwSzjp+L8sJh0iOvb92DkrwB8v17P7oKx/U9E5OH/hhdnk7csuRCfLp3qQGOIujiD52eTuxo2iw9fjE52NzwFa757/E4c+CluGHkr9Hc0SiXA/IyC9De1SbzEIIu1ujVv/rWvZi46BDnDOF0ylJwx8LdkY360UZmscg+Z0c5zjh4IaacPgT5OZmAOxvufOGh5+KqVZeisaMhFtnENQ0Kelxxp0VmFPS0MHP3VNIpQRdr47eM/h1OHzARn+9dga8bPsMFFdfg4Y9/itElp+Cs8svwp8+m45LK66QH/cgnN+GNzf/AtwZX4edHPyZhPLrm53Lt+qcjH0J54VC8Xvss2rpa5DtCqG94/2x8uX+VpaA3tO3D/y2fLL3rW0f/HmeWXwqPx4NzXi2Ra/e9cvoiJyMfp5RdgCnDfga3y40/fnYHvmn8Gj856gEMKhyGnc1bZb77Wnfi1dq/wwP7h650j0XNcxV1y91ZjoJV47H7rBci/u48WJ0yD/bAWS0XoeqY0cjL8e5vcOcNhDu3N3605mrsaN6eSEhslYWCbgsTHwqDAAU9DFh8NDwCTgm62OpcNfxnuPqwO+Rnajubv8GA/CH4ztvH4IR+Z+Pm0Y9g3b5VOLzXGOxu2YZZq67Dmj1L8Z1Db8P3Dp8hK7G/dRdaO1uQ4c6CGy58uPPfMvx+zWF3yF3zf1o7HQtr/oIuj1ZkFQ9d2RS3q+Ub3DDyQXx78FUy3W+/PhBnl1+Jqw79PynsIhQs/q9IU0wiXtn0FH4z7kUcXXIy1td/ilkrvyfX8JPxJ+p0eH4lhucORk5nPta+NAA1Q9+R36LH+id205/WdRauHToB+dm+Y2ZdwksfiLtr7sXa+k9jnaXj6VHQHUecdhlQ0NPO5PGrsHOCDhxdcgruOfZpGdL2eLpQ2/AVrnv3ZIwoPhazjq+G+LxNeI6f7P4Av1z9I+kNnztoCm4/5s8SwGd7P8RzG/4gd8UfXjxGbqQryR2Anx/9B7kJTqyPi93yH+9+H31yyyA+MROb6n54xEzNLne9oF/576Okx35cvzPxr/WPoqWrWU4+stzZUtBf3vQkfj1uIcaUnCbX9h/++CbUNW+Wa/DJ9ivP6Y87BkxDv8zesuiLPtiDhes/wd7xbzpyCMzxeaPx47LLUJgROGrW48rCX3b/C2/vXZJs+EBBTzqTJXyBKegJb6LkLaCTgp6bUYAnTntPhsvF743aZ/HwpzfJjWh3jpmDI4qPlWL92qa/43drbpGe9uDC4bj/uLkY3ONQ6dmLHeril+HKwu3LJ+GLfStw06iH5adp4l2x7i3W2sVueOHx/+bjG2RIXv3Zml7Qr3jrCPxs9G9xYv9z5U75TFcWinL6yHyEoL9YMwc3HPUrTDrkR3IiIjz4zq4OXL34WOxt3ZlUxj696Fj8pN+VMvoglhsONHbgzjlrsO/UN9FetCfmdTmiYChu6X8VijIK/WkLO71x4H08teOlmOfndIIUdKcJp1/6FPT0s3ncauykoItK/OiImThj4GRZn7+tm4W3tsyTJ7tNO/wuuRNerIk/8+WD+PfWf8lnhMd+fL+zMXX4LXJtXXxuJtbLD3YcwAsbH8PLm/4md85fc9idcuNaj+xeyHJlo93TJsX595/eimNKTscFFVdjf9su3PvR1djTWodrD7sTEwZeKvMQYX+xhl81/BYZPdjfuluukYv8/rbuASzaMhe9hWd7zONyU5/IT0wsnvj8Xvx76z/jZptYZFSe0w/3DrweRe5CeeCLEPU/v1CL/xW8g4PD18QiC00aIiIwY8AP0Cezl+bf1zR/hQe3PYXW/7/xMJl+FPRkslZylJWCnhx2SspSOi3offMGYkB+pWSzqeFz1Lftld7igIJKGT4Xu9VrG9fhQJv2G+XeOf3kEa5yjbuzRR7wsqVhPbpUm9KENz+o8FD5SZr8jrzxK3kqXP+8QfIb846udmw4sEZ+1jaw4BAp0uL36Z6lcsf78KKjMaBgCLYfrMW2phr5jbwIse9q/kY+J06xO7L38XLznBD9z/d+hObO5PsW/YQeI3Fh8ekYml2ODGTg43UN+POKJagf8768mCWWv8KMfPxq8E3on1miSXZr2w78dsez2NySXBvjKOixbB1MSxCgoLMdOEbAaUF3rOBM2DYBF4C+Wb0xuuAwnF10Ino298Ojr3yO9Ye+gfbi3bbTsfOgmKzNrLgeh2UPgfoy9cauJjy5ewE+qF9tJ5mEeYaCnjCmSJmCUNBTxpSJVxEKeuLZxOkSVWSWI3v1WHxTuA5NlV/GPLvvl07COT3Gy0hM4OfBq/XvYd6uN9DmaY95nk4lSEF3imz6pktBT1/bO15zCrrjiBMyg7za4cjZWY79x74DuDwxLeMZvY7Dj0uugMulFnTg67Yt+M22p7G7fX9M83MyMQq6k3TTM20KenraPS61pqDHBXPCZZJ1oDd6rjoZ+094G515sb1etiy7BL+v8J4VoP61ox2/2f4UVjfGPirgFGAKulNk0zddCnr62t7xmlPQHUeckBmUZ5eh1/IzUFvwORoO+zimZRSHAD069Bfo5+5tCLsvP/gpHt72TEzzczIxCrqTdNMzbQp6eto9LrWmoMcFc0JlkufOwXf7Xoii2iPwzH83YOc5/4InozOmZfxB6aU4q8eJBi+9E124f9vj+Pzgxpjm51RiFHSnyKZvuhT09LW94zWnoDuOOOEymFAyAVcXfwsdjR7MfqIG35zwClr7eT/Vi9Xv+B5H4bbSawyCLtLf2LYZv9s2F3Xtsd1hH6uyq9OhoDtBNb3TpKCnt/0drT0F3VG8CZf4Mb2OxY0VN6NHSz08nc2Y91odFjctR/0xH8S0rAOz++LXFbciG74z3VWpd6ITHzSswj92v4b9CX4DGwU9ps2CifE7dLYBJwk4Kegul1hNheHyFPF9sjgRThwqI45dFYfPiONZxUEwVr+y/CHy8Jj6Nu1xpSIdF9y+1zzo8oiDRpPzRjQn7SzSriwYihnDZ6KoowNdLd4jbOv2tOK+51Zi/8n/Rmde7K437Z/VB48MuQ3ZyDatlrDSyqbP8fiO51DfkbiH9VDQnW6V6Zc+PfT0s3ncauykoJ9VfjmO73eWPB+9sb3eX6cjio/DRUOm4cl1M5GXUYCbRz0sb07bYHEbl9gtLW4/23hgDf681nsTm/iJO8yvPXwGRvQai4b2ffJc900HvsDrm5/FjuYtcWOYLBlN6H0yrulzMXI93v3nna4ubGvbiUf/VYu6QSvQMrAmZlURgv6bIbciDzmWaQpR392xDw9s+yu2tu6IWd6xTIiCHkuaTEsQoKCzHThGwElB/3bF1fjJkbPxYs1f8dSXs6UHLo5cvffYv8sLWqZ/eKU8Q72ixwhsafwKLZ1NlvUcVjQKB9sPyCNglZ848lXcuS6uSf3vtvny9rZLD/kJWjqacc+K7zjGLFkTHpDTD1f0ORdDc8rR2NWMjw+uw4eNazDw65Pxye5aNB75Ucw2xwlBf6jiVuS6rAXdy9GDdxtX4M91z6FTdw1uInCmoCeCFVKrDBT01LJnQtXGaUEXd463dbXhr1/ch3e3vYipw2/DlcNuxDcHa3DPR99Fa1cz/u/oP+GJz+9Gv7xB6JPbH25k4LyK76C9s1VeiCKuRJ0x9m+obViHZ7/6tUHQv9i3EvO//pP894mVP4C4D73qP6MxongsPt/3EU4ruwRr9i6X71869HqcWnYB2rvasWhLNV6tfVq+J8L+VcN+hqP6nIiaA1/I0P7CmiekJzu48FB8fWAtzhg4SV7helTvE3He4O/Ii12W71iEf258FO2dLTi17GLsa9uF08oullfEvrf9ZXy44y1585s4c/6Nzc/itc1/R15Gobz3fUzf07CvZZe83W3pjtcdbxeiLvkZech1ZUPsNj/Y2YxTisbgzNbzMee/n2HL6Ddi9k36gOy+eKTi5/Ls+FC/be078VDd09jSknheOgU9lPX493AJUNDDJcbnbRNwWtAnVv4Q1V89jPMGf1feqHbjyAfxrw2PylD87FXXocPTjgdPnI8HV/8ER5ecjKsOvR2rdr2L/25bIG9EE7eDPbDqB/jViS9gff2n+ONntxsEXYTqhSiKm9mmjbgLo/uchBn/m4KfjnwIpfmDpECLPE8bcAlOG3Ax/vHVb5CbWSCF9rmNj2Hx1ufl/eji38Rd6MN6jsLFld+X17VmuDJw/VG/QlFOCT7a+Tb+teH3OKbkNBRkFqK58yAuqLgWS7a/hvk1j+O20Y9iZJ9xUrh3NW/HlcNuQqYrEy9telJ6oucPvho/W/ptjOv/LTkhmLv+YeRk5KKp4yCW73jTts1i9WCWKxN/qPwFMpsKUP3mdnww8Hm09d0Wk+QHZPfDwxW3IhOZIdNr9rTgmd2v4O39H8orcRPpR0FPJGukRlko6Klhx4SsRTwE/cYPzsF1I+7BKWUXYuHXf8Ene5fihyPuMxX0cwZNwc+XXoL9bbv916gK4Z8+Zo6loPfLG4iN9Z/JkHthdhH+uf732N2yDXeOeQJvbJ6L12qfRnnhMPnff//yV9KrFr+rDrsd3x58FR755GZ87/AZuGfFd1HXtFl65Pcc+3f8+uOfSEG/ZfTvZYRh+Y635HvCMx9eNBq5mfmYMOBS5GcW4r6V1+D2Y/6EtXv+h/k1f5LP3Hb0H7Cs7k0ZBRhYMBR3jvkL/rDm59Jb/3bFNXi99hl8vOd97Gze2i1to2dGAR4/5C5kdGVi0ZI9eHHnEuwd9V5MylKaVYKHhtyKHItNcfpM3mtcgb/tfFFGDRLpR0FPJGukRlko6Klhx4SsRTwE/fvvjJcieWzfM+SGtaFFIy0XaVGKAAAgAElEQVQFfcLAyfjpB9+SG9yOKTkV1x4+HbNXfl+KsZWH3txxEEvqXpPXrO5o3iyvUBXXpYp3Hv7kJhkuP7zXGHm/+c1LzpeTBfE7fcBEKbqPrfmF9JhnfHSlvMZVL+gihD9z5fews/kb9MgqllGAtq5WfNO4AWP7niHvS793xdVS0JfXLZKhfCHoYiLwzjcLsHjbfJQVDMEvjvkL/rJ2BjY1fokJAyb77nMvRvX632JpnfMhd30DFN8H/LryFgzOLMP6TU14alENNp46F57M6O8s75fVGw9W/AyFrnxb7X5nx1786psnsaWtztbz8XqIgh4v0umTDwU9fWwd95rGS9BFxcTeahFSPbL3CTEVdPUaugJQL+iDCobhzrFz8PS6B/Dhzn/Lx74/4m6cO6gKs1ZOw02jHsbd/5uKrQc3BhV0sUP/ByPuw8+XXyI3+V0x7KcY3edk3L/yWtuCvnbfR5KF+OTuksrr5Nr7/SuuxZ7W+IvZlL7nYWKvM9HR4cHDT9fii0MWoWnQ+qjbYZ/MXpg5+Hr0zehtKy3RLv6x91W8vOcdW8/H6yEKerxIp08+FPT0sXXcaxpPQVcqpxb09q5W3Hvcs/jdp7dibN/TYOWh3zz6t/j6wGeY8/m9fkbKLnc7gp7hysTU4bfKjW3zv34chVlFOLv8Cryw8TG8u/0lXH3Y7Tjy/292E5vYyvIr5PLAbcsuliF3tYcuJgo/G/VbvLNtITq7OnB+xVXy+/hwPPT9bXtltKKuqRbjS89HUXZvPPzJzfLTu3j/Di8YgvsH3CCW+PGf5XvxwtpPsfeU1wF3dN/y93L1wh3l0zA0d4DtKtW2b8fttY8k1G53Crpt8/FBmwQo6DZB8bHwCTgp6If0PAqH9hqNNzfP1RSsJLdMerViI5jYFHd0n1PkbvQBBYegovAwvP2N+ISpE/3zBslNZsvq3sDhxWPR0LYfX9UHLhLJcmfj2H5nYk9LHb7av1qTh1hPH9f/XLmRTQmxCxE/ufQCDC06SnrXn+9bgSXbX0UXuqSoivB5/7zBEOmeX/Fd3PPRd7C7pQ7HlJyCpXVvSuEWXrUo+3H9zpTLAlsa1sud+st2vIkT+p0jw/01DZ/LMLzY+Le54UvUNn4lJxAn9j8XH+9+X34/f/qASeiVU4L61t1YUveG/Ma+O35Zriz8+ZAZ6OkqwJ76dsx8ah12nfwa2ntFcCyrx4WMph7I3l2KngcG4tpjTsDYyr62qyVOkLvrmz9ifdNm2+84/SAF3WnC6Zc+BT39bB63Gjsp6HGrRJgZZWfkyt3zHV1t/l3VQmRbxIYsjwdj+p6O20b/ATd8cJacLJj9hOiL/dgiDbGYIF3cMH4iYiC+yRfvi8lLd/6mH/J/ODpzIDxd7Xhi/mYsz3kPjYfbv4HN1elGzp4ByKkdjqw9fZHRnI+srmycf2oJzh7fx3bVRNh9UcNSPFm3wPY7Tj9IQXeacPqlT0FPP5vHrcbpKOh6uOJzt+uP+iUGFQzH/rZdGNZzJD7c+ZY8vS4dfpeWX4kris6Bp3UvPv6yEX9evgz1x72DruxW8+qLk+Y6suBuzkf+tqHo+c0RyG7uJaMX7e0daGvzHuF78pgiXHpuf2S4tfeiB2N6sKsJd2z5Pep8Gxe7mz8FvbstkHr5U9BTz6YJUyMKutcUvbJLcFivMSjK6YPtTbUyhN+aYJ9QOdVoji4ag58P/AGy2hqxp74Dj778OTYeughtfbQHvbjbcpF5oBhZe/sie+cA5O4pw6D+5Th27AgMPaQcubnZ+OqrzXjplffQ0tKGI4bmY+oFpehZaLygxaouXZ4uLDm4Gs/uehX7Og44VWXb6VLQbaPigzYJUNBtguJj4ROgoIfPLNXe6JvdF1f3vwQ5HqCsczDefn8/FuFNNA39HPC4kHWgN3LqBiF7VykyGnoho6kA6HKjqKgAVVPORWn/PnC5XHIZY92XtVj44jtS0Pv1zsI1EwdgUGluWMhaPK1Y0rgac3e9hoYgxwGHlWiED1PQIwTH1ywJUNDZOBwjQEF3DG3SJCw+oROnxonfTf2vRlfNAFR/vBr1pRuRWzsMWft6Ax2ZcHmUW+28VSvpU4Rp37sI+fm5cLmAdV9uxpuLlmPv3nqIKPvIQwtx0Rl90a+P+Y1rwQCJc91rO77B7C1/xYHO7ruNjYKeNM04aQpKQU8aUyVfQSnoyWczJ0t8Xq/TMKH9HPzz9e3YuqNVfi8f7Fdc3AN9ehfhwIEGtLUcRElxFo4YWijFvGdhJjLcQHaWS3rw4f7EJrnN7dsxZ8d8bGjZ3C2fs1HQw7Uanw9FgIIeihD/HjEBCnrE6FLyxaG5g3FnyQ1YuGgnVqwNvYbdsyADgwfkoqIsDxUDczGgby6yNALuQXYmkCGUPYKfEPXatm14bs8ifNS4NoIUonuFgh4dP75tJEBBZ6twjAAF3TG0SZlwcWYv/LLiLny1ph7PvV6HDpPzZUQ4ffCAPIw+rBCV5XnSEy/MN7+ExeMB3G4PciL00gVEIep7O+oxd++reL9ee96A05Ap6E4TTr/0KejpZ/O41ZiCHjfUSZFRYUYB7hh8C8raivC76vXYtatDbozzuLvgyepA5WEeTBwzHKW98/zB+FDhdLFZLisTyMyILPSuiLo4AOjxnc/hvQOrIHbDx+NHQY8H5fTKg4KeXvaOa20p6HHFnfCZZbuzManPBTgscxCeqnsRe9b1grstB+29d6O131YU5GTizJ7jcFL+seifURLG2rhX1MU36aEmAFaQxMRgf9cBzNvzJt4/sBIdcTiQh4Ke8E026QpIQU86kyVPgSnoyWOreJW0Z0YP5LtzsKN9j+n95OKO9yE5A3Fc/igcnz8Kvd1Fvqt3Qmx8c3mQnSFC8FGIOjzY07Efc/e8hg8OOB9+p6DHq9WlTz4U9PSxddxrSkGPO/KUyVB86laU0QOj8g/DCQVH45CsQcgW95+LU3AVbffA75GL9XRx3152VpSi7vGg2dOCObvn4wOH19Qp6CnTXBOmIhT0hDFF6hWEgp56Nu2uGuW6slGa0w8Ds/pDXJ/aO6MIxb7/yUcu8t15yHPnIcPjil7U4UFTVwue3v0SlhxYjXZPhyPVpqA7gjWtE6Wgp7X5na08Bd1Zvkwd8gpaIfAV2QMwLGcIRmQPxeCcMuRmuKMLv3s82NtZjxf3L8Zb+5bJW/Ni/aOgx5oo06Ogsw04RoCC7hhaJmxCINOVgX6ZfXBswUic2+Nk9MkuhNsV3Zp6Y1cTFtUvwQt7/hPzm+so6GzGsSZAQY81UabnJ0BBZ2PoDgJiif2kHmPxveLJKMjKkuvske5+F4v2XR4P3mpYin/sehWtXd7b3mLxo6DHgiLTUBOgoLM9OEaAgu4YWiZsg8DpPU7AFb3OQ7HfU7fxksUjbZ52vNPwERbs+Q/2dNRHnpDqTQp6TDAyERUBCjqbg2MEKOiOoWXCNgiIs+LP6jkOk3t9C72y8uWlLpF76kCHpwOrmtZh3p7XsbVVe/2rjeIYHqGgR0KN7wQjQEFn+3CMAAXdMbRM2CaBHFc2JvY6R66p52dlRBl+h9wct619J/66ayHWHtxgsxTmj1HQo8LHl00IUNDZLBwjQEF3DC0TDoNAcWZP3FDyXRyaPcR7O5s4fCaM9/WPivPfd3Xsw993v4xVjZ9HfKocBT0KI/BVUwIUdDYMxwhQ0B1Dy4TDJCAOqLmhz1XIc2cjK9Pl2/0eZiKqx4Wo13c24tX6d/H2/g/R2NkUdmIU9LCR8YUQBCjobCKOEaCgO4aWCYdJwA03Jvc+FxcUTkCGC1LUo/XURRHEZrllBz+RV7DubNsbVqko6GHh4sM2CFDQbUDiI5ERoKBHxo1vOUMgz52DX/T/MSoyB8oNcjL8Lj9piy4/cTvbV22b8Ift87Cz3b6oU9Cj4863jQQo6GwVjhGgoDuGlglHQECsnJ9YMBpX9Z6EfOTB7VaJegTpdXo6sb+zQV4081nTBrzbsIKCHgFHvhI7AhT02LFkSjoCFHQ2iUQj0COjEFf1nojj8kZChOHdLnH1qkseE2vnJ9bOm7ta8WXzJqxr/hobWrfg69atXEO3A4/POE6Agu444vTNgIKevrZP5JofnnsIbiq5BgXufFlMKepZ3o1yZj8h4uL/bWvdhSWNq/G/xs9Q39kAcSxspyfyM94Zck/kVpKcZaOgJ6fdkqLUFPSkMFPaFVLI9ndKLsFZeSfJNXSPx4MMEX73bZQTQISAiw1vzZ2tWNO8HovrP8QXzV+jM4aXtFDQ067pOV5hCrrjiNM3Awp6+to+0WveI6MAd5b+GAMy+kOsrUtRzwA87g7s6NiN2tbtWNu8EZ80fYk9HfsdqQ4F3RGsaZ0oBT2tze9s5SnozvJl6tEROKFgNL7f+3Jku7LR0HkQH7d8ji9aN2BL23bUte+WHrqTPwq6k3TTM20KenraPS61pqDHBTMziZBAgTsPZ/YYjz3t+7Gy5TN5VrtYExfh9nj8KOjxoJxeeVDQ08veca0tBT2uuJlZkhGgoCeZwZKguBT0JDBSshaRgp6slmO540GAgh4PyumVBwU9vewd19pS0OOKm5klGQEKepIZLAmKS0FPAiMlaxEp6MlqOZY7HgQo6PGgnF55UNDTy95xrS0FPa64mVmSEaCgJ5nBkqC4FPQkMFKyFpGCnqyWY7njQYCCHg/K6ZUHBT297B3X2lLQ44qbmSUZAQp6khksCYpLQU8CIyVrESnoyWo5ljseBCjo8aCcXnlQ0NPL3nGtLQU9rriZWZIRoKAnmcGSoLgU9CQwUrIW8dxX+6O9qzVZi89yk4BjBLLcOVh0wQ7H0mfC6UmAgp6edo9LrW9ecj4+3bM0LnkxExJIJgKj+ozH7056PZmKzLImAQEKehIYKVmL+PbW5zF71XXJWnyWmwQcIzB9zBycWX6ZY+kz4fQkQEFPT7vHrdaPr52B5zb+MW75MSMSSHQClw+9AT86claiF5PlS0ICFPQkNFqyFVl46q/UPoUv9q3kmnqyGY/ljQkBsWY+ongsLqy4lp55TIgyETMCFHS2CxIgARIgARJIAQIU9BQwIqtAAiRAAiRAAhR0tgESIAESIAESSAECFPQUMCKrQAIkQAIkQAIUdLYBEkgbAssw2zUeMwBMqt6O+VNKk7bmdfMmo6xqAYBZWOqZjnFJWxMWnARiR4CCHjuWTClFCCyb6cL4uwHcvxSeu1JJKuwJur/+enteNhfbn6tCIkwDKOgp0tlYjZgSoKDHFCcTSwUCUQn68tlwjZsBJJD4BWwSpaDLhGLrESusw40YUNBToaexDrEmQEGPNVGml/QEohF0v9CkgqCr6hAQUGDWMg+mnxgLM9eh+vIyTH0+/CUACnos+DONVCNAQU81i7I+URMwCrrWs30M1/vWb6HyxAPipCmAOmyveO/KA5qQvjqPpZi8cLwUOiGe02rU68UTsNi3Di79ZbW4bq3G5EFTIVaW/T/NxCJMDz3kuyZ11k1kNMK7DBivRC8eAa7Xl1VVH7Owv7quFPSomzkTSEECFPQUNCqrFB2BYIJulrI3XAy/t2km6GoP11zwA2Kr/rtW0M1yV4XA9RMGw8QhckE3eujm5fVmGSiTab2F6AcVdIvJESZh7pb5qCoHKOjRtXG+nZoEKOipaVfWKgoCQQXd74GqRMcsNK32VFWec8DLVARRESm1QGrXqU3D3SrxtgyB+/NV0gtT0M0Y+upVo2wcVIksoKqDL/qgLrtxndx+yF2/1k5Bj6KB89WUJUBBT1nTsmKREggVclc+9zJbLzddQ7fynH0F9Aqytdiai1fgeeMkQV/z2Ah6QJBVkxndlwB+dj7hR9DPy6wF3SqioZSBgh5p6+Z7qUyAgp7K1mXdIiKQnIKu9/gBROuhW27sc1bQ/WKtmizQQ4+oKfOlNCNAQU8zg7O6oQnERNDVn3f5hTWwBmwsRZQeermyIS7YOnOYIfcgO/UDm9bUywPG9IN70uYTAzv86aGHbsd8Iv0IUNDTz+ascQgCdgRFJGErvO7zMi0Pa/F7oVEKuipk76/eZZMw6fkFWOCfXMRO0APevxlMs01x5t+v67mYbwKchEmXLcAC1edtFHR2YxIwEqCgs1WQgI5AVIIOQCNSqrCx2bpwYF06WkEHoF6r1+wkj3ANPeS39GF+tmZ6RKt2t7x3P4A2XfFvE/7tPb2Pa+jsriRgTYCCztZBAiRAAiRAAilAgIKeAkZkFUiABEiABEiAgs42QAIkQAIkQAIpQICCngJGZBVIgARIgARIgILONkACNgmsWbMGosNs3boVnZ2dNt/iY9EQyMjIQHl5OcaOHYuRI0dGkxTfJYGUJ0BBT3kTs4KxIPDWW29h2bJlsUiKaURIYNy4cTjnnHMifJuvkUDqE6Cgp76NWcMoCQjPfMECzR1mUabI1yMlMGnSJHrqkcLjeylPgIKe8iZmBaMl8PTTT6O2tjbaZPh+DAhUVFTgmmuuiUFKTIIEUo8ABT31bMoaxZjArFmz4rJmPu7q23HOkFxt6Vtq8NaDz0Ad7JfPlW43/PtF19+DY0oCr7dsegsP/l158yJcf88xwMf34bEdV+H2cyuhy8n7ojq/i6/HPUeXYLd45yV1scbhqtvPQVmdOv0YQ7dITqypz5gxIz6ZMRcSSDICFPQkMxiLG38C9913X1wyNRNqReTVomp8zivWJbtX477HXvaXVTx3Kt7zibpK0NXiLET78AbD5EAkIiYIIwpbkNv4hSZdoPsEXZTrnnvuiYs9mAkJJBsBCnqyWYzljTuB7hR0WVnpKQOr73sMQq71gi49c2jF3AgpXEEXzw/ClkUNGHFuGbYvehDPLFdSpaDHvREyQxKwQYCCbgMSH0lvAt0u6DqPWCPoJ4rwuV5wzewVnqDLPAqFZ77LJLxOQU/vHsHaJyoBCnqiWoblShgC3S/ovvB3o3fNWiPoQULmWoDhCLpXsHus862dG/KgoCdM42RBSEBFgILO5kACIQgkl6B7xbZS2fHmX1cPQ9Cl198DX/hC/ID+XQo6Ow0JJCIBCnoiWoVlSigC3S/oWo/ZGHJXi28AXSBsLlbe7Qu66W57kax/ckBBT6gGysKQgI8ABZ1NgQQS3UMPuinOWlwjE/Qgwu/fmEdBZ6chgUQkQEFPRKuwTAlFIK7foeu+L/d6y0CNape54bM1GSKvBDTfnft2w8uNbWF46LrJQ8AQXqEvlHmA36EnVAtlYUjAS4CCzpZAAiEIxOukuOgOlvF9i66pS4tqImAv5B7sEzj5t0Jx0M16DFev0/vy1B5k40yz4klxznBlqqlBgIKeGnZkLRwkwLPcHYQbZtI8yz1MYHw8rQhQ0NPK3KxspAR421qk5GL3Hm9bix1LppSaBCjoqWlX1soBArwP3QGoIZLkfejxZ84ck5cABT15bceSkwAJkAAJkICfAAWdjYEESIAESIAEUoAABT0FjMgqkAAJkAAJkAAFnW2ABEiABEiABFKAgIWg16H68jJMfd5Yw1nLPJh+YvxrvmymC+PvBiZVb8f8KaURFyBW6URcAL5IAiRAAiRAAg4QCFvQZRkum4vtz1UhclkNvyYRCfHy2XCNm6GZBESUTvjF5RskQAIkQAIkEFcCIQVd7ZErYihK2F2eejh06uZNRlnVgqi9+nDy5LMkQAIkQAIk0B0EwhJ0UUC/qN+/FJ67xskyK8KpVEAt9vq/qUPm5n+rwWzXeMzALCxdBoz3ediP4XqNOKvF+rYNZTIcL35K+urJh+8vmLtlPia8bxR5fTk0EYit1Zg8aCoWiKjELTUoGzfDm5yq/t1hOOZJAiRAAiRAAmoCYQs6fGFsRfRqfGvbWqyTpHhWbfWGvNU/RXANIuoXY0XQJ2HSZQuw4HmvSFsK+mWTsOD5BZo8xIRiwr+9a+6Bn7dMekE3Cr/vDWVZwS/okzDp+QVQ55QMUQo2dxIgARIggfQgEKWgV+JJ6U37BLw84K1L4a580ivoBm92mc8LV4fu67BsOTDuREXQtWF9ffjcPyFQrefrowdmIXftv5nlpStbuc9D99cxsGEw2g166dHEWEsSIAESIIF4EAhb0DWieW2NNxxtUlKv2AUE0/vILCz1TMc4dRjbsLlOEVTfs760rQTdNITvm0CEFPRTFvvKr81LqaP0wBVBN5k4UNDj0USZBwmQAAmQgB0CYQl6IDyteOSK+AY8dNNMlTC9+KMURsWzV3vhy1A9rxJV/kmAPUEPeP9GzzmkoKsmHIHwuYWHTkG30574DAmQAAmQQDcRCCnoZuVSe6ama9A+8YNvl7kmDd/fzNbetV69TUE3FNAY/vc+Eu0aeuBTPX761k2tldmSAAmQAAlYEghT0LUiq6RqEHVLQTcPbSvpeL3kcEPuSzF54XjfITj6SEHA27YSdJG3YYOees3fZHmAgs4eRQIkQAIkkGgEkvboV35jnmhNieUhARIgARLoTgIU9O6kz7xJgARIgARIIEYEKOgxAslkSIAESIAESKA7CSStoHcnNOZNAiRAAiRAAolGgIKeaBZheUiABEiABEggAgIU9Aig8RUSIAESIAESSDQCFPREswjLQwIkQAIkQAIREKCgRwCNr5AACZAACZBAohGgoCeaRVgeEiABEiABEoiAAAU9Amh8hQRIgARIgAQSjYCpoM+ZMyfRysnykAAJkAAJkAAJqAgcccQROOmkk/z/YiroS5YsgXiQPxIgARIgARIggcQlUFxcHFzQE7foLBkJkAAJkAAJkIAZAa6hs12QAAmQAAmQQAoQoKCngBFZBRIgARIgARKgoLMNkAAJkAAJkEAKEKCgp4ARWQUSIAESIAESoKCzDZAACZAACZBAChCgoKeAEVkFEiABEiABEqCgsw2QAAmQAAmQQAoQoKCngBFZBRIgARIgARKgoLMNkAAJkAAJkEAKEKCgp4ARWQUSIAESIAESoKCzDZAACZAACZBAChCgoKeAEVkFEiABEiABEqCgsw2QAAmQAAmQQAoQoKCngBFZBRIgARIgARKgoLMNkAAJkAAJkEAKEKCgp4ARWQUSIAESIAESMBX0ZTNdGH+3OZxZyzyYjtlwPVKJ7c9VoTRahlurMXnQfEzeMh9V5dEmFof3l8ew7o4Vdxlmux5CpSlT8bfxgLDjiY4VIMYJB6uPyEpXp+6wUbR5xqMfyDymYgEA2Y8dsX8oW4XfNPzj0WVzYzPm2CmCxp7J2Ge0lZQMsRSeu8bZqX2SP1OH6svLMH/idsyfErVCaVno+mndvMko23Cbj2vs2364hgjhoXvB1Nyi6/zRDl7qUoY7kIX7fLhEQj0fy7qHykv19/A6JAU9ZhNOuzYKs13IgWDh5IBAOd6unRnkDPWQkyuryaRdmKrnBNdxwFLPdDgnRSaCTUG3YaxEnegY23p442eQqlPQbbSLcB5xfOALUZgwB+5wqhbs2fAaZIwH1VhVIuJ0wqxPd9gozDyNQhgxHJsvOjP4Oi3o8eEUStBtIk67x5xpU9FjdFDQdYVLLQ/9lhqUjZvhraI+HCZn1r6/YRLmWoXULWY824c9hLIqERwEJlX7QieaNNV5eg049Xkf7fsDoSUF+FKMl8sIItQ4rcYbJjHNw5eEZtlBXbegA7ciPLehZtB4KLXXhjd1ZdWxMZZ3OyofUdVNFS6Vz/oYAbNUXkw4Hrq6PEHsJALb6qWYIOFPfR0EUv9Sja32AkBlQ29IXXh9VlxDhdyt24dx8PCm5bWdmimg5a1ql+LRUB6dytOEbklLtu9TFhuWnmzlp+6DGmaqmqlC7d5/VeoVblvURur0S3PeflpjYit9u1Iz1nFUFds0/con5XLf0onzMb5qgX9siJiVFZsg9lTad7DxQ7YHO+MfgvU/K05K5HQpME601VlYuqUSD+mXLlVja+VT+pC71vbqMcp6XLHTpvT9RNuHoOMdyNfXx5dNxvxx3mUhr6ZMwGLV2G5vqUgt6NBqg9lyk8FJ9HJfpeiOb+x7aJixn6aOoIvGqgwgPiONUdblZGNeFRDxYGEzM0FXdVRvx1ClZYDva5gjFRHXzs6UxmnWYLUTBW15Z2O6b41RZ9yQgu7rYEqIUFN+fVl9QqCqn1l5Rds2eOhbqzH7/QmYLteI9OnaF3RtunWonleDqikmwc3ls2HJxGzWWrXAv07rHyD8gmPCVG1j0/oE4xpM0IO3D23R9TP7ZaieV4mqKaU+MR+jmzSpOn0Ygi7ohgq5e5mFyC9YHzTMVPTeVORtUZ20uYeutpVZ21QPlsG9PEP6PqH0912FZVSsQnno2r8r7TnY+GF3/LPuf3pRUZdBEWO1WAb3SrX5+CYKqgngsnnVqJxSBejaXfAIiZGbvt1q369D9czFmHCXd++V9llfmfyOgjKZCUwGjX3CypcP10PXLS0LjbllPoDJeEzuE1ONp9Du+UohQdeua4kGI2cwU7wzIu2GhCACYybo6rVF3+DuX8fXC7rJZEEN2axBGv/NYq+Aylv31q1U54npG5TZ4KRqXMK7MFkPDLDzCYem/t48QoXc7TcsbRllumvC32ykLrOeQiixUupj3V4A70y+BrfJiVEIrtIrVG30U4triPZhJuhT/ZND5a8WoqPPx79R1EIgVLYPzshmfrq2FMwmphsHI2yLdgRds+lSxUkKhq59h9WWDPaMBasIBN1yjDLbq2A9/ln1P7NxK/gYq58kmvRzZVOcpVNiwkHTD0ONd2G+H6KPmzkxgTHBSszFv4cr6D52vs1tgv2TlbcB4xZjghh/pMDDK+7psoaub2z+8LeKu2m4JCiggHGCC7oS3FZl5pvpyQHEvwvR+3et+JnkoQ/ti0eU2WxID924IcjPxhcu1H8doG64xrJZCLohVKhegrDvofu9e7lcoQuPqftMMCZmHrqaucm+h0CdK803XmreMa9PoM2FEnTr9mHcA6t4BjZ4quncIvsAABnpSURBVMUlph66hf0s8wu0Ef/EM5SHbtGO7bTF0IKu6wN6QfcvE6lSslguMPXQNV/YxIJVBIKuGVPUDoF+GSNQR/Nwsfr5QP/TLyH4U5GcLPqM2pPcqv0ax55dVW1f036sluL03EK9b8ZGSdtoR3NBt/NFVPiC7o0ECyd1GmoufxKVz02HWBpbfHZgiVZ+IZCugm77k4GYCLr1LlgzgQwu6MbOrWlYYQu6qrOLz/3seEW6CYjRQzc2WO3AF46gB3qutbcegkkMBN3QXgyzd/1EST2I6soXwkMPNrcP/E0dKob5p37d7aHrPh11xEM3aYtRC7pJBMrKJvYE3eQzTEvbmE1+Yi/otsc/VcXV/c8skqFvm4avj1RrvbdtKPNFTL1TVoOgm9rAItph2WHMBd3qk9jQUSltH4+roKv36dxSg2nCG18+G5NrpkGwFMIuP/NMP0G3WG+83AdJ3ziiFXRfOFa9gcEbMpkvDRC1oCuesG0PfTxmqDaMadd9rNYtAxMSex66ca1XbuTSrD/Z+Q5du6al3dilNpSu4+qZRCXo47zLGCZr6IFB0Tfzt+QaRNBDtA9t0Zdh9kxguu9bXcPSjck6rX/w0kz0zNftpz6v88CCfLZmtYZunl8EHrphn4KynyN0W4xG0L0hy6nw77eRYjMZNdean0MRWtD1a7FSvqyXYHyF105+YinoFuUxHf+C9L+gnIIsEcp2uAqTnofmbA+zNXTNpi/fGnqNfglOlOOpSsw3/X7dYqKvXsJTva+3pXfTY4QeulzL1rYj/YRHPakKtWSpTHoeWjMJmPiYd3lVWUt/foxv6S9NBV3A0YaMgoRywxV09W5rwwYKr0kNG2aiCblfNhdzR07F1JDrT8pA8hAq1Ts1DWFsfdjJZCe1mVekCrHL0F154JAQESqfW70KU/0CEYaHbnc3rvo5PZNoBV28rwvpq23o3+Wu4aoOA4YawLWhQG3a2sIHa7f6MKgmhKqP3GiWRCZhbvUYTK1SR5ICZbK7yz1ofuqduKaHaZh5XxG2RQ0yXT38u9xVAh2UTfBDbuwIunG80aVpElXTRzMCtvX1xyBLKCGX7MIZ/4L1P8sd4cH2/PjsoVvCMAqatk+o25ZXaH1GDnGYj4Fb0K9htO1tVvVcrKpSQuhhhtzDFHT17nrLnfIWjoVmT01ye+j2gpN8SiEQTEhJiQRIgARIgAScI8Cz3GPKloIeU5xMjARIgARIwDYBCrptVHYepKDbocRnSIAESIAEYk+Agh57pkyRBEiABEiABOJOgIIed+TMkARIgARIgARiT4CCHnumTJEESIAESIAE4k6Agh535MyQBEiABEiABGJPID6CHvR0tcgqFfxULGOaVge2RJZ7er5ldr502CRMjoENnkaMNhr6v/cNfqOc/foEP//ffjp8Ml0IxKT/xBEWx8w4wo5RVikq6MZDNBK9cSZDZ49JGR0Q9NCnQIV7pKWd3hWtoJuVyYly2qlLeM/EpB2El2X4T4fdzsLPItQb+naZFNxUlUr0MTMUf/3fk41/uPUTz1PQI6HmwDvp0NgiwxbaQw8p6I4M7hR0/SVDkdnXobccsXl4ZQ3ZLsNLLu5PU9DjjjzqDIMIuu5YSPVRgr4Q+tKJ8zHed3NS4PhK3+X06iNPlZD7LTUoE3c4y5/+ONjgx3Nqjt30HT06X7nSVI3BcAuZN59K361r24c9hDLltifd8Yi2j6sV+WnyUepicSa0+kIW9VGPvvw1Ry1qjq7VMtEyUwRlKTBO3D8dYCpuCVKObtQfc2pZR51NzY5H1U46FKG9DTWDtPkrt6mr8/KnZ3XzmnLU5P1LsRTjVRdLmOWjhM2NtzcZjnXU3xJncVxwcLZmRxcr/Lej8pEyKLcL2uJt1ka3VOKhQUrf0faPaGwmm4Xu2F6vECd6W7U//hjaqk2bmx0RLdqe6DvedqQ/HlX0NZOb5PxjWvB2Oa1GfXWsWfvRLwfZyF8nAZbHtpqNwfob7jTcfMdJW17Oo7aPqtwm/Tv0uKE+qjeSfqU97lu5k0LRJ2FnccGK/zhb3fHgaoRhaUDU8hv7BCwE3fxyCf9h9z7D+zuE0hD8g6XufeXvqgakvdnL23ADlwVoBxvDRRX6/A1cLELuVQsC57zrzu3V5xHUY/blHxCPZaieV4kq/b3c/sHUd4a3vrEvr0Z1eRWqyvV3GYsX9Uz0lz4oHUoRm0AH85crnDqGZGp+3/IM/8TMzObqiz6qUTOlynu38KDAFYihbasMarp6qu4sD+kJGQaZcNmadTyFt34wC1wYEbxN2Qu5B03Drs2qgLlbfGerb61G9dYqVPnEynBvuTL57Na2Gub4Y2Ye04njbOCu6ZATTtO+scAn5OIB40VK2stEjGkEruD05hE85G5sP9ox0Ub++novn43ZmO69FUw/fujHYP3lL/pzzENcwKStWx2q59WgaorxelFJUjhTmnsmhAOgmiRr8g6/X1nV1XRyHeymv63VmP3+BEyXdyGYXKQVe/2NeYrmgi4Ba68k1YRfDH8PsWZtkp76GroJ76sN7q1jYNMbTO/LDuuqSEOjCnRY7xWEJoOr5vpOLXfrvEN4PSY3KCkp6ycQ5hMKdZhXf+Oa1aRA8ShC1NHMRrrmZtYxDYKgXOlpuOjAl5hmoDULW+vrZcFUdXVouIIeCVtjzzPyV9rteHmRj8mVq5o2ZUfQo7VZ6Es8ggu6+W1WjrdVcZd3WOOPybgYMuSuXcoxtAmz/m/SdrXXpGrTtCPomvfVeYbMP7QWaMYpk/6t/rvZmBYs5K6dfKjKYstD1193q+5L3vFef/1sgKXNq4xNrqkOd1kzGZccggi6EhpXGUvxwA271i0EXZkNme5yDzR+KehKGFzdTqVHLwxovAo0IkHXhI/Ug50+tK0UwmxHdBSDpN8z8LI1hPxUs0fzxmRs+Oo7kY0NVm2XEHUUg6jufm39kGEeOrO+VUsdvvJHDTQd3nx93Hi1pUmYM1pBN4QSg7O1EnT9ndQBu3kHHmMvUl8XqR/Y9P0oWpuZ8/VNmY13vOsHfVUINq5tFULQwxl/7Am6fmlLvKW0S0N/CzFmVZUbl3uUUihp2hF0TftRi3jI/E3qrF9qEI8EufY5lNMUXNDU9Vd527YEPdh4bu7AafuVydXQ6rZrys7M4dExNCyFAQhx21zoaVV8n7DtoWuKFQtBVzVeub5tGQox82TMvaNAGUNEDOSDRkHXeCuWdgiWt411SSVdnbceqdcTrqBb1tGiE6gxhCvo/nfV3rq89lB9ZWKw2boIfZmIkq6sTnnoerHWNgnziV1gkKwxCqYmgQg9dHUaIW1mloeSQAK3VSno2ghh8PHHhqCHiCqaCrq+DCE9dG05ohb0oPnr62y0pyZ/k7aiF3Rrr1jZFWM+KGq89YgE3Rh51Pe9kP1KXb+IBN1OxDO+4hxJbhZr6OZrjE9Wzveuz0Qi6ONmqDxS3fqESSh62czJqLnW6/3pwzuK52d9r3W4gm7MQy4JPFWJ+XeZNGZDOFlZQ/fOLgP35+rWuTVrXFpBsPKuA/sK9DNMo6AE99BD1DGkOJithVl7zpg3G4tPmS7tpxFljaDbsW3sBd1yf4J/UhksCqN0M51txT/r2oUhLKlpU3YEPUY2qxojN4bKluxfQzdfp576fOA+8MB6bLzbarjjT/iCrowhlh66YQ+LcW3XsP9DvHN5DabJTYf21tAtPXQb+eumD9oJpH4NPKigl3rXudXtRL/mrsmsDtUzF2PCXd56avVAbztflEm/GVXl+WrzDt2vTLm7VI5BTARdX+5I5DX+7wTZ5a4N92nEMxJBf6QS6l3xhlCGLtyh3a2sC28ZdkIbwQXCvdpd7h6/QBsHbcsdomZ20YS39CEnZbfyJMytHoOpVYq3YaxHoDwB3gHWupCrJvwTvqBLaVXtgNfYIMaCruyiVgKn1rvctUyUHakP+b9gCC3o6i8ODLvcfSKm3ojnNWd4bE1amG9vh/orA/VuXV8uVryVfR1yqSnQfvTt1r+5SvkKQN0GbNhMlEK99KGxuabPJVpbDWf8CeI5Cm4+ZjWarz/mYkzVVCgRK9Pwsp7PFvFFh3YSq2Gr/3JH9b5ol+a73MUeHl/59evmNvI3RC6UpQrfl0BT5X6OcSZOmHqfkpRlw9ggx2urXe6a8U+3NKkbG+dWr8JUzaa4h1C5bDLmjzP5IsofOVX3K+PSp5a7rt9Z9guzMVZFUMPbt8s/2Ca6+Ot1yBzj8x16yGLwARLQer7Bw92kRQLdQCDIRtm4lKa7849JJYPt65DTT9NN0DHJOg0SoaCngZETuYpipu1fyvF7k6oQcSIXnmVLYQJCWJ5E5XO+pYq4f8bU3fk7ZVoKulNkRboUdCfpMm0bBPS7hc0OcbGRDB8hgVgT0O961h/EEuv89Ol1d/6O1I+C7ghWX6IUdCfpMm0SIAESIAESiBMBCnqcQDMbEiABEiABEnCSAAXdSbpMmwRIgARIgATiRICCHifQzIYESIAESIAEnCSQwIIeavOEk1iYNgkkKYGQZ5gnab2iLnbifA4V+kzxGIx9Ns8oiBorE3CeQBi2pKA7ZI7QndahjJmsAwSCHaHqQHbRJJmQgh5/fsb+l7iCbjy6OFxBtzjGN8TdDNE0s6jfTch2GnWtbCYQZn+goNvk6uBjFHQH4cY96TA7YNzLl+gZxp9fIgu63loU9ERvv7EuX5j9ISaCrj6+T/P9ZbDjS3XHTOrvvNUd/yqPAz1lMSYPMjsC0DhLtT5mUV0m9TGBVv9uYiDdsX/es69tXGBhwkl/q5PlUa6aoyIVD0J95KH3m2xojqzcjvnyvl7vz5KJrxEox+1anntveYSjwl8cd6ncGqb7Rlx/NKU8zrEGtynnhuuOV9WXQcPJ7Dhfy7I5w2r7LTUoU47OVNq84QYm6+/kzW1hPJdcfcY7xBnaG27D9mEPBW4c1N/wFMpGyjGa4r1HgOtV980HbSP+i2+C2Fg5UOV5b3tTH60b9NhTpYEG4ac/vtP0/mrlFsbL5nqPjtYcRWp+PKx5/1Nu8dqOykfKMNWkPv47sH1/899UpvSzDbdhKcZj/N3GI371d6ErxxGPWaYc7RqIEASOgJ2AxeLuByU/P1+zvmd286P3bP7A+Ckt5D23XxEBdZu23a7MBEw77lvdKKccqRy4BEptI1XZ1Lfp+culP5NCW2fleF7FBv72qL6dT1dH6zbqY6zuO74z+P21N2OoP95Xf4R00DF9FpZuqcRDfr1T2SvKY7mVMpuH3PXhkOXVqC6vgv/KwJG+84F9nd1/S0+wC+J9g5K/0yqDlN6Y/rS1gq4/kF89A5dnNCtnFosyzatB1ZRx3rOJTf7d0Fx9ZQkMVsplKyY3ZslnfWezW3Kyupt8PAyXrfgvRNBfShBo3P5y6S7/CMakVM/brI/qL5lR183fUBUB01/moRcq46UKy2bOBu7ynbQVouzeAVF1gU/QsjnDyj+AGy4LCj2jDmoLdTvR3fVtvGhIx9mOjdSDmK5NBi2XTRvPUE3ol82rRuWUKsiJiOoyj+ARKSM/qws2/P1DX2/9ZSOGy0u0eVh56FOfD4iE9vIc88tqlLFNsZPpXQGyb+kckOWzMfmRVVgw8jbvWeqqY1v1t0uae+hiEm3V9ww+vsVVuDMC16fq23TQdmWevlk70I69CgflohQv08Atbsq4Wurjody6KKeduoutjJcd6W3gF2t/+9SOSbbafrDrURWNUrd/oSlr5mK7FH/jZF2bp8lFM/62ortlUnNxly7dqD10k9vPZDk0A77KQ7Q4wF9z4YHhXYtO7k9L3UFMBlRVB5EerB9yoDEabruyiJxY360ewkO34qTM6PX3mxsO+lev6+kbv9WkQLkcIjgTOUMPdgWlfjJmGJRCrMuZNbKgeartabaeqa6/15vSXudofF/9d+MAbr/9mLEy3smuv+ZV3ZhC2MJ/89ZczF0zFcGvvFX3s2moCcrBKt8g19NqzgOPwMZWA1LQc8b1+VhMkFRtSghF4IIeL2u18JlNINQ2sxJ0TZtSlznE2GZnCU2dv7wt8uzJmP8I8JgY/EX6/54gxV2flpWga646Djqo24gk+vh5mYbqX7qBMkjewctuItKayI1K0C3GjqA2NVmHD3rNaqi2r9cHszKp8pzwvtm138HHdF9LDnG1su7inKgF3S/e3ruyDF61vuLKLMcQ/lFdEG8olIWg62/l2SKuUNWG1gLZK7NtdahGHRK1+nd1BYJtlrHRUZRZnJqTlaAbJj5GEQv3fnPlNjMDE+EJBt0Uow9vBVLweiE6j0NpE740lVBx4LY4JfwXCLnrQ58iCcu0TQYcdShSKZ33faPNzAVdEeEQ7ceEVSSCbmkL/xWy46H2cqRf4gu5m3P0Cro1BxMbaQa5UP0mAhurBD14fYNNeEzy1TgM3nrrL+hRs9KH6/25+bwpW2voBkE31ki5qc20vevGwUCelXhSXqMqQurXA4/MR+VTgQmKPUG3vpo4sOCmFCDExMz3mP7+c+t2pa2YaRtVpRmIgsppl06sVG0wSCTJeCW3xSROPYZaCLq3PJDlsG6jFm1QXXVTIQ28JwU9zDHdUtBVOqJvy1Zs9DIs/jv0Lne1FyrXKpSrQPXJhfAwYyDomhmrWW2UWXxY3rqx3IGkbQi68rDOW9d3WvMZvnE2F66gWzIJOasLVm+lYwa779xkdqqe0QaNyJh5aKE89OCTMDuCHg6rSAQ9WPv0DopjMOvuGf4rOy0F3W877xqrNlKhF0qdjUwE3bpcNgTd9PpICw/bok9aDfKGcoWodygPXdNCBG9N2U0m7iE8dEN6VleJasaAGtwm1kmfqsR8nzf+ZOVjqHzEK+xV5cbIm61NcZF46LoJvV7QrduViaBbXCNqK7ogk9N564blSnNtMXjoYQp6WG1f337NmAdZOvG+HnxMNxd0Y3/ScA05lgcKbi7omni+uoDejPXrwN7bsozrJXKGpMzKohJ0X7hNLdQCrOw0laieuRgT7hJrGr5wpWzIE7DY9N99z+lnYuNWYa6MBnjFrHpeJap8oampuj0DU58PbO6Yjem++4y1A4aVwBjW0P0dJVyvMxgT8/uPDVMw3TqoHHilZ6GsDwXxEizWmf3rfjpB169/6ZdD9GvJpmus/rI5zyo8QbdhC2UiHIKLIn5KOwnOIZSHHqJc+nVfTf8xXyNU1tDl2qlpfxQ3uOt/FtE41Rq8XvQN9davZ5osd8kw97Xmoml6LadJCNZ8bLOIpBjq6RsDMQljbhFjojIercIkTPaG3k2id/EX9FLfZlr1rYbqvm9uPzWboHspqhYEInEzgeliD4E+GmXwrq3W0AMOpCFSENRD9+2hsmyjNj109b4ewzq/uR4GJpJW0d8QS1D6/SJq7QyyzCsYW3jounCsZpe7Noyn2ZmqCbnrLoiPUtClzKp2eyuhML+I+3dNqnZGasIYFrtElbareVYVttfUaRLmVo/B1CqlkdnjZLnLXbMhI3yRCsnExneo2tClerkiuPdm5K7s4DQPuU+qnosxVVNV3qmWnWB024YyzbqpddmcZ6XfVxEoi/Uud9P26Ws/EF90yK8TfPWGd2ONEspV79wNuttbs4s2tKAHbSMhBd07uVWHLtWbwiz7o4mkm/HTh831G8406d+/1PslgMFDU76Q0e88D5Tby1PZ5a7sOjcuEenrqrZDsLCzwZM3mahYT+S1O9XtLHcZQ+7qr110u9xVO7et27SoQahbDq3agb4fa/u5dR9WjeeWu9y1ZQpX0MNu+xYeuvKlkPyz4cY93bJWiDFdycLQH9T6c9lczB05FVOVDd3RC7pJj+Q/kUAoAmGEhoxJBdvLECrj5P27XaFI3hrGruTWm1djlwdTIgE/gajGs+7hGHoNvXvKxVwTnoA+RGcMPwWrghAy71KN9yljaDnhAcSkgBR0C4zis6+aaYEzF6QHo14Wiwl+JkIC1gQo6GwdaUVAtzPT8vAaUyj6XfahQn6pSZaCbm1X7VcSIZbMUrN5sFbdSYCC3p30mTcJkAAJkAAJpC8BhtzT1/asOQmQAAmQQAoRoKCnkDFZFRIgARIggfQlQEFPX9uz5iRAAiRAAilEgIKeQsZkVUiABEiABNKXAAU9fW3PmpMACZAACaQQAQp6ChmTVSEBEiABEkhfAhT09LU9a04CJEACJJBCBCjoKWRMVoUESIAESCB9CVDQ09f2rDkJkAAJkEAKEaCgp5AxWRUSIAESIIH0JUBBT1/bs+YkQAIkQAIpRICCnkLGZFVIgARIgATSlwAFPX1tz5qTAAmQAAmkEAEKegoZk1UhARIgARJIXwIU9PS1PWtOAiRAAiSQQgQo6ClkTFaFBEiABEggfQlQ0NPX9qw5CZAACZBAChGgoKeQMVkVEiABEiCB9CVAQU9f27PmJEACJEACKUSAgp5CxmRVSIAESIAE0pcABT19bc+akwAJkAAJpBABCnoKGZNVIQESIAESSF8CFPT0tT1rTgIkQAIkkEIEKOgpZExWhQRIgARIIH0JUNDT1/asOQmQAAmQQAoRoKCnkDFZFRIgARIggfQlQEFPX9uz5iRAAiRAAilEQAr6ypUrPccccwxcLlcKVY1VIQESIAESIIH0IODxeLB69Wq4PvvsM09FRQUKCwvTo+asJQmQAAmQAAmkEIHGxkbU1tbCtXHjRo/wzisrK1OoeqwKCZAACZAACaQHgZqaGggv3VVXV+fZvXs3SkpK0L9///SoPWtJAiRAAiRAAilAYMeOHVA03NXa2urZunUrmpubkZ+fj759+6KgoIBr6ilgaFaBBEiABEgg9QgIb/zgwYPYtWsXmpqakJeXh/Lycvw/Mw7g6K3EiAQAAAAASUVORK5CYII=;" vertex="1" parent="1">
          <mxGeometry x="246" y="107" width="500" height="288" as="geometry" />
        </mxCell>
        <mxCell id="VqGsNGX4vfgdfjk8QoRv-95" value="API" style="text;html=1;align=center;verticalAlign=middle;whiteSpace=wrap;rounded=0;" vertex="1" parent="1">
          <mxGeometry x="370" y="806" width="30" height="30" as="geometry" />
        </mxCell>
        <mxCell id="VqGsNGX4vfgdfjk8QoRv-96" value="API" style="text;html=1;align=center;verticalAlign=middle;whiteSpace=wrap;rounded=0;" vertex="1" parent="1">
          <mxGeometry x="491" y="806" width="30" height="30" as="geometry" />
        </mxCell>
        <mxCell id="VqGsNGX4vfgdfjk8QoRv-97" value="API" style="text;html=1;align=center;verticalAlign=middle;whiteSpace=wrap;rounded=0;" vertex="1" parent="1">
          <mxGeometry x="990" y="818" width="30" height="30" as="geometry" />
        </mxCell>
        <mxCell id="VqGsNGX4vfgdfjk8QoRv-98" value="API" style="text;html=1;align=center;verticalAlign=middle;whiteSpace=wrap;rounded=0;" vertex="1" parent="1">
          <mxGeometry x="1109" y="818" width="30" height="30" as="geometry" />
        </mxCell>
      </root>
    </mxGraphModel>
  </diagram>
</mxfile>
